<?xml version="1.0" encoding="UTF-8" standalone="no"?>
<!-- Created with Inkscape (http://www.inkscape.org/) -->

<svg
   xmlns:dc="http://purl.org/dc/elements/1.1/"
   xmlns:cc="http://creativecommons.org/ns#"
   xmlns:rdf="http://www.w3.org/1999/02/22-rdf-syntax-ns#"
   xmlns:svg="http://www.w3.org/2000/svg"
   xmlns="http://www.w3.org/2000/svg"
   xmlns:sodipodi="http://sodipodi.sourceforge.net/DTD/sodipodi-0.dtd"
   xmlns:inkscape="http://www.inkscape.org/namespaces/inkscape"
   width="1052.3622"
   height="744.09448"
   id="svg2"
   version="1.1"
   inkscape:version="0.47 r22583"
   sodipodi:docname="arm3.svg">
  <defs
     id="defs4">
    <inkscape:perspective
       sodipodi:type="inkscape:persp3d"
       inkscape:vp_x="0 : 526.18109 : 1"
       inkscape:vp_y="0 : 1000 : 0"
       inkscape:vp_z="744.09448 : 526.18109 : 1"
       inkscape:persp3d-origin="372.04724 : 350.78739 : 1"
       id="perspective32" />
    <marker
       inkscape:stockid="TriangleOutL"
       orient="auto"
       refY="0"
       refX="0"
       id="TriangleOutL"
       style="overflow:visible">
      <path
         id="path4101"
         d="m 5.77,0 -8.65,5 0,-10 8.65,5 z"
         style="fill-rule:evenodd;stroke:#000000;stroke-width:1pt;marker-start:none"
         transform="scale(0.8,0.8)" />
    </marker>
    <marker
       inkscape:stockid="TriangleInL"
       orient="auto"
       refY="0"
       refX="0"
       id="TriangleInL"
       style="overflow:visible">
      <path
         id="path4092"
         d="m 5.77,0 -8.65,5 0,-10 8.65,5 z"
         style="fill-rule:evenodd;stroke:#000000;stroke-width:1pt;marker-start:none"
         transform="scale(-0.8,-0.8)" />
    </marker>
    <marker
       inkscape:stockid="Arrow2Lstart"
       orient="auto"
       refY="0"
       refX="0"
       id="Arrow2Lstart"
       style="overflow:visible">
      <path
         id="path3976"
         style="font-size:12px;fill-rule:evenodd;stroke-width:0.625;stroke-linejoin:round"
         d="M 8.7185878,4.0337352 -2.2072895,0.01601326 8.7185884,-4.0017078 c -1.7454984,2.3720609 -1.7354408,5.6174519 -6e-7,8.035443 z"
         transform="matrix(1.1,0,0,1.1,1.1,0)" />
    </marker>
    <marker
       inkscape:stockid="Arrow1Lstart"
       orient="auto"
       refY="0"
       refX="0"
       id="Arrow1Lstart"
       style="overflow:visible">
      <path
         id="path3958"
         d="M 0,0 5,-5 -12.5,0 5,5 0,0 z"
         style="fill-rule:evenodd;stroke:#000000;stroke-width:1pt;marker-start:none"
         transform="matrix(0.8,0,0,0.8,10,0)" />
    </marker>
  </defs>
  <sodipodi:namedview
     id="base"
     pagecolor="#ffffff"
     bordercolor="#666666"
     borderopacity="1.0"
     inkscape:pageopacity="0.0"
     inkscape:pageshadow="2"
     inkscape:zoom="0.35"
     inkscape:cx="816.58837"
     inkscape:cy="497.99305"
     inkscape:document-units="px"
     inkscape:current-layer="layer1"
     showgrid="false"
     inkscape:window-width="1024"
     inkscape:window-height="693"
     inkscape:window-x="0"
     inkscape:window-y="25"
     inkscape:window-maximized="1"
     showguides="true"
     inkscape:guide-bbox="true" />
  <metadata
     id="metadata7">
    <rdf:RDF>
      <cc:Work
         rdf:about="">
        <dc:format>image/svg+xml</dc:format>
        <dc:type
           rdf:resource="http://purl.org/dc/dcmitype/StillImage" />
        <dc:title />
      </cc:Work>
    </rdf:RDF>
  </metadata>
  <g
     inkscape:label="Calque 1"
     inkscape:groupmode="layer"
     id="layer1"
     transform="translate(0,-308.2677)">
    <g
       id="g2838"
       transform="translate(141.27073,131.36366)">
      <path
         sodipodi:nodetypes="cszccssssssccccssccsscssssssssccssssszczzzzcccczcsccssssssssssssssssssccsssscccczssszzzcsccccczccsccssszcc"
         inkscape:connector-curvature="0"
         id="path3066"
         d="m 199.07771,667.1826 c -10.53671,-8.34523 -10.46859,-27.25385 0.13659,-37.91599 4.31464,-4.33782 4.5994,-5.17598 19.07533,-10.97583 14.47593,-5.79985 27.97284,-8.26766 39.64792,-12.9682 10.08154,-2.90756 4.54007,-1.60114 13.47282,-4.41193 0.93283,-0.28364 2.87044,-2.99813 4.30578,-6.03221 3.48456,-7.36575 17.38442,-19.58766 22.27686,-19.58766 1.01699,0 4.86846,-2.025 8.55883,-4.5 7.46072,-5.00365 9.51326,-5.42733 12.15438,-2.50893 1.94754,2.15201 9.77582,7.00893 11.29684,7.00893 5.95207,0 18.57245,14.31445 22.22655,26.28068 1.45662,4.77007 3.5491,6.71932 9.72782,6.71932 6.15493,2.3054 13.41941,2.24366 19.03899,4.62075 5.31471,2.1198 11.21884,3.39902 16.21788,5.34685 20.58439,15.10456 40.59959,-19.75402 64.30712,-41.08182 3.95609,-3.46712 11.24288,-10.37229 16.19288,-15.34482 4.95,-4.97253 11.025,-10.36836 13.5,-11.99074 11.86598,-7.77822 11.54278,-12.67642 -1.2635,-19.14849 -24.3797,-14.63022 -47.35721,-34.53234 -66.7365,-52.95226 -12.8212,-12.41202 -16.03936,-14.44032 -22.98213,-14.48491 -3.03483,-0.0195 -6.64287,-0.67854 -8.01787,-1.46456 -1.375,-0.78602 -3.97144,-1.44507 -5.76987,-1.46457 -6.93322,-0.0751 -16.23013,-8.09621 -16.23013,-14.00283 0,-2.6664 -1.03116,-5.89002 -3,-9.37861 -4.68606,-8.30324 -4.20924,-10.75866 2.97924,-15.34181 3.98078,-2.53802 5.99196,-4.48065 6.01728,-5.81218 0.17112,-8.99875 32.45404,-9.69487 35.69346,-0.76966 0.35327,0.97331 1.91754,3.40942 3.47616,5.41356 1.55862,2.00415 2.83386,4.03516 2.83386,4.51335 0,0.4782 1.575,3.20819 3.5,6.06665 1.925,2.85846 3.5,5.73087 3.5,6.38314 11.61967,22.13079 49.91556,33.69394 70.5,50.16923 1.65,1.35099 5.475,3.69984 8.5,5.21965 3.025,1.51982 7.1888,4.27998 9.25288,6.13369 2.06409,1.85372 4.19483,3.37039 4.73498,3.37039 2.24079,0 11.85786,6.62581 16.52723,11.38666 2.75831,2.81234 7.03331,6.732 9.5,8.71036 10.18728,8.17048 8.27082,11.66413 -7.18472,34.59029 -15.45554,22.92616 -44.4923,47.52082 -59.48784,71.1284 -5.79203,4.6114 -19.21532,27.24242 -26.60387,34.66005 -7.38854,7.41763 -12.78594,8.85582 -22.26615,14.52345 -9.48021,5.66763 -41.13188,8.89504 -61.81827,10.50079 -20.68639,1.60575 -53.8249,2.35163 -78.2971,-0.38594 -24.4722,-2.73757 -63.72405,-4.7583 -89.49373,-20.22224 z m 167.42154,15.776 c 25.32493,-2.10599 50.7855,-2.4893 68.51134,-14.30432 13.65652,-8.33583 21.0975,-19.36967 25.418,-26.85436 7.2219,-13.58244 15.22048,-18.19411 29.62265,-36.42093 14.40217,-18.22682 44.98795,-43.32152 53.41209,-68.23536 0.90388,-5.56998 -9.60669,-18.70113 -19.92515,-24.89305 -2.10313,-1.26205 -5.62388,-3.69658 -7.82388,-5.41006 -23.38932,-16.032 -46.6552,-30.26222 -68.81565,-42.37668 -16.4705,-8.86048 -20.85464,-12.61606 -25.30044,-21.67306 -13.35339,-27.20353 -18.17702,-31.45341 -32.26939,-28.43114 -5.85783,1.25628 -6.81274,2.19173 -7.6626,7.50643 -0.63636,3.97961 2.92501,10.69003 4.1484,7.81652 1.57476,-3.69882 3.14259,-4.53939 8.71002,-4.66974 7.56426,-0.1771 10.18109,2.28454 11.066,10.40976 0.74603,6.85004 -0.17557,7.88922 -7.61428,8.58576 -2.89413,0.271 -6.43992,1.10112 -7.87953,1.84472 -2.05547,1.06169 -2.93507,1.09279 -4.09662,0.14484 -2.00009,-1.6323 -5.78591,-8.09961 -5.78591,-9.88405 0,-2.36267 -2.26882,-4.66264 -6.1965,-6.28158 -4.87872,-2.01095 -5.2706,-0.93775 -1.73298,4.74594 1.81281,2.91254 2.92948,6.06697 2.92948,8.27533 0,6.3736 6.84405,12.39441 14.17807,12.47264 1.82706,0.0195 4.44693,0.67855 5.82193,1.46457 1.375,0.78602 4.39584,1.44507 6.71298,1.46456 8.66595,0.0729 12.69648,2.73727 30.15502,19.93402 9.63234,9.48789 17.45111,16.38473 19,16.75966 1.4476,0.35042 7.91264,5.74566 14.36676,11.98944 5.48651,7.01628 14.09608,11.38777 20.26524,15.95565 3.3,2.45812 7.91216,5.37387 10.24924,6.47945 5.07589,2.40119 13.25076,10.40009 13.25076,12.96552 0,1.18708 -3.05761,3.8435 -8.75,7.60192 -4.8125,3.17747 -12.65279,9.61854 -17.42288,14.3135 -4.77008,4.69495 -12.08548,11.46128 -16.25644,15.03628 -17.73082,12.40706 -45.80033,54.90311 -58.01181,48.4682 -2.46097,-1.84844 -5.62046,-1.02489 -8.10887,-2.37678 -0.5225,-0.49972 -4.55,-2.09692 -8.95,-3.54934 -9.49433,-5.30628 -17.51928,-5.75001 -27.62607,-7.17811 -10.10679,-1.4281 -6.98153,-1.25388 -5.93094,4.39609 1.15397,6.20593 0.16063,27.18298 -1.45565,30.73994 -0.74976,1.65 -2.3067,5.08674 -3.45987,7.6372 -3.64081,8.05237 -10.89361,15.1619 -19.69354,18.8628 -8.79993,3.7009 -27.78979,3.56247 -37.4275,-0.9448 -9.6377,-4.50727 -19.321,-12.1375 -22.52278,-17.99408 -3.20178,-5.85658 -6.0459,-18.75353 -5.30108,-27.33117 2.17888,-21.19107 2.41718,-20.2481 -5.08257,-20.11198 -4.98888,0.0905 -8.09091,0.84611 -13.34322,3.25 -13.54012,3.88009 -27.86806,8.49672 -38.14515,13.13203 -10.97371,4.91928 -10.66814,10.17597 -13.26308,16 -4.36637,18.43954 9.58309,25.98 24.21308,29.16302 2.7289,0.55248 6.19405,1.64181 7.70034,2.42074 19.71647,7.46637 43.36248,6.35326 63.93948,9.32609 20.57701,2.97283 64.03958,2.59656 72.1835,-0.24203 z m -35.26759,-11.66782 c 9.46517,-2.59512 11.40953,-7.26694 16.66584,-15.5 8.04533,-12.60155 4.29894,-40.82513 1.0668,-45.75852 -1.47502,-5.65688 -3.87817,-9.5331 -5.63725,-14.84599 -1.6698,-5.13627 -7.22141,-11.19978 -12.27794,-13.41005 -2.38414,-1.04214 -5.408,-2.7027 -6.71967,-3.69012 -7.76861,-5.8482 -27.09756,-0.14548 -36.61514,10.80274 -9.79269,11.26469 -12.8104,28.16155 -14.43818,42.37338 -1.62779,14.21182 4.4523,25.21393 13.23782,31.33503 13.00179,11.46555 28.86297,13.07391 44.71772,8.69353 z"
         style="fill:#000000;fill-opacity:1" />
      <path
         sodipodi:nodetypes="cc"
         inkscape:connector-curvature="0"
         id="path2995"
         d="M 578.10311,478.65588 424.28571,649.50504"
         style="fill:none;stroke:#000000;stroke-width:1;stroke-linecap:butt;stroke-linejoin:miter;stroke-miterlimit:4;stroke-opacity:1;stroke-dasharray:1, 1;stroke-dashoffset:0" />
      <path
         inkscape:connector-curvature="0"
         id="path3767"
         d="M 527.29963,535.16408 392.85714,435.21932"
         style="fill:none;stroke:#000000;stroke-width:2;stroke-linecap:round;stroke-linejoin:miter;stroke-miterlimit:4;stroke-opacity:1;stroke-dasharray:none;stroke-dashoffset:0" />
      <path
         inkscape:connector-curvature="0"
         id="path3769"
         d="m 424.28571,535.16408 0,114.34096"
         style="fill:none;stroke:#000000;stroke-width:1px;stroke-linecap:round;stroke-linejoin:miter;stroke-opacity:1;marker-start:url(#TriangleInL);marker-end:none" />
      <path
         sodipodi:nodetypes="cc"
         inkscape:connector-curvature="0"
         id="path3771"
         d="m 527.29963,649.50504 -103.03556,0"
         style="fill:none;stroke:#000000;stroke-width:1px;stroke-linecap:round;stroke-linejoin:miter;stroke-opacity:1;marker-start:url(#TriangleInL);marker-end:none" />
      <path
         inkscape:connector-curvature="0"
         id="path3773"
         d="M 424.28571,649.50504 527.29963,535.16408"
         style="fill:none;stroke:#000000;stroke-width:2;stroke-linecap:round;stroke-linejoin:miter;stroke-miterlimit:4;stroke-opacity:1;stroke-dasharray:none" />
      <text
         sodipodi:linespacing="125%"
         id="text5339"
         y="664.46362"
         x="409.05087"
         style="font-size:16px;font-style:normal;font-weight:normal;line-height:125%;letter-spacing:0px;word-spacing:0px;fill:#000000;fill-opacity:1;stroke:none;font-family:Sans"
         xml:space="preserve"><tspan
           y="664.46362"
           x="409.05087"
           id="tspan5341"
           sodipodi:role="line">0</tspan></text>
      <path
         sodipodi:open="true"
         sodipodi:end="6.264367"
         sodipodi:start="5.4460129"
         d="m 439.29541,632.85471 c 4.60642,4.15252 7.28671,10.02782 7.40341,16.22853"
         sodipodi:ry="22.417082"
         sodipodi:rx="22.417082"
         sodipodi:cy="649.50507"
         sodipodi:cx="424.28571"
         id="path5346"
         style="fill:none;stroke:#000000;stroke-width:1.10000002;stroke-linecap:round;stroke-miterlimit:4;stroke-opacity:1;stroke-dasharray:none;stroke-dashoffset:0"
         sodipodi:type="arc" />
      <path
         sodipodi:open="true"
         sodipodi:end="5.4192901"
         sodipodi:start="3.7873506"
         d="m 516.19317,526.79499 c 4.62211,-6.13392 13.3416,-7.35949 19.47552,-2.73738 0.22638,0.17058 0.44749,0.34805 0.66303,0.53215"
         sodipodi:ry="13.906642"
         sodipodi:rx="13.906642"
         sodipodi:cy="535.16406"
         sodipodi:cx="527.29962"
         id="path5350"
         style="fill:none;stroke:#000000;stroke-width:1;stroke-linecap:round;stroke-miterlimit:4;stroke-opacity:1;stroke-dasharray:none;stroke-dashoffset:0"
         sodipodi:type="arc" />
    </g>
  </g>
</svg>
