<?xml version="1.0" encoding="UTF-8" standalone="no"?>
<!-- Created with Inkscape (http://www.inkscape.org/) -->

<svg
   xmlns:dc="http://purl.org/dc/elements/1.1/"
   xmlns:cc="http://creativecommons.org/ns#"
   xmlns:rdf="http://www.w3.org/1999/02/22-rdf-syntax-ns#"
   xmlns:svg="http://www.w3.org/2000/svg"
   xmlns="http://www.w3.org/2000/svg"
   xmlns:sodipodi="http://sodipodi.sourceforge.net/DTD/sodipodi-0.dtd"
   xmlns:inkscape="http://www.inkscape.org/namespaces/inkscape"
   width="535.93304"
   height="476.64142"
   id="svg6389"
   version="1.1"
   inkscape:version="0.47 r22583"
   sodipodi:docname="ctrl2.svg">
  <defs
     id="defs6391">
    <marker
       inkscape:stockid="TriangleOutL"
       orient="auto"
       refY="0"
       refX="0"
       id="TriangleOutL"
       style="overflow:visible">
      <path
         id="path4317"
         d="m 5.77,0 -8.65,5 0,-10 8.65,5 z"
         style="fill-rule:evenodd;stroke:#000000;stroke-width:1pt;marker-start:none"
         transform="scale(0.8,0.8)"
         inkscape:connector-curvature="0" />
    </marker>
    <marker
       inkscape:stockid="Arrow2Lend"
       orient="auto"
       refY="0"
       refX="0"
       id="Arrow2Lend"
       style="overflow:visible">
      <path
         id="path4195"
         style="font-size:12px;fill-rule:evenodd;stroke-width:0.625;stroke-linejoin:round"
         d="M 8.7185878,4.0337352 -2.2072895,0.01601326 8.7185884,-4.0017078 c -1.7454984,2.3720609 -1.7354408,5.6174519 -6e-7,8.035443 z"
         transform="matrix(-1.1,0,0,-1.1,-1.1,0)"
         inkscape:connector-curvature="0" />
    </marker>
    <marker
       inkscape:stockid="Arrow2Lstart"
       orient="auto"
       refY="0"
       refX="0"
       id="Arrow2Lstart"
       style="overflow:visible">
      <path
         id="path4192"
         style="font-size:12px;fill-rule:evenodd;stroke-width:0.625;stroke-linejoin:round"
         d="M 8.7185878,4.0337352 -2.2072895,0.01601326 8.7185884,-4.0017078 c -1.7454984,2.3720609 -1.7354408,5.6174519 -6e-7,8.035443 z"
         transform="matrix(1.1,0,0,1.1,1.1,0)"
         inkscape:connector-curvature="0" />
    </marker>
    <inkscape:perspective
       sodipodi:type="inkscape:persp3d"
       inkscape:vp_x="0 : 49.994499 : 1"
       inkscape:vp_y="0 : 1000 : 0"
       inkscape:vp_z="100 : 49.994499 : 1"
       inkscape:persp3d-origin="50 : 33.329666 : 1"
       id="perspective2890" />
    <marker
       style="overflow:visible"
       id="Arrow1Lstart"
       refX="0"
       refY="0"
       orient="auto"
       inkscape:stockid="Arrow1Lstart">
      <path
         transform="matrix(0.8,0,0,0.8,10,0)"
         style="fill-rule:evenodd;stroke:#000000;stroke-width:1pt;marker-start:none"
         d="M 0,0 5,-5 -12.5,0 5,5 0,0 z"
         id="path3958"
         inkscape:connector-curvature="0" />
    </marker>
    <marker
       style="overflow:visible"
       id="Arrow2Lstart-6"
       refX="0"
       refY="0"
       orient="auto"
       inkscape:stockid="Arrow2Lstart">
      <path
         transform="matrix(1.1,0,0,1.1,1.1,0)"
         d="M 8.7185878,4.0337352 -2.2072895,0.01601326 8.7185884,-4.0017078 c -1.7454984,2.3720609 -1.7354408,5.6174519 -6e-7,8.035443 z"
         style="font-size:12px;fill-rule:evenodd;stroke-width:0.625;stroke-linejoin:round"
         id="path3976"
         inkscape:connector-curvature="0" />
    </marker>
    <marker
       style="overflow:visible"
       id="TriangleInL"
       refX="0"
       refY="0"
       orient="auto"
       inkscape:stockid="TriangleInL">
      <path
         transform="scale(-0.8,-0.8)"
         style="fill-rule:evenodd;stroke:#000000;stroke-width:1pt;marker-start:none"
         d="m 5.77,0 -8.65,5 0,-10 8.65,5 z"
         id="path4092"
         inkscape:connector-curvature="0" />
    </marker>
    <marker
       style="overflow:visible"
       id="TriangleOutL-3"
       refX="0"
       refY="0"
       orient="auto"
       inkscape:stockid="TriangleOutL">
      <path
         transform="scale(0.8,0.8)"
         style="fill-rule:evenodd;stroke:#000000;stroke-width:1pt;marker-start:none"
         d="m 5.77,0 -8.65,5 0,-10 8.65,5 z"
         id="path4101"
         inkscape:connector-curvature="0" />
    </marker>
    <inkscape:perspective
       id="perspective32"
       inkscape:persp3d-origin="372.04724 : 350.78739 : 1"
       inkscape:vp_z="744.09448 : 526.18109 : 1"
       inkscape:vp_y="0 : 1000 : 0"
       inkscape:vp_x="0 : 526.18109 : 1"
       sodipodi:type="inkscape:persp3d" />
    <marker
       style="overflow:visible"
       id="Arrow1Lend"
       refX="0"
       refY="0"
       orient="auto"
       inkscape:stockid="Arrow1Lend">
      <path
         transform="matrix(-0.8,0,0,-0.8,-10,0)"
         style="fill-rule:evenodd;stroke:#000000;stroke-width:1pt;marker-start:none"
         d="M 0,0 5,-5 -12.5,0 5,5 0,0 z"
         id="path4177"
         inkscape:connector-curvature="0" />
    </marker>
    <marker
       style="overflow:visible"
       id="Arrow2Lend-8"
       refX="0"
       refY="0"
       orient="auto"
       inkscape:stockid="Arrow2Lend">
      <path
         transform="matrix(-1.1,0,0,-1.1,-1.1,0)"
         d="M 8.7185878,4.0337352 -2.2072895,0.01601326 8.7185884,-4.0017078 c -1.7454984,2.3720609 -1.7354408,5.6174519 -6e-7,8.035443 z"
         style="font-size:12px;fill-rule:evenodd;stroke-width:0.625;stroke-linejoin:round"
         id="path4195-2"
         inkscape:connector-curvature="0" />
    </marker>
    <marker
       style="overflow:visible"
       id="TriangleOutM"
       refX="0"
       refY="0"
       orient="auto"
       inkscape:stockid="TriangleOutM">
      <path
         transform="scale(0.4,0.4)"
         style="fill-rule:evenodd;stroke:#000000;stroke-width:1pt;marker-start:none"
         d="m 5.77,0 -8.65,5 0,-10 8.65,5 z"
         id="path4320"
         inkscape:connector-curvature="0" />
    </marker>
    <marker
       style="overflow:visible"
       id="Arrow2Mend"
       refX="0"
       refY="0"
       orient="auto"
       inkscape:stockid="Arrow2Mend">
      <path
         transform="scale(-0.6,-0.6)"
         d="M 8.7185878,4.0337352 -2.2072895,0.01601326 8.7185884,-4.0017078 c -1.7454984,2.3720609 -1.7354408,5.6174519 -6e-7,8.035443 z"
         style="font-size:12px;fill-rule:evenodd;stroke-width:0.625;stroke-linejoin:round"
         id="path4201"
         inkscape:connector-curvature="0" />
    </marker>
  </defs>
  <sodipodi:namedview
     id="base"
     pagecolor="#ffffff"
     bordercolor="#666666"
     borderopacity="1.0"
     inkscape:pageopacity="0.0"
     inkscape:pageshadow="2"
     inkscape:zoom="0.84852814"
     inkscape:cx="117.85562"
     inkscape:cy="239.34972"
     inkscape:current-layer="g9730"
     inkscape:document-units="px"
     showgrid="false"
     showguides="false"
     inkscape:guide-bbox="true"
     inkscape:window-width="1024"
     inkscape:window-height="693"
     inkscape:window-x="0"
     inkscape:window-y="25"
     inkscape:window-maximized="1"
     units="cm"
     fit-margin-top="0.5"
     fit-margin-right="0.5"
     fit-margin-bottom="0.5"
     fit-margin-left="0.5">
    <sodipodi:guide
       orientation="0,1"
       position="-240.55875,169.33564"
       id="guide7857" />
    <sodipodi:guide
       orientation="0,1"
       position="-219.34555,102.16048"
       id="guide7859" />
    <sodipodi:guide
       orientation="1,0"
       position="-115.63655,66.805153"
       id="guide7861" />
    <sodipodi:guide
       orientation="1,0"
       position="-60.246522,129.26625"
       id="guide7863" />
    <sodipodi:guide
       orientation="1,0"
       position="-159.24147,169.33564"
       id="guide7877" />
    <sodipodi:guide
       orientation="0,1"
       position="187.24085,-59.295558"
       id="guide7879" />
    <sodipodi:guide
       orientation="1,0"
       position="-87.352282,26.735762"
       id="guide8284" />
    <sodipodi:guide
       orientation="0,1"
       position="216.70363,26.735762"
       id="guide8286" />
    <sodipodi:guide
       orientation="1,0"
       position="435.90673,-106.43602"
       id="guide8288" />
  </sodipodi:namedview>
  <metadata
     id="metadata6394">
    <rdf:RDF>
      <cc:Work
         rdf:about="">
        <dc:format>image/svg+xml</dc:format>
        <dc:type
           rdf:resource="http://purl.org/dc/dcmitype/StillImage" />
        <dc:title />
      </cc:Work>
    </rdf:RDF>
  </metadata>
  <g
     id="layer1"
     inkscape:label="Layer 1"
     inkscape:groupmode="layer"
     transform="translate(-211.09597,95.036184)">
    <g
       id="g3051"
       transform="translate(4.9902344e-6,-5.8925612)">
      <g
         transform="matrix(0.67317707,0,0,0.67317707,227.70974,119.63169)"
         id="g9730">
        <path
           style="fill:none;stroke:#000000;stroke-width:1px;stroke-linecap:butt;stroke-linejoin:miter;stroke-opacity:1"
           d="m 95.459415,279.44493 55.390035,0"
           id="path7855"
           inkscape:connector-curvature="0"
           sodipodi:nodetypes="cc" />
        <path
           style="fill:none;stroke:#000000;stroke-width:1px;stroke-linecap:butt;stroke-linejoin:miter;stroke-opacity:1"
           d="m 95.459415,212.26978 55.390035,0"
           id="path7853"
           inkscape:connector-curvature="0"
           sodipodi:nodetypes="cc" />
        <path
           style="fill:none;stroke:#000000;stroke-width:1px;stroke-linecap:butt;stroke-linejoin:miter;stroke-opacity:1"
           d="m 647.0027,279.44493 0,75.42472 -523.25901,0 0,-75.42472"
           id="path8292"
           inkscape:connector-curvature="0" />
        <g
           id="g8273">
          <rect
             ry="27.3465"
             y="184.92328"
             x="144.95689"
             height="120.68966"
             width="160.27754"
             id="rect6397"
             style="fill:#c4c4c4;fill-opacity:1;stroke:#494949;stroke-width:2.86866856;stroke-miterlimit:4;stroke-opacity:1;stroke-dasharray:none;stroke-dashoffset:0" />
          <text
             sodipodi:linespacing="125%"
             id="text6401"
             y="253.9102"
             x="166.41647"
             style="font-size:40px;font-style:normal;font-weight:normal;line-height:125%;letter-spacing:0px;word-spacing:0px;fill:#000000;fill-opacity:1;stroke:none;font-family:Sans"
             xml:space="preserve"><tspan
               style="font-size:22px"
               y="253.9102"
               x="166.41647"
               id="tspan6403"
               sodipodi:role="line">Contrôleur</tspan></text>
        </g>
        <text
           xml:space="preserve"
           style="font-size:40px;font-style:normal;font-weight:normal;text-align:center;line-height:125%;letter-spacing:0px;word-spacing:0px;text-anchor:middle;fill:#000000;fill-opacity:1;stroke:none;font-family:Sans"
           x="436.4368"
           y="214.6268"
           id="text6405"
           sodipodi:linespacing="125%"><tspan
             sodipodi:role="line"
             id="tspan6407"
             x="436.4368"
             y="214.6268"
             style="font-size:18px;text-align:center;text-anchor:middle">Commande de contrôle</tspan><tspan
             sodipodi:role="line"
             x="436.4368"
             y="237.1268"
             style="font-size:18px;text-align:center;text-anchor:middle"
             id="tspan6417">(moteurs, muscles, ...)</tspan></text>
        <text
           xml:space="preserve"
           style="font-size:18px;font-style:normal;font-weight:normal;text-align:center;line-height:125%;letter-spacing:0px;word-spacing:0px;text-anchor:middle;fill:#000000;fill-opacity:1;stroke:none;font-family:Sans"
           x="51.854496"
           y="212.26978"
           id="text7865"
           sodipodi:linespacing="125%"><tspan
             sodipodi:role="line"
             id="tspan7867"
             x="51.854496"
             y="212.26978">État</tspan><tspan
             sodipodi:role="line"
             x="51.854496"
             y="234.76978"
             id="tspan7869">désiré</tspan></text>
        <text
           xml:space="preserve"
           style="font-size:18px;font-style:normal;font-weight:normal;text-align:center;line-height:125%;letter-spacing:0px;word-spacing:0px;text-anchor:middle;fill:#000000;fill-opacity:1;stroke:none;font-family:Sans"
           x="51.854496"
           y="279.44492"
           id="text7871"
           sodipodi:linespacing="125%"><tspan
             sodipodi:role="line"
             id="tspan7873"
             x="51.854496"
             y="279.44492">État</tspan><tspan
             sodipodi:role="line"
             x="51.854496"
             y="301.94492"
             id="tspan7875">courant</tspan></text>
        <g
           id="g8278"
           transform="translate(0,2.1162872)">
          <rect
             ry="27.3465"
             y="182.80699"
             x="566.86395"
             height="120.68966"
             width="160.27754"
             id="rect6397-9"
             style="fill:#c4c4c4;fill-opacity:1;stroke:#494949;stroke-width:2.86866856;stroke-miterlimit:4;stroke-opacity:1;stroke-dasharray:none;stroke-dashoffset:0" />
          <text
             sodipodi:linespacing="125%"
             id="text6409"
             y="235.91159"
             x="646.58917"
             style="font-size:40px;font-style:normal;font-weight:normal;text-align:center;line-height:125%;letter-spacing:0px;word-spacing:0px;text-anchor:middle;fill:#000000;fill-opacity:1;stroke:none;font-family:Sans"
             xml:space="preserve"><tspan
               style="font-size:22px"
               y="235.91159"
               x="646.58917"
               id="tspan6411"
               sodipodi:role="line">Système</tspan><tspan
               style="font-size:22px"
               id="tspan6413"
               y="263.41159"
               x="646.58917"
               sodipodi:role="line">mécanique</tspan></text>
        </g>
        <path
           style="fill:none;stroke:#000000;stroke-width:1px;stroke-linecap:butt;stroke-linejoin:miter;stroke-opacity:1;marker-mid:none;marker-end:url(#Arrow2Lend)"
           d="m 305.23444,245.26811 261.62951,0"
           id="path7899"
           inkscape:connector-type="polyline"
           inkscape:connector-curvature="0"
           inkscape:connection-start="#rect6397"
           inkscape:connection-start-point="d4"
           inkscape:connection-end="#rect6397-9"
           inkscape:connection-end-point="d4" />
      </g>
      <rect
         ry="24.36648"
         y="233.24092"
         x="229.81117"
         height="135.52879"
         width="498.51028"
         id="rect9754"
         style="fill:none;stroke:#000000;stroke-width:2;stroke-miterlimit:4;stroke-opacity:1;stroke-dasharray:none;stroke-dashoffset:0" />
    </g>
    <g
       id="g9910"
       transform="matrix(0.68845257,0,0,0.68845257,345.84742,26.821759)">
      <path
         inkscape:transform-center-y="-81.646963"
         inkscape:transform-center-x="30.609178"
         style="opacity:0.5;fill:#000000;fill-opacity:1;stroke:none"
         d="m 276.25853,107.61169 c 3.28687,-6.02832 7.07028,-13.564577 10.04586,-19.918671 2.97557,-6.354093 6.86657,-13.487164 8.64666,-15.851271 8.53434,-11.334344 9.55683,-10.378615 -4.67623,-8.559644 -28.39029,1.550539 -58.57458,-2.050653 -84.94828,-6.441423 -17.57507,-3.091664 -21.37705,-2.967385 -27.15148,0.887475 -2.52413,1.685038 -5.88144,3.161768 -7.46072,3.281607 -1.57927,0.119839 -4.09886,1.029519 -5.59911,2.021484 -5.78362,3.824241 -17.97882,2.39322 -21.28979,-2.49816 -1.49466,-2.208097 -4.15559,-4.299621 -7.74157,-6.084942 -8.535,-4.249278 -9.51654,-6.54994 -6.13272,-14.374863 1.87385,-4.333212 2.4504,-7.069309 1.72498,-8.186177 -4.90257,-7.547961 21.4413,-26.220712 29.12698,-20.645445 0.83814,0.607997 3.49911,1.748529 5.91326,2.534496 2.41417,0.785999 4.6087,1.753072 4.87675,2.149066 0.26805,0.396014 3.10265,1.7739 6.29909,3.061976 3.19645,1.288076 6.11087,2.783902 6.4765,3.324058 22.02795,11.813476 60.22324,-0.07773 86.50487,2.027102 2.12369,0.193875 6.60791,-0.0051 9.9649,-0.442214 3.357,-0.437081 8.35233,-0.485362 11.10074,-0.107297 2.74843,0.378057 5.3631,0.439643 5.81041,0.136869 1.85564,-1.256086 13.53382,-1.160003 20.06933,0.165114 3.86067,0.78277 9.59805,1.632357 12.74974,1.887958 13.01627,1.055657 16.71131,10.268898 9.92447,37.072273 -6.78684,26.80338 -25.78933,59.772089 -31.91274,87.061059 -3.89013,6.29917 -8.86444,32.1372 -13.30744,41.61727 -4.44299,9.48006 -26.40455,21.95762 -37.42121,11.70704 -11.01666,-10.25058 -15.08891,-18.7384 -11.06462,-27.29534 9.65975,-20.53979 26.1845,-62.50109 29.47137,-68.5294 z m -5.50404,94.85698 c 12.4731,3.3e-4 24.80793,-25.17029 26.34114,-33.67538 2.20029,-15.22488 8.16674,-22.2709 15.55238,-44.2957 7.38563,-22.0248 27.67659,-55.988172 27.17421,-82.282903 -1.03405,-5.547297 -20.05493,-13.688595 -32.07074,-13.032202 -2.44908,0.133794 -6.72937,0.09128 -9.51173,-0.09446 -28.35591,-0.165449 -55.59961,1.091992 -80.74189,3.481891 -18.60629,1.895053 -24.34207,1.242528 -33.10067,-3.765634 C 158.09,13.761818 151.71318,12.946307 141.73715,23.348628 c -4.14676,4.323964 -4.41316,5.633913 -2.13778,10.511501 1.7038,3.652306 8.41458,7.212995 7.81693,4.147612 -0.7693,-3.945803 0.0579,-5.520741 4.59531,-8.749518 6.16482,-4.386829 9.71175,-3.815168 14.99918,2.417427 4.4576,5.254464 4.27693,6.63163 -1.49276,11.378233 -2.24478,1.846741 -4.71578,4.521778 -5.49112,5.944539 -1.10704,2.031411 -1.81803,2.550229 -3.31129,2.416322 -2.5713,-0.230624 -9.33169,-3.464132 -10.33197,-4.941856 -1.3244,-1.956573 -4.4925,-2.589426 -8.65259,-1.728433 -5.16739,1.069476 -4.89033,2.177882 1.22524,4.901629 3.13386,1.395761 5.82682,3.382049 7.06471,5.210831 3.57275,5.278096 12.61542,6.427593 18.7327,2.381266 1.52396,-1.008007 4.06295,-1.930817 5.64222,-2.050656 1.57927,-0.119849 4.45032,-1.267416 6.38011,-2.550152 7.2173,-4.797361 12.04858,-4.850273 36.146,-0.395752 13.29519,2.457658 23.6361,3.78623 25.12894,3.228475 1.39521,-0.521262 9.77334,0.322637 18.61809,1.875353 8.47647,2.734838 18.05668,1.528836 25.72602,1.853434 4.11069,0.185788 9.56454,0.01502 12.11965,-0.37949 5.54944,-0.856827 13.96836,-2.541564 14.83637,-0.127443 0.40166,1.117069 -1.57681,4.651356 -5.66179,10.114142 -3.45355,4.61838 -8.65207,13.332332 -11.55227,19.364354 -2.90018,6.032006 -7.4947,14.874424 -10.21005,19.649824 -12.48709,17.67456 -20.38051,34.92719 -28.55922,57.79977 -8.17871,22.87258 4.9136,36.8483 17.38671,36.84863 z"
         id="path3066-7"
         inkscape:connector-curvature="0"
         sodipodi:nodetypes="zssccsscssssssssccssssszczzszzczcsccssssssssssssssssssccssssczz" />
      <path
         inkscape:transform-center-y="-85.810239"
         inkscape:transform-center-x="18.340993"
         style="opacity:0.5;fill:#000000;fill-opacity:1;stroke:none"
         d="m 279.89078,100.86809 c 3.77511,-5.735212 8.17001,-12.932032 11.6619,-19.017696 3.49188,-6.085668 7.96059,-12.871772 9.93046,-15.080239 9.44423,-10.588138 10.384,-9.550966 -3.95083,-8.917697 -28.42114,-0.807413 -58.2032,-6.897481 -84.12234,-13.458649 -17.25842,-4.537417 -21.05763,-4.728624 -27.13164,-1.36553 -2.65508,1.470066 -6.12322,2.663509 -7.70699,2.652066 -1.58377,-0.01144 -4.17008,0.686319 -5.74736,1.550552 -6.08064,3.331819 -18.11531,0.895144 -21.00957,-4.253782 -1.30653,-2.32436 -3.78499,-4.629193 -7.21069,-6.705522 -8.15353,-4.94193 -8.94105,-7.316016 -4.92044,-14.833621 2.22649,-4.163028 3.02778,-6.841938 2.39741,-8.015078 -4.26023,-7.9282602 23.54038,-24.353761 30.73762,-18.1607823 0.78488,0.6753597 3.34218,2.0324743 5.6829,3.015791 2.34073,0.98334943 4.44757,2.12895003 4.68189,2.54579443 0.23431,0.41686417 2.94498,2.02490477 6.02369,3.57342967 3.07871,1.548524 5.85916,3.280714 6.17877,3.84931 20.97324,13.5982292 60.02255,4.9130372 86.03937,9.1885002 2.10032,0.369191 6.58561,0.542471 9.96727,0.385065 3.38168,-0.157394 8.36383,0.208438 11.07145,0.812953 2.70765,0.60451 5.30822,0.882553 5.77909,0.617887 1.95334,-1.097995 13.5834,-0.03451 19.98661,1.827625 3.78254,1.099999 9.42978,2.422101 12.54945,2.937993 12.88402,2.130641 15.80289,11.618391 6.81828,37.767177 -8.9846,26.148786 -30.65374,57.429433 -39.01744,84.117123 -4.39874,5.95514 -11.49706,31.2921 -16.71036,40.37138 -5.21328,9.07928 -28.13328,19.69405 -38.26262,8.56581 -10.12934,-11.12823 -5.82391,-12.85324 -1.10437,-21.04728 11.32859,-19.66867 23.61337,-67.18737 27.38849,-72.92258 z m -13.3456,94.07464 c 12.43018,1.03393 26.80839,-23.02798 29.04112,-31.37676 3.45436,-14.99019 9.98417,-21.51755 19.16953,-42.85458 9.18535,-21.337022 32.22094,-53.502139 33.89925,-79.748063 -0.57081,-5.613907 -18.85163,-15.303401 -30.8805,-15.644975 -2.45175,-0.06961 -6.7138,-0.466675 -9.47119,-0.882344 -28.24468,-2.51464 -55.49887,-3.519118 -80.75272,-3.220896 -18.69934,0.346694 -24.36132,-0.778891 -32.67478,-6.495623 -24.9702,-17.1707183 -31.25751,-18.5118504 -42.06122,-8.9719862 -4.49082,3.965464 -4.86485,5.2488332 -3.00149,10.2981982 1.39529,3.780932 7.78792,7.885475 7.44635,4.78111 -0.43968,-3.995982 0.51516,-5.496958 5.30454,-8.338628 6.50715,-3.8608832 9.9945,-2.9972662 14.74727,3.652044 4.00686,5.605779 3.71268,6.963236 -2.4305,11.2154 -2.39009,1.654372 -5.07427,4.115444 -5.96483,5.469063 -1.27157,1.932687 -2.02311,2.390804 -3.50014,2.133615 -2.54335,-0.442905 -9.01253,-4.225503 -9.88692,-5.781035 -1.15771,-2.059591 -4.26247,-2.952798 -8.4796,-2.4395 -5.23825,0.637594 -5.05399,1.765147 0.81484,4.986303 3.00742,1.650653 5.52653,3.853266 6.60861,5.778338 3.12308,5.555994 12.0394,7.450874 18.47095,3.925383 1.60224,-0.878247 4.20897,-1.587485 5.79274,-1.576042 1.58377,0.01143 4.54004,-0.894274 6.56949,-2.012683 7.59002,-4.182787 12.40907,-3.835165 36.05448,2.600908 13.0458,3.550933 23.24105,5.731851 24.77497,5.299722 1.43361,-0.403853 9.713,1.131412 18.39866,3.411722 8.22069,3.427849 17.86788,3.019874 25.48395,3.978889 4.08115,0.525788 9.5304,0.807552 12.10941,0.626129 5.60135,-0.394016 14.13093,-1.375311 14.7959,1.102436 0.30771,1.146511 -1.95682,4.504694 -6.48043,9.610173 -3.82439,4.316311 -9.72712,12.569509 -13.1172,18.340461 -3.39006,5.770931 -8.70153,14.202209 -11.80325,18.736181 -13.90877,16.579 -20.8477,37.83224 -30.89365,59.94841 -10.04595,22.11618 -0.51382,32.41469 11.91636,33.44863 z"
         id="path3066-7-9"
         inkscape:connector-curvature="0"
         sodipodi:nodetypes="zssccsscssssssssccssssszczzszzczcsccssssssssssssssssssccssssczz" />
      <g
         id="g9885">
        <path
           sodipodi:type="arc"
           style="fill:#ffffff;fill-opacity:1;stroke:none"
           id="path9830"
           sodipodi:cx="246.60349"
           sodipodi:cy="355.08582"
           sodipodi:rx="25.043365"
           sodipodi:ry="25.337994"
           d="m 271.64685,355.08582 c 0,13.99378 -11.2123,25.33799 -25.04336,25.33799 -13.83107,0 -25.04337,-11.34421 -25.04337,-25.33799 0,-13.99379 11.2123,-25.338 25.04337,-25.338 13.83106,0 25.04336,11.34421 25.04336,25.338 z"
           transform="translate(21.803933,-168.39609)" />
        <path
           sodipodi:type="arc"
           style="fill:#ffffff;fill-opacity:1;stroke:none"
           id="path9830-1"
           sodipodi:cx="246.60349"
           sodipodi:cy="355.08582"
           sodipodi:rx="25.043365"
           sodipodi:ry="25.337994"
           d="m 271.64685,355.08582 c 0,13.99378 -11.2123,25.33799 -25.04336,25.33799 -13.83107,0 -25.04337,-11.34421 -25.04337,-25.33799 0,-13.99379 11.2123,-25.338 25.04337,-25.338 13.83106,0 25.04336,11.34421 25.04336,25.338 z"
           transform="matrix(0.85882353,0,0,0.93023256,66.341266,-158.94331)" />
        <path
           sodipodi:type="arc"
           style="fill:#ffffff;fill-opacity:1;stroke:none"
           id="path9830-2"
           sodipodi:cx="246.60349"
           sodipodi:cy="355.08582"
           sodipodi:rx="25.043365"
           sodipodi:ry="25.337994"
           d="m 271.64685,355.08582 c 0,13.99378 -11.2123,25.33799 -25.04336,25.33799 -13.83107,0 -25.04337,-11.34421 -25.04337,-25.33799 0,-13.99379 11.2123,-25.338 25.04337,-25.338 13.83106,0 25.04336,11.34421 25.04336,25.338 z"
           transform="translate(11.491964,-166.03907)" />
        <path
           sodipodi:type="arc"
           style="fill:#ffffff;fill-opacity:1;stroke:none"
           id="path9830-1-5"
           sodipodi:cx="246.60349"
           sodipodi:cy="355.08582"
           sodipodi:rx="25.043365"
           sodipodi:ry="25.337994"
           d="m 271.64685,355.08582 c 0,13.99378 -11.2123,25.33799 -25.04336,25.33799 -13.83107,0 -25.04337,-11.34421 -25.04337,-25.33799 0,-13.99379 11.2123,-25.338 25.04337,-25.338 13.83106,0 25.04336,11.34421 25.04336,25.338 z"
           transform="matrix(0.85882353,0,0,0.93023256,72.233823,-178.978)" />
      </g>
      <g
         inkscape:label="Calque 1"
         id="layer1-2"
         transform="translate(-185.06148,-691.56725)">
        <path
           style="fill:#000000;fill-opacity:1"
           d="m 227.13875,899.35772 c -10.53671,-8.34523 -10.46859,-27.25385 0.13659,-37.91599 4.31464,-4.33782 4.5994,-5.17598 19.07533,-10.97583 14.47593,-5.79985 27.97284,-8.26766 39.64792,-12.9682 10.08154,-2.90756 4.54007,-1.60114 13.47282,-4.41193 0.93283,-0.28364 2.87044,-2.99813 4.30578,-6.03221 3.48456,-7.36575 17.38442,-19.58766 22.27686,-19.58766 1.01699,0 4.86846,-2.025 8.55883,-4.5 7.46072,-5.00365 9.51326,-5.42733 12.15438,-2.50893 1.94754,2.15201 9.77582,7.00893 11.29684,7.00893 5.95207,0 18.57245,14.31445 22.22655,26.28068 1.45662,4.77007 3.5491,6.71932 9.72782,6.71932 6.15493,2.3054 13.41941,2.24366 19.03899,4.62075 5.31471,2.1198 11.21884,3.39902 16.21788,5.34685 20.58439,15.10456 19.5046,-20.72419 32.3654,-49.90504 2.18381,-4.78566 5.9931,-14.07371 8.46512,-20.64012 2.47201,-6.56641 5.79604,-13.98068 7.38673,-16.47616 7.6263,-11.96419 8.72007,-11.09094 -5.32824,-8.16973 -28.1835,3.75545 -58.55651,2.51442 -85.19194,0.18963 -17.76238,-1.71442 -21.54316,-1.29461 -27.00005,2.99798 -2.38533,1.87638 -5.61752,3.60993 -7.18268,3.85232 -1.56515,0.24239 -4.0063,1.34541 -5.42479,2.45113 -5.46844,4.26278 -17.73802,3.78525 -21.41965,-0.8336 -1.66198,-2.08507 -4.47762,-3.96315 -8.19167,-5.46396 -8.83984,-3.57211 -9.99746,-5.7894 -7.23292,-13.85395 1.53092,-4.46591 1.89277,-7.23858 1.08262,-8.2956 -5.47515,-7.1435 19.33551,-27.80995 27.4318,-22.84977 0.88292,0.54092 3.62458,1.47089 6.09258,2.06658 2.46802,0.59572 4.73116,1.38906 5.02922,1.76299 0.29806,0.37395 3.2313,1.52704 6.5183,2.56243 3.287,1.03539 6.309,2.29985 6.71556,2.80991 22.88057,10.06321 60.03451,-4.76466 86.40024,-4.71171 2.13234,0.028 6.58747,-0.5194 9.90026,-1.21644 3.3128,-0.69703 8.28922,-1.13395 11.05871,-0.97094 2.76952,0.163 5.38105,0.0209 5.80344,-0.31577 1.75225,-1.3967 13.40249,-2.20982 20.0213,-1.39738 3.90989,0.47992 9.69599,0.88039 12.85801,0.88992 13.05895,0.0394 17.45985,8.93711 12.7797,36.1874 -4.68015,27.2503 -21.05905,61.59797 -25.03999,89.28075 -3.38807,6.58283 -6.33632,32.72963 -10.02801,42.52674 -3.69168,9.79711 -16.20204,22.31494 -26.39654,26.554 -10.1945,4.23906 -41.13188,8.89504 -61.81827,10.50079 -20.68639,1.60575 -53.8249,2.35163 -78.2971,-0.38594 -24.4722,-2.73757 -63.72405,-4.7583 -89.49373,-20.22224 z m 167.42154,15.776 c 25.32493,-2.10599 50.7855,-2.4893 68.51134,-14.30432 13.65652,-8.33583 19.23815,-32.32805 20.10476,-40.92667 1.00867,-15.34995 6.40863,-22.83896 12.05768,-45.37178 5.64904,-22.53281 23.23508,-57.97241 20.68771,-84.14828 -1.46266,-5.44999 -21.05948,-12.0862 -32.98775,-10.49661 -2.43124,0.324 -6.70186,0.61475 -9.49023,0.64612 -28.28278,2.04199 -55.34597,5.41599 -80.22598,9.75546 -18.40236,3.33743 -24.17153,3.1333 -33.29334,-1.17799 -27.39815,-12.94935 -33.8191,-13.26608 -42.95525,-2.11888 -3.79765,4.63359 -3.96129,5.9603 -1.31319,10.646 1.98289,3.50862 8.95044,6.53621 8.11603,3.52664 -1.07407,-3.87396 -0.37198,-5.5085 3.90039,-9.08063 5.8047,-4.85333 9.38536,-4.55946 15.14183,1.24271 4.85304,4.89159 4.7801,6.27864 -0.60266,11.4599 -2.09424,2.01585 -4.34955,4.87509 -5.0118,6.35388 -0.94558,2.11141 -1.61403,2.68399 -3.11319,2.66671 -2.58145,-0.0298 -9.57299,-2.72734 -10.68525,-4.12273 -1.47266,-1.84756 -4.68041,-2.23192 -8.76087,-1.04976 -5.06848,1.46841 -4.70599,2.55189 1.60302,4.7914 3.23298,1.14762 6.07237,2.91829 7.44884,4.64518 3.9727,4.98402 13.07741,5.42624 18.86121,0.91608 1.44088,-1.12356 3.90035,-2.24118 5.4655,-2.48357 1.56515,-0.2424 4.33818,-1.60994 6.16228,-3.03898 6.82203,-5.34453 11.63454,-5.7733 36.00556,-3.20779 13.44614,1.41544 23.85908,1.93515 25.30398,1.2629 1.35041,-0.62827 9.76881,-0.439 18.70758,0.42062 8.66361,2.06682 18.12089,0.11885 25.79223,-0.15444 4.11268,-0.13471 9.5367,-0.72943 12.05335,-1.32161 5.46592,-1.28614 13.72818,-3.62101 14.78145,-1.28177 0.48738,1.08242 -1.21001,4.75997 -4.85743,10.52412 -3.08363,4.87316 -7.58817,13.96528 -10.0101,20.20473 -2.42192,6.23943 -6.3143,15.41263 -8.64974,20.38488 -11.0736,18.59281 -14.26256,66.07377 -26.47404,59.63886 -2.46097,-1.84844 -5.62046,-1.02489 -8.10887,-2.37678 -0.5225,-0.49972 -4.55,-2.09692 -8.95,-3.54934 -9.49433,-5.30628 -17.51928,-5.75001 -27.62607,-7.17811 -10.10679,-1.4281 -6.98153,-1.25388 -5.93094,4.39609 1.15397,6.20593 0.16063,27.18298 -1.45565,30.73994 -0.74976,1.65 -2.3067,5.08674 -3.45987,7.6372 -3.64081,8.05237 -10.89361,15.1619 -19.69354,18.8628 -8.79993,3.7009 -27.78979,3.56247 -37.4275,-0.9448 -9.6377,-4.50727 -19.321,-12.1375 -22.52278,-17.99408 -3.20178,-5.85658 -6.0459,-18.75353 -5.30108,-27.33117 2.17888,-21.19107 2.41718,-20.2481 -5.08257,-20.11198 -4.98888,0.0905 -8.09091,0.84611 -13.34322,3.25 -13.54012,3.88009 -27.86806,8.49672 -38.14515,13.13203 -10.97371,4.91928 -10.66814,10.17597 -13.26308,16 -4.36637,18.43954 9.58309,25.98 24.21308,29.16302 2.7289,0.55248 6.19405,1.64181 7.70034,2.42074 19.71647,7.46637 43.36248,6.35326 63.93948,9.32609 20.57701,2.97283 64.03958,2.59656 72.1835,-0.24203 z M 359.2927,903.4659 c 9.46517,-2.59512 11.40953,-7.26694 16.66584,-15.5 8.04533,-12.60155 4.29894,-40.82513 1.0668,-45.75852 -1.47502,-5.65688 -3.87817,-9.5331 -5.63725,-14.84599 -1.6698,-5.13627 -7.22141,-11.19978 -12.27794,-13.41005 -2.38414,-1.04214 -5.408,-2.7027 -6.71967,-3.69012 -7.76861,-5.8482 -27.09756,-0.14548 -36.61514,10.80274 -9.79269,11.26469 -12.8104,28.16155 -14.43818,42.37338 -1.62779,14.21182 4.4523,25.21393 13.23782,31.33503 13.00179,11.46555 28.86297,13.07391 44.71772,8.69353 z"
           id="path3066"
           inkscape:connector-curvature="0"
           sodipodi:nodetypes="cszccssssssccccssccsscssssssssccssssszczzzzcccczcsccssssssssssssssssssccsssscccczssszzzcsccccczccsccssszcc" />
        <path
           inkscape:connector-curvature="0"
           style="fill:none;stroke:#000000;stroke-width:3;stroke-linecap:butt;stroke-linejoin:miter;stroke-miterlimit:4;stroke-opacity:1;stroke-dasharray:3, 3;stroke-dashoffset:0;marker-start:none;marker-mid:none;marker-end:url(#Arrow2Mend)"
           d="m 332.5046,738.88794 102.14288,-170"
           id="path3690"
           sodipodi:nodetypes="cc" />
        <polygon
           id="polygon2882"
           points="32.702,67.333 0,67.333 0,32.713 32.569,32.713 32.569,0 67.298,0 67.298,32.713 100,32.713 100,67.333 67.562,67.333 67.562,99.989 32.702,99.989 "
           transform="matrix(0.17871941,-0.17871941,0.17871941,0.17871941,426.93686,552.32589)" />
      </g>
    </g>
  </g>
</svg>
