<?xml version="1.0" encoding="UTF-8" standalone="no"?>
<!-- Created with matplotlib (http://matplotlib.sourceforge.net/) -->

<svg
   xmlns:dc="http://purl.org/dc/elements/1.1/"
   xmlns:cc="http://creativecommons.org/ns#"
   xmlns:rdf="http://www.w3.org/1999/02/22-rdf-syntax-ns#"
   xmlns:svg="http://www.w3.org/2000/svg"
   xmlns="http://www.w3.org/2000/svg"
   xmlns:xlink="http://www.w3.org/1999/xlink"
   xmlns:sodipodi="http://sodipodi.sourceforge.net/DTD/sodipodi-0.dtd"
   xmlns:inkscape="http://www.inkscape.org/namespaces/inkscape"
   width="210.66974"
   height="328.90656"
   viewBox="0 0 168.53579 263.12524"
   version="1.1"
   id="svg1"
   inkscape:version="0.48.1 r9760"
   sodipodi:docname="fitts_legende.svg"
   inkscape:export-filename="/home/gremy/git/qops_tools/lqp_fitts2_sigma4_legende.png"
   inkscape:export-xdpi="90"
   inkscape:export-ydpi="90">
  <metadata
     id="metadata1048">
    <rdf:RDF>
      <cc:Work
         rdf:about="">
        <dc:format>image/svg+xml</dc:format>
        <dc:type
           rdf:resource="http://purl.org/dc/dcmitype/StillImage" />
        <dc:title></dc:title>
      </cc:Work>
    </rdf:RDF>
  </metadata>
  <defs
     id="defs1046">
    <defs
       id="defs77">
      <path
         inkscape:connector-curvature="0"
         d="M 0,-3 -3,3 3,3 0,-3"
         id="m977dbc290ddfbd19b8a677e041c96ea6" />
    </defs>
    <defs
       id="defs47">
      <path
         inkscape:connector-curvature="0"
         d="M 0,3 C 0.795609,3 1.55874,2.683901 2.12132,2.12132 2.683901,1.55874 3,0.795609 3,0 3,-0.795609 2.683901,-1.55874 2.12132,-2.12132 1.55874,-2.683901 0.795609,-3 0,-3 -0.795609,-3 -1.55874,-2.683901 -2.12132,-2.12132 -2.683901,-1.55874 -3,-0.795609 -3,0 -3,0.795609 -2.683901,1.55874 -2.12132,2.12132 -1.55874,2.683901 -0.795609,3 0,3 z"
         id="m87f81da4bcf58d853202912065521dc1" />
    </defs>
    <defs
       id="defs12">
      <path
         inkscape:connector-curvature="0"
         d="m -3,3 6,0 0,-6 -6,0 0,6"
         id="mb3b06f9cb25f9b65d41eafb48422fc18" />
    </defs>
    <defs
       id="defs15">
      <clipPath
         id="p7925595e59115e0f26db4807d9e1425e">
        <rect
           id="rect18"
           height="474.48001"
           width="714.23999"
           y="59.310001"
           x="115.2" />
      </clipPath>
    </defs>
  </defs>
  <sodipodi:namedview
     pagecolor="#ffffff"
     bordercolor="#666666"
     borderopacity="1"
     objecttolerance="10"
     gridtolerance="10"
     guidetolerance="10"
     inkscape:pageopacity="0"
     inkscape:pageshadow="2"
     inkscape:window-width="1024"
     inkscape:window-height="693"
     id="namedview1044"
     showgrid="false"
     showguides="true"
     inkscape:guide-bbox="true"
     inkscape:zoom="1.0913054"
     inkscape:cx="160.99089"
     inkscape:cy="167.26569"
     inkscape:window-x="0"
     inkscape:window-y="25"
     inkscape:window-maximized="1"
     inkscape:current-layer="svg1"
     fit-margin-top="0"
     fit-margin-left="0"
     fit-margin-right="0"
     fit-margin-bottom="0" />
  <g
     id="g4381"
     transform="translate(-627.85455,-79.445498)">
    <path
       inkscape:connector-curvature="0"
       id="path624"
       d="m 628.40402,342.02126 167.43685,0 0,-262.026289 -167.43685,0 0,262.026289 z"
       style="fill:#ffffff;stroke:#000000;stroke-width:1.09894586;stroke-linecap:square;stroke-linejoin:round" />
    <g
       transform="translate(-13.816934,-164.62987)"
       id="g7021">
      <path
         style="fill:#000000"
         inkscape:connector-curvature="0"
         d="m 720.0488,270.28762 q 0,-0.0833 0.0135,-0.1125 l 1.42875,-5.751 q 0.2025,-0.774 0.6975,-1.51425 0.49725,-0.7425 1.19925,-1.21725 0.70425,-0.47475 1.485,-0.47475 0.6255,0 1.0935,0.32625 0.468,0.32625 0.702,0.85725 0.23625,0.531 0.23625,1.1655 0,0.69525 -0.28575,1.44 -0.2835,0.74475 -0.7875,1.3635 -0.50175,0.61875 -1.1565,0.99675 -0.6525,0.37575 -1.37025,0.37575 -0.42075,0 -0.79425,-0.24975 -0.3735,-0.24975 -0.58275,-0.657 l -0.85275,3.39525 q -0.0405,0.20475 -0.20925,0.33075 -0.16875,0.126 -0.38025,0.126 -0.1755,0 -0.306,-0.11025 -0.1305,-0.108 -0.1305,-0.29025 m 3.285,-2.925 q 0.765,0 1.32975,-0.783 0.567,-0.78525 0.86625,-1.84275 0.29925,-1.0575 0.29925,-1.78875 0,-0.549 -0.24075,-0.954 -0.2385,-0.405 -0.74475,-0.405 -0.6255,0 -1.10475,0.47475 -0.477,0.47475 -0.765,1.116 -0.288,0.639 -0.47025,1.33425 l -0.39375,1.611 q 0.09,0.51975 0.4095,0.87975 0.32175,0.35775 0.8145,0.35775"
         id="use1022" />
      <path
         style="fill:#000000"
         inkscape:connector-curvature="0"
         d="m 730.69858,265.66837 q -0.11925,0 -0.198,-0.09 -0.0765,-0.0922 -0.0765,-0.198 0,-0.11925 0.0765,-0.2025 0.0788,-0.0855 0.198,-0.0855 l 9.04275,0 q 0.10575,0 0.18225,0.0855 0.0788,0.0833 0.0788,0.2025 0,0.10575 -0.0788,0.198 -0.0765,0.09 -0.18225,0.09 z m 0,-2.799 q -0.11925,0 -0.198,-0.0833 -0.0765,-0.0855 -0.0765,-0.20475 0,-0.10575 0.0765,-0.19575 0.0788,-0.0923 0.198,-0.0923 l 9.04275,0 q 0.10575,0 0.18225,0.0923 0.0788,0.09 0.0788,0.19575 0,0.11925 -0.0788,0.20475 -0.0765,0.0833 -0.18225,0.0833 z"
         id="use1024" />
      <path
         style="fill:#000000"
         inkscape:connector-curvature="0"
         d="m 743.04212,267.58087 0,-0.50625 q 1.8,0 1.8,-0.45675 l 0,-7.56 q -0.74475,0.36 -1.8855,0.36 l 0,-0.50625 q 1.76625,0 2.66625,-0.9225 l 0.2025,0 q 0.0495,0 0.0945,0.0405 0.0473,0.0383 0.0473,0.0877 l 0,8.5005 q 0,0.45675 1.8,0.45675 l 0,0.50625 z"
         id="use1026" />
      <path
         style="fill:#000000"
         inkscape:connector-curvature="0"
         d="m 750.15193,265.94287 q 0.1485,0.42075 0.4545,0.76725 0.306,0.34425 0.7245,0.53775 0.4185,0.19125 0.8685,0.19125 1.0395,0 1.43325,-0.80775 0.39375,-0.80775 0.39375,-1.962 0,-0.4995 -0.018,-0.83925 -0.0158,-0.342 -0.0945,-0.657 -0.13275,-0.50625 -0.468,-0.8865 -0.333,-0.38025 -0.819,-0.38025 -0.48375,0 -0.8325,0.1485 -0.34875,0.14625 -0.567,0.34425 -0.216,0.19575 -0.38475,0.414 -0.16875,0.21825 -0.2115,0.23175 l -0.162,0 q -0.036,0 -0.09,-0.045 -0.0517,-0.045 -0.0517,-0.0877 l 0,-4.8105 q 0,-0.0337 0.045,-0.072 0.0472,-0.0405 0.0968,-0.0405 l 0.0427,0 q 0.96975,0.46575 2.05875,0.46575 1.06875,0 2.061,-0.46575 l 0.0428,0 q 0.0495,0 0.09,0.036 0.0428,0.036 0.0428,0.0765 l 0,0.135 q 0,0.0697 -0.027,0.0697 -0.49275,0.65475 -1.23525,1.0215 -0.7425,0.3645 -1.53675,0.3645 -0.576,0 -1.18125,-0.162 l 0,2.72025 q 0.47925,-0.387 0.855,-0.55125 0.37575,-0.1665 0.96075,-0.1665 0.79425,0 1.422,0.459 0.63,0.45675 0.9675,1.1925 0.3375,0.7335 0.3375,1.4985 0,0.86625 -0.42525,1.60425 -0.42525,0.738 -1.1565,1.1745 -0.73125,0.4365 -1.5885,0.4365 -0.711,0 -1.305,-0.3645 -0.594,-0.36675 -0.936,-0.9855 -0.33975,-0.61875 -0.33975,-1.31625 0,-0.324 0.20925,-0.5265 0.2115,-0.20475 0.52875,-0.20475 0.31725,0 0.531,0.20925 0.21375,0.207 0.21375,0.522 0,0.3105 -0.21375,0.52425 -0.21375,0.21375 -0.531,0.21375 -0.0495,0 -0.1125,-0.009 -0.063,-0.0113 -0.0923,-0.018"
         id="use1028" />
      <path
         style="fill:#000000"
         inkscape:connector-curvature="0"
         d="m 759.69624,267.89812 q -1.764,0 -2.40075,-1.45125 -0.63675,-1.4535 -0.63675,-3.45825 0,-1.251 0.22725,-2.3535 0.2295,-1.10475 0.90675,-1.87425 0.6795,-0.77175 1.9035,-0.77175 0.9495,0 1.5525,0.46575 0.60525,0.4635 0.9225,1.19925 0.31725,0.7335 0.432,1.575 0.117,0.83925 0.117,1.7595 0,1.2375 -0.2295,2.3175 -0.22725,1.08 -0.8955,1.836 -0.66825,0.756 -1.899,0.756 m 0,-0.3735 q 0.801,0 1.19475,-0.82125 0.39375,-0.8235 0.486,-1.8225 0.0923,-0.999 0.0923,-2.124 0,-1.08225 -0.0923,-1.99575 -0.0922,-0.91575 -0.48375,-1.656 -0.38925,-0.7425 -1.197,-0.7425 -0.8145,0 -1.20825,0.747 -0.39375,0.74475 -0.486,1.656 -0.0922,0.909 -0.0922,1.99125 0,0.801 0.0382,1.512 0.0405,0.711 0.20925,1.467 0.16875,0.756 0.5445,1.2735 0.37575,0.51525 0.9945,0.51525"
         id="use1030" />
      <path
         style="fill:#000000"
         inkscape:connector-curvature="0"
         d="m 766.89156,267.89812 q -1.764,0 -2.40075,-1.45125 -0.63675,-1.4535 -0.63675,-3.45825 0,-1.251 0.22725,-2.3535 0.2295,-1.10475 0.90675,-1.87425 0.6795,-0.77175 1.9035,-0.77175 0.9495,0 1.5525,0.46575 0.60525,0.4635 0.9225,1.19925 0.31725,0.7335 0.432,1.575 0.117,0.83925 0.117,1.7595 0,1.2375 -0.2295,2.3175 -0.22725,1.08 -0.8955,1.836 -0.66825,0.756 -1.899,0.756 m 0,-0.3735 q 0.801,0 1.19475,-0.82125 0.39375,-0.8235 0.486,-1.8225 0.0923,-0.999 0.0923,-2.124 0,-1.08225 -0.0923,-1.99575 -0.0923,-0.91575 -0.48375,-1.656 -0.38925,-0.7425 -1.197,-0.7425 -0.8145,0 -1.20825,0.747 -0.39375,0.74475 -0.486,1.656 -0.0923,0.909 -0.0923,1.99125 0,0.801 0.0383,1.512 0.0405,0.711 0.20925,1.467 0.16875,0.756 0.5445,1.2735 0.37575,0.51525 0.9945,0.51525"
         id="use1032" />
      <path
         style="fill:#000000"
         inkscape:connector-curvature="0"
         d="m 774.08687,267.89812 q -1.764,0 -2.40075,-1.45125 -0.63675,-1.4535 -0.63675,-3.45825 0,-1.251 0.22725,-2.3535 0.2295,-1.10475 0.90675,-1.87425 0.6795,-0.77175 1.9035,-0.77175 0.9495,0 1.5525,0.46575 0.60525,0.4635 0.9225,1.19925 0.31725,0.7335 0.432,1.575 0.117,0.83925 0.117,1.7595 0,1.2375 -0.2295,2.3175 -0.22725,1.08 -0.8955,1.836 -0.66825,0.756 -1.899,0.756 m 0,-0.3735 q 0.801,0 1.19475,-0.82125 0.39375,-0.8235 0.486,-1.8225 0.0923,-0.999 0.0923,-2.124 0,-1.08225 -0.0923,-1.99575 -0.0922,-0.91575 -0.48375,-1.656 -0.38925,-0.7425 -1.197,-0.7425 -0.8145,0 -1.20825,0.747 -0.39375,0.74475 -0.486,1.656 -0.0922,0.909 -0.0922,1.99125 0,0.801 0.0382,1.512 0.0405,0.711 0.20925,1.467 0.16875,0.756 0.5445,1.2735 0.37575,0.51525 0.9945,0.51525"
         id="use1034" />
      <path
         style="fill:#000000"
         inkscape:connector-curvature="0"
         d="m 781.28218,267.89812 q -1.764,0 -2.40075,-1.45125 -0.63675,-1.4535 -0.63675,-3.45825 0,-1.251 0.22725,-2.3535 0.2295,-1.10475 0.90675,-1.87425 0.6795,-0.77175 1.9035,-0.77175 0.9495,0 1.5525,0.46575 0.60525,0.4635 0.9225,1.19925 0.31725,0.7335 0.432,1.575 0.117,0.83925 0.117,1.7595 0,1.2375 -0.2295,2.3175 -0.22725,1.08 -0.8955,1.836 -0.66825,0.756 -1.899,0.756 m 0,-0.3735 q 0.801,0 1.19475,-0.82125 0.39375,-0.8235 0.486,-1.8225 0.0922,-0.999 0.0922,-2.124 0,-1.08225 -0.0922,-1.99575 -0.0923,-0.91575 -0.48375,-1.656 -0.38925,-0.7425 -1.197,-0.7425 -0.8145,0 -1.20825,0.747 -0.39375,0.74475 -0.486,1.656 -0.0923,0.909 -0.0923,1.99125 0,0.801 0.0383,1.512 0.0405,0.711 0.20925,1.467 0.16875,0.756 0.5445,1.2735 0.37575,0.51525 0.9945,0.51525"
         id="use1036" />
      <path
         style="fill:#000000"
         inkscape:connector-curvature="0"
         d="m 788.47749,267.89812 q -1.764,0 -2.40075,-1.45125 -0.63675,-1.4535 -0.63675,-3.45825 0,-1.251 0.22725,-2.3535 0.2295,-1.10475 0.90675,-1.87425 0.6795,-0.77175 1.9035,-0.77175 0.9495,0 1.5525,0.46575 0.60525,0.4635 0.9225,1.19925 0.31725,0.7335 0.432,1.575 0.117,0.83925 0.117,1.7595 0,1.2375 -0.2295,2.3175 -0.22725,1.08 -0.8955,1.836 -0.66825,0.756 -1.899,0.756 m 0,-0.3735 q 0.801,0 1.19475,-0.82125 0.39375,-0.8235 0.486,-1.8225 0.0923,-0.999 0.0923,-2.124 0,-1.08225 -0.0923,-1.99575 -0.0922,-0.91575 -0.48375,-1.656 -0.38925,-0.7425 -1.197,-0.7425 -0.8145,0 -1.20825,0.747 -0.39375,0.74475 -0.486,1.656 -0.0922,0.909 -0.0922,1.99125 0,0.801 0.0382,1.512 0.0405,0.711 0.20925,1.467 0.16875,0.756 0.5445,1.2735 0.37575,0.51525 0.9945,0.51525"
         id="use1038" />
      <path
         style="fill:#000000"
         inkscape:connector-curvature="0"
         d="m 793.28331,266.78662 q 0,-0.324 0.2385,-0.55575 0.2385,-0.23175 0.55575,-0.23175 0.19575,0 0.38475,0.10575 0.19125,0.10575 0.297,0.29475 0.10575,0.189 0.10575,0.387 0,0.315 -0.234,0.55575 -0.23175,0.2385 -0.5535,0.2385 -0.31725,0 -0.55575,-0.2385 -0.2385,-0.24075 -0.2385,-0.55575"
         id="use1040" />
      <path
         style="fill:#000000"
         inkscape:connector-curvature="0"
         d="m 799.77772,267.89812 q -1.764,0 -2.40075,-1.45125 -0.63675,-1.4535 -0.63675,-3.45825 0,-1.251 0.22725,-2.3535 0.2295,-1.10475 0.90675,-1.87425 0.6795,-0.77175 1.9035,-0.77175 0.9495,0 1.5525,0.46575 0.60525,0.4635 0.9225,1.19925 0.31725,0.7335 0.432,1.575 0.117,0.83925 0.117,1.7595 0,1.2375 -0.2295,2.3175 -0.22725,1.08 -0.8955,1.836 -0.66825,0.756 -1.899,0.756 m 0,-0.3735 q 0.801,0 1.19475,-0.82125 0.39375,-0.8235 0.486,-1.8225 0.0922,-0.999 0.0922,-2.124 0,-1.08225 -0.0922,-1.99575 -0.0923,-0.91575 -0.48375,-1.656 -0.38925,-0.7425 -1.197,-0.7425 -0.8145,0 -1.20825,0.747 -0.39375,0.74475 -0.486,1.656 -0.0923,0.909 -0.0923,1.99125 0,0.801 0.0382,1.512 0.0405,0.711 0.20925,1.467 0.16875,0.756 0.5445,1.2735 0.37575,0.51525 0.9945,0.51525"
         id="use1042" />
    </g>
    <g
       transform="translate(3.5976484,2.5264713)"
       id="g4324">
      <use
         height="593"
         width="921"
         id="use684"
         y="99.71125"
         x="651.47998"
         xlink:href="#mb3b06f9cb25f9b65d41eafb48422fc18"
         style="fill:#ffffff;fill-opacity:1;stroke:#000000;stroke-width:0.5;stroke-linecap:butt;stroke-linejoin:round"
         transform="matrix(2,0,0,2,-624.95981,-16.740184)" />
      <g
         id="g7174"
         transform="translate(31.479086,49.387497)">
        <path
           id="use739"
           d="m 678.76908,139.35637 q 0,-0.324 0.144,-0.94275 0.144,-0.61875 0.351,-1.3185 0.207,-0.69975 0.3555,-1.14975 0.0562,-0.7155 0.0562,-1.08225 0,-0.927 -0.1845,-1.72575 -0.18225,-0.79875 -0.6885,-1.3365 -0.50625,-0.53775 -1.413,-0.53775 -0.477,0 -0.95175,0.20475 -0.47475,0.2025 -0.81675,0.56925 -0.33975,0.3645 -0.468,0.83025 -0.027,0.0832 -0.1125,0.0832 l -0.1755,0 q -0.1125,0 -0.1125,-0.126 l 0,-0.0495 q 0.162,-0.64575 0.57375,-1.2465 0.41175,-0.603 1.00575,-0.97875 0.594,-0.37575 1.2555,-0.37575 0.675,0 1.1655,0.45675 0.49275,0.45675 0.7875,1.161 0.297,0.702 0.42525,1.41975 0.1305,0.71775 0.1305,1.35 0.7245,-1.96875 1.6245,-3.726 l 0.21825,-0.46575 q 0.0427,-0.0405 0.099,-0.0405 l 0.1755,0 q 0.1125,0 0.1125,0.13275 0,0.027 -0.0292,0.0832 l -0.21825,0.45 q -0.6255,1.2465 -1.14975,2.52675 -0.522,1.278 -0.8955,2.466 -0.0562,0.486 -0.216,1.32975 -0.1575,0.84375 -0.3825,1.5705 -0.225,0.729 -0.45,0.756 -0.216,0 -0.216,-0.288"
           inkscape:connector-curvature="0"
           style="fill:#000000" />
        <path
           id="use741"
           d="m 685.57136,134.62462 q -0.11925,0 -0.198,-0.09 -0.0765,-0.0922 -0.0765,-0.198 0,-0.11925 0.0765,-0.2025 0.0787,-0.0855 0.198,-0.0855 l 9.04275,0 q 0.10575,0 0.18225,0.0855 0.0787,0.0832 0.0787,0.2025 0,0.10575 -0.0787,0.198 -0.0765,0.09 -0.18225,0.09 z m 0,-2.799 q -0.11925,0 -0.198,-0.0832 -0.0765,-0.0855 -0.0765,-0.20475 0,-0.10575 0.0765,-0.19575 0.0787,-0.0923 0.198,-0.0923 l 9.04275,0 q 0.10575,0 0.18225,0.0923 0.0787,0.09 0.0787,0.19575 0,0.11925 -0.0787,0.20475 -0.0765,0.0832 -0.18225,0.0832 z"
           inkscape:connector-curvature="0"
           style="fill:#000000" />
        <path
           id="use743"
           d="m 700.1784,136.85437 q -1.764,0 -2.40075,-1.45125 -0.63675,-1.4535 -0.63675,-3.45825 0,-1.251 0.22725,-2.3535 0.2295,-1.10475 0.90675,-1.87425 0.6795,-0.77175 1.9035,-0.77175 0.9495,0 1.5525,0.46575 0.60525,0.4635 0.9225,1.19925 0.31725,0.7335 0.432,1.575 0.117,0.83925 0.117,1.7595 0,1.2375 -0.2295,2.3175 -0.22725,1.08 -0.8955,1.836 -0.66825,0.756 -1.899,0.756 m 0,-0.3735 q 0.801,0 1.19475,-0.82125 0.39375,-0.8235 0.486,-1.8225 0.0923,-0.999 0.0923,-2.124 0,-1.08225 -0.0923,-1.99575 -0.0923,-0.91575 -0.48375,-1.656 -0.38925,-0.7425 -1.197,-0.7425 -0.8145,0 -1.20825,0.747 -0.39375,0.74475 -0.486,1.656 -0.0923,0.909 -0.0923,1.99125 0,0.801 0.0383,1.512 0.0405,0.711 0.20925,1.467 0.16875,0.756 0.5445,1.2735 0.37575,0.51525 0.9945,0.51525"
           inkscape:connector-curvature="0"
           style="fill:#000000" />
        <path
           id="use745"
           d="m 704.98421,135.74287 q 0,-0.324 0.2385,-0.55575 0.2385,-0.23175 0.55575,-0.23175 0.19575,0 0.38475,0.10575 0.19125,0.10575 0.297,0.29475 0.10575,0.189 0.10575,0.387 0,0.315 -0.234,0.55575 -0.23175,0.2385 -0.5535,0.2385 -0.31725,0 -0.55575,-0.2385 -0.2385,-0.24075 -0.2385,-0.55575"
           inkscape:connector-curvature="0"
           style="fill:#000000" />
        <path
           id="use747"
           d="m 709.12963,134.89912 q 0.1485,0.42075 0.4545,0.76725 0.306,0.34425 0.7245,0.53775 0.4185,0.19125 0.8685,0.19125 1.0395,0 1.43325,-0.80775 0.39375,-0.80775 0.39375,-1.962 0,-0.4995 -0.018,-0.83925 -0.0158,-0.342 -0.0945,-0.657 -0.13275,-0.50625 -0.468,-0.8865 -0.333,-0.38025 -0.819,-0.38025 -0.48375,0 -0.8325,0.1485 -0.34875,0.14625 -0.567,0.34425 -0.216,0.19575 -0.38475,0.414 -0.16875,0.21825 -0.2115,0.23175 l -0.162,0 q -0.036,0 -0.09,-0.045 -0.0518,-0.045 -0.0518,-0.0877 l 0,-4.8105 q 0,-0.0337 0.045,-0.072 0.0472,-0.0405 0.0967,-0.0405 l 0.0428,0 q 0.96975,0.46575 2.05875,0.46575 1.06875,0 2.061,-0.46575 l 0.0428,0 q 0.0495,0 0.09,0.036 0.0428,0.036 0.0428,0.0765 l 0,0.135 q 0,0.0697 -0.027,0.0697 -0.49275,0.65475 -1.23525,1.0215 -0.7425,0.3645 -1.53675,0.3645 -0.576,0 -1.18125,-0.162 l 0,2.72025 q 0.47925,-0.387 0.855,-0.55125 0.37575,-0.1665 0.96075,-0.1665 0.79425,0 1.422,0.459 0.63,0.45675 0.9675,1.1925 0.3375,0.7335 0.3375,1.4985 0,0.86625 -0.42525,1.60425 -0.42525,0.738 -1.1565,1.1745 -0.73125,0.4365 -1.5885,0.4365 -0.711,0 -1.305,-0.3645 -0.594,-0.36675 -0.936,-0.9855 -0.33975,-0.61875 -0.33975,-1.31625 0,-0.324 0.20925,-0.5265 0.2115,-0.20475 0.52875,-0.20475 0.31725,0 0.531,0.20925 0.21375,0.207 0.21375,0.522 0,0.3105 -0.21375,0.52425 -0.21375,0.21375 -0.531,0.21375 -0.0495,0 -0.1125,-0.009 -0.063,-0.0113 -0.0923,-0.018"
           inkscape:connector-curvature="0"
           style="fill:#000000" />
      </g>
      <g
         id="g7101"
         transform="translate(31.479086,52.828119)">
        <path
           id="use785"
           d="m 678.76908,161.197 q 0,-0.324 0.144,-0.94275 0.144,-0.61875 0.351,-1.3185 0.207,-0.69975 0.3555,-1.14975 0.0562,-0.7155 0.0562,-1.08225 0,-0.927 -0.1845,-1.72575 -0.18225,-0.79875 -0.6885,-1.3365 -0.50625,-0.53775 -1.413,-0.53775 -0.477,0 -0.95175,0.20475 -0.47475,0.2025 -0.81675,0.56925 -0.33975,0.3645 -0.468,0.83025 -0.027,0.0832 -0.1125,0.0832 l -0.1755,0 q -0.1125,0 -0.1125,-0.126 l 0,-0.0495 q 0.162,-0.64575 0.57375,-1.2465 0.41175,-0.603 1.00575,-0.97875 0.594,-0.37575 1.2555,-0.37575 0.675,0 1.1655,0.45675 0.49275,0.45675 0.7875,1.161 0.297,0.702 0.42525,1.41975 0.1305,0.71775 0.1305,1.35 0.7245,-1.96875 1.6245,-3.726 l 0.21825,-0.46575 q 0.0427,-0.0405 0.099,-0.0405 l 0.1755,0 q 0.1125,0 0.1125,0.13275 0,0.027 -0.0292,0.0832 l -0.21825,0.45 q -0.6255,1.2465 -1.14975,2.52675 -0.522,1.278 -0.8955,2.466 -0.0562,0.486 -0.216,1.32975 -0.1575,0.84375 -0.3825,1.5705 -0.225,0.729 -0.45,0.756 -0.216,0 -0.216,-0.288"
           inkscape:connector-curvature="0"
           style="fill:#000000" />
        <path
           id="use787"
           d="m 685.57136,156.46525 q -0.11925,0 -0.198,-0.09 -0.0765,-0.0923 -0.0765,-0.198 0,-0.11925 0.0765,-0.2025 0.0787,-0.0855 0.198,-0.0855 l 9.04275,0 q 0.10575,0 0.18225,0.0855 0.0787,0.0832 0.0787,0.2025 0,0.10575 -0.0787,0.198 -0.0765,0.09 -0.18225,0.09 z m 0,-2.799 q -0.11925,0 -0.198,-0.0832 -0.0765,-0.0855 -0.0765,-0.20475 0,-0.10575 0.0765,-0.19575 0.0787,-0.0923 0.198,-0.0923 l 9.04275,0 q 0.10575,0 0.18225,0.0923 0.0787,0.09 0.0787,0.19575 0,0.11925 -0.0787,0.20475 -0.0765,0.0832 -0.18225,0.0832 z"
           inkscape:connector-curvature="0"
           style="fill:#000000" />
        <path
           id="use789"
           d="m 697.9149,158.37775 0,-0.50625 q 1.8,0 1.8,-0.45675 l 0,-7.56 q -0.74475,0.36 -1.8855,0.36 l 0,-0.50625 q 1.76625,0 2.66625,-0.9225 l 0.2025,0 q 0.0495,0 0.0945,0.0405 0.0472,0.0382 0.0472,0.0877 l 0,8.5005 q 0,0.45675 1.8,0.45675 l 0,0.50625 z"
           inkscape:connector-curvature="0"
           style="fill:#000000" />
        <path
           id="use791"
           d="m 704.98421,157.5835 q 0,-0.324 0.2385,-0.55575 0.2385,-0.23175 0.55575,-0.23175 0.19575,0 0.38475,0.10575 0.19125,0.10575 0.297,0.29475 0.10575,0.189 0.10575,0.387 0,0.315 -0.234,0.55575 -0.23175,0.2385 -0.5535,0.2385 -0.31725,0 -0.55575,-0.2385 -0.2385,-0.24075 -0.2385,-0.55575"
           inkscape:connector-curvature="0"
           style="fill:#000000" />
        <path
           id="use793"
           d="m 711.47863,158.695 q -1.764,0 -2.40075,-1.45125 -0.63675,-1.4535 -0.63675,-3.45825 0,-1.251 0.22725,-2.3535 0.2295,-1.10475 0.90675,-1.87425 0.6795,-0.77175 1.9035,-0.77175 0.9495,0 1.5525,0.46575 0.60525,0.4635 0.9225,1.19925 0.31725,0.7335 0.432,1.575 0.117,0.83925 0.117,1.7595 0,1.2375 -0.2295,2.3175 -0.22725,1.08 -0.8955,1.836 -0.66825,0.756 -1.899,0.756 m 0,-0.3735 q 0.801,0 1.19475,-0.82125 0.39375,-0.8235 0.486,-1.8225 0.0922,-0.999 0.0922,-2.124 0,-1.08225 -0.0922,-1.99575 -0.0923,-0.91575 -0.48375,-1.656 -0.38925,-0.7425 -1.197,-0.7425 -0.8145,0 -1.20825,0.747 -0.39375,0.74475 -0.486,1.656 -0.0923,0.909 -0.0923,1.99125 0,0.801 0.0382,1.512 0.0405,0.711 0.20925,1.467 0.16875,0.756 0.5445,1.2735 0.37575,0.51525 0.9945,0.51525"
           inkscape:connector-curvature="0"
           style="fill:#000000" />
      </g>
      <use
         height="593"
         width="921"
         id="use821"
         y="165.23312"
         x="651.47998"
         xlink:href="#m87f81da4bcf58d853202912065521dc1"
         style="fill:#ffffff;fill-opacity:1;stroke:#000000;stroke-width:0.5;stroke-linecap:butt;stroke-linejoin:round"
         transform="matrix(2,0,0,2,-624.95981,-122.50268)" />
      <use
         height="593"
         width="921"
         id="use958"
         y="230.755"
         x="651.47998"
         xlink:href="#m977dbc290ddfbd19b8a677e041c96ea6"
         style="fill:#ffffff;fill-opacity:1;stroke:#000000;stroke-width:0.5;stroke-linecap:butt;stroke-linejoin:round"
         transform="matrix(2,0,0,2,-624.95981,-227.3537)" />
      <g
         id="g6982"
         transform="translate(31.479086,-8.34169)">
        <path
           id="use966"
           d="m 678.76908,248.5595 q 0,-0.324 0.144,-0.94275 0.144,-0.61875 0.351,-1.3185 0.207,-0.69975 0.3555,-1.14975 0.0562,-0.7155 0.0562,-1.08225 0,-0.927 -0.1845,-1.72575 -0.18225,-0.79875 -0.6885,-1.3365 -0.50625,-0.53775 -1.413,-0.53775 -0.477,0 -0.95175,0.20475 -0.47475,0.2025 -0.81675,0.56925 -0.33975,0.3645 -0.468,0.83025 -0.027,0.0832 -0.1125,0.0832 l -0.1755,0 q -0.1125,0 -0.1125,-0.126 l 0,-0.0495 q 0.162,-0.64575 0.57375,-1.2465 0.41175,-0.603 1.00575,-0.97875 0.594,-0.37575 1.2555,-0.37575 0.675,0 1.1655,0.45675 0.49275,0.45675 0.7875,1.161 0.297,0.702 0.42525,1.41975 0.1305,0.71775 0.1305,1.35 0.7245,-1.96875 1.6245,-3.726 l 0.21825,-0.46575 q 0.0427,-0.0405 0.099,-0.0405 l 0.1755,0 q 0.1125,0 0.1125,0.13275 0,0.027 -0.0292,0.0833 l -0.21825,0.45 q -0.6255,1.2465 -1.14975,2.52675 -0.522,1.278 -0.8955,2.466 -0.0562,0.486 -0.216,1.32975 -0.1575,0.84375 -0.3825,1.5705 -0.225,0.729 -0.45,0.756 -0.216,0 -0.216,-0.288"
           inkscape:connector-curvature="0"
           style="fill:#000000" />
        <path
           id="use968"
           d="m 685.57136,243.82775 q -0.11925,0 -0.198,-0.09 -0.0765,-0.0923 -0.0765,-0.198 0,-0.11925 0.0765,-0.2025 0.0787,-0.0855 0.198,-0.0855 l 9.04275,0 q 0.10575,0 0.18225,0.0855 0.0787,0.0832 0.0787,0.2025 0,0.10575 -0.0787,0.198 -0.0765,0.09 -0.18225,0.09 z m 0,-2.799 q -0.11925,0 -0.198,-0.0832 -0.0765,-0.0855 -0.0765,-0.20475 0,-0.10575 0.0765,-0.19575 0.0787,-0.0922 0.198,-0.0922 l 9.04275,0 q 0.10575,0 0.18225,0.0922 0.0787,0.09 0.0787,0.19575 0,0.11925 -0.0787,0.20475 -0.0765,0.0832 -0.18225,0.0832 z"
           inkscape:connector-curvature="0"
           style="fill:#000000" />
        <path
           id="use970"
           d="m 697.29615,245.74025 0,-0.387 q 0,-0.036 0.027,-0.0765 l 2.2365,-2.475 q 0.50625,-0.549 0.82125,-0.92025 0.31725,-0.3735 0.6255,-0.8595 0.3105,-0.486 0.4905,-0.98775 0.18,-0.50175 0.18,-1.06425 0,-0.59175 -0.21825,-1.1295 -0.21825,-0.53775 -0.65025,-0.86175 -0.432,-0.324 -1.044,-0.324 -0.6255,0 -1.125,0.378 -0.4995,0.37575 -0.70425,0.972 0.0562,-0.0135 0.15525,-0.0135 0.324,0 0.55125,0.21825 0.2295,0.21825 0.2295,0.5625 0,0.33075 -0.2295,0.56025 -0.22725,0.22725 -0.55125,0.22725 -0.3375,0 -0.567,-0.234 -0.22725,-0.23625 -0.22725,-0.5535 0,-0.54225 0.2025,-1.01475 0.20475,-0.47475 0.58725,-0.84375 0.38475,-0.37125 0.86625,-0.567 0.4815,-0.198 1.0215,-0.198 0.8235,0 1.53225,0.34875 0.711,0.34875 1.125,0.9855 0.41625,0.6345 0.41625,1.48725 0,0.6255 -0.2745,1.188 -0.2745,0.5625 -0.70425,1.02375 -0.4275,0.459 -1.09575,1.044 -0.66825,0.58275 -0.8775,0.7785 l -1.63125,1.56825 1.38375,0 q 1.01925,0 1.7055,-0.0157 0.68625,-0.018 0.72675,-0.054 0.16875,-0.18225 0.3465,-1.32975 l 0.42075,0 -0.40725,2.56725 z"
           inkscape:connector-curvature="0"
           style="fill:#000000" />
        <path
           id="use972"
           d="m 704.98421,244.946 q 0,-0.324 0.2385,-0.55575 0.2385,-0.23175 0.55575,-0.23175 0.19575,0 0.38475,0.10575 0.19125,0.10575 0.297,0.29475 0.10575,0.189 0.10575,0.387 0,0.315 -0.234,0.55575 -0.23175,0.2385 -0.5535,0.2385 -0.31725,0 -0.55575,-0.2385 -0.2385,-0.24075 -0.2385,-0.55575"
           inkscape:connector-curvature="0"
           style="fill:#000000" />
        <path
           id="use974"
           d="m 711.47863,246.0575 q -1.764,0 -2.40075,-1.45125 -0.63675,-1.4535 -0.63675,-3.45825 0,-1.251 0.22725,-2.3535 0.2295,-1.10475 0.90675,-1.87425 0.6795,-0.77175 1.9035,-0.77175 0.9495,0 1.5525,0.46575 0.60525,0.4635 0.9225,1.19925 0.31725,0.7335 0.432,1.575 0.117,0.83925 0.117,1.7595 0,1.2375 -0.2295,2.3175 -0.22725,1.08 -0.8955,1.836 -0.66825,0.756 -1.899,0.756 m 0,-0.3735 q 0.801,0 1.19475,-0.82125 0.39375,-0.8235 0.486,-1.8225 0.0922,-0.999 0.0922,-2.124 0,-1.08225 -0.0922,-1.99575 -0.0923,-0.91575 -0.48375,-1.656 -0.38925,-0.7425 -1.197,-0.7425 -0.8145,0 -1.20825,0.747 -0.39375,0.74475 -0.486,1.656 -0.0923,0.909 -0.0923,1.99125 0,0.801 0.0382,1.512 0.0405,0.711 0.20925,1.467 0.16875,0.756 0.5445,1.2735 0.37575,0.51525 0.9945,0.51525"
           inkscape:connector-curvature="0"
           style="fill:#000000" />
      </g>
      <use
         height="593"
         width="921"
         id="use632"
         y="77.870628"
         x="671.64001"
         xlink:href="#mb3b06f9cb25f9b65d41eafb48422fc18"
         style="fill:#000000;stroke:#000000;stroke-width:0.17677671;stroke-linecap:butt;stroke-linejoin:miter;stroke-miterlimit:4;stroke-dasharray:none"
         transform="matrix(8,0,0,4,-4713.36,-211.77376)" />
      <use
         height="593"
         width="921"
         id="use686"
         y="99.71125"
         x="671.64001"
         xlink:href="#mb3b06f9cb25f9b65d41eafb48422fc18"
         style="fill:#999999;stroke:#000000;stroke-width:0.17677671;stroke-linecap:butt;stroke-linejoin:miter;stroke-miterlimit:4;stroke-dasharray:none"
         transform="matrix(8,0,0,4,-4713.36,-274.09562)" />
      <use
         height="593"
         width="921"
         id="use733"
         y="121.55187"
         x="671.64001"
         xlink:href="#mb3b06f9cb25f9b65d41eafb48422fc18"
         style="fill:#ffffff;stroke:#000000;stroke-width:0.17677671;stroke-linecap:butt;stroke-linejoin:miter;stroke-miterlimit:4;stroke-dasharray:none"
         transform="matrix(8,0,0,4,-4713.36,-338.01748)" />
      <g
         id="g7108"
         transform="translate(-13.816934,-6.945491)">
        <path
           id="use797"
           d="m 720.0488,161.0845 q 0,-0.0832 0.0135,-0.1125 l 1.42875,-5.751 q 0.2025,-0.774 0.6975,-1.51425 0.49725,-0.7425 1.19925,-1.21725 0.70425,-0.47475 1.485,-0.47475 0.6255,0 1.0935,0.32625 0.468,0.32625 0.702,0.85725 0.23625,0.531 0.23625,1.1655 0,0.69525 -0.28575,1.44 -0.2835,0.74475 -0.7875,1.3635 -0.50175,0.61875 -1.1565,0.99675 -0.6525,0.37575 -1.37025,0.37575 -0.42075,0 -0.79425,-0.24975 -0.3735,-0.24975 -0.58275,-0.657 l -0.85275,3.39525 q -0.0405,0.20475 -0.20925,0.33075 -0.16875,0.126 -0.38025,0.126 -0.1755,0 -0.306,-0.11025 -0.1305,-0.108 -0.1305,-0.29025 m 3.285,-2.925 q 0.765,0 1.32975,-0.783 0.567,-0.78525 0.86625,-1.84275 0.29925,-1.0575 0.29925,-1.78875 0,-0.549 -0.24075,-0.954 -0.2385,-0.405 -0.74475,-0.405 -0.6255,0 -1.10475,0.47475 -0.477,0.47475 -0.765,1.116 -0.288,0.639 -0.47025,1.33425 l -0.39375,1.611 q 0.09,0.51975 0.4095,0.87975 0.32175,0.35775 0.8145,0.35775"
           inkscape:connector-curvature="0"
           style="fill:#000000" />
        <path
           id="use799"
           d="m 730.69858,156.46525 q -0.11925,0 -0.198,-0.09 -0.0765,-0.0923 -0.0765,-0.198 0,-0.11925 0.0765,-0.2025 0.0788,-0.0855 0.198,-0.0855 l 9.04275,0 q 0.10575,0 0.18225,0.0855 0.0788,0.0832 0.0788,0.2025 0,0.10575 -0.0788,0.198 -0.0765,0.09 -0.18225,0.09 z m 0,-2.799 q -0.11925,0 -0.198,-0.0832 -0.0765,-0.0855 -0.0765,-0.20475 0,-0.10575 0.0765,-0.19575 0.0788,-0.0923 0.198,-0.0923 l 9.04275,0 q 0.10575,0 0.18225,0.0923 0.0788,0.09 0.0788,0.19575 0,0.11925 -0.0788,0.20475 -0.0765,0.0832 -0.18225,0.0832 z"
           inkscape:connector-curvature="0"
           style="fill:#000000" />
        <path
           id="use801"
           d="m 743.04212,158.37775 0,-0.50625 q 1.8,0 1.8,-0.45675 l 0,-7.56 q -0.74475,0.36 -1.8855,0.36 l 0,-0.50625 q 1.76625,0 2.66625,-0.9225 l 0.2025,0 q 0.0495,0 0.0945,0.0405 0.0473,0.0382 0.0473,0.0877 l 0,8.5005 q 0,0.45675 1.8,0.45675 l 0,0.50625 z"
           inkscape:connector-curvature="0"
           style="fill:#000000" />
        <path
           id="use803"
           d="m 749.30143,156.00175 0,-0.50625 4.4505,-6.6375 q 0.0495,-0.072 0.1485,-0.072 l 0.2115,0 q 0.162,0 0.162,0.162 l 0,6.5475 1.413,0 0,0.50625 -1.413,0 0,1.413 q 0,0.29475 0.42075,0.37575 0.423,0.081 0.9765,0.081 l 0,0.50625 -3.9645,0 0,-0.50625 q 0.55575,0 0.9765,-0.081 0.423,-0.081 0.423,-0.37575 l 0,-1.413 z m 0.47925,-0.50625 3.40875,0 0,-5.0985 z"
           inkscape:connector-curvature="0"
           style="fill:#000000" />
        <path
           id="use805"
           d="m 759.69624,158.695 q -1.764,0 -2.40075,-1.45125 -0.63675,-1.4535 -0.63675,-3.45825 0,-1.251 0.22725,-2.3535 0.2295,-1.10475 0.90675,-1.87425 0.6795,-0.77175 1.9035,-0.77175 0.9495,0 1.5525,0.46575 0.60525,0.4635 0.9225,1.19925 0.31725,0.7335 0.432,1.575 0.117,0.83925 0.117,1.7595 0,1.2375 -0.2295,2.3175 -0.22725,1.08 -0.8955,1.836 -0.66825,0.756 -1.899,0.756 m 0,-0.3735 q 0.801,0 1.19475,-0.82125 0.39375,-0.8235 0.486,-1.8225 0.0923,-0.999 0.0923,-2.124 0,-1.08225 -0.0923,-1.99575 -0.0922,-0.91575 -0.48375,-1.656 -0.38925,-0.7425 -1.197,-0.7425 -0.8145,0 -1.20825,0.747 -0.39375,0.74475 -0.486,1.656 -0.0922,0.909 -0.0922,1.99125 0,0.801 0.0382,1.512 0.0405,0.711 0.20925,1.467 0.16875,0.756 0.5445,1.2735 0.37575,0.51525 0.9945,0.51525"
           inkscape:connector-curvature="0"
           style="fill:#000000" />
        <path
           id="use807"
           d="m 766.89156,158.695 q -1.764,0 -2.40075,-1.45125 -0.63675,-1.4535 -0.63675,-3.45825 0,-1.251 0.22725,-2.3535 0.2295,-1.10475 0.90675,-1.87425 0.6795,-0.77175 1.9035,-0.77175 0.9495,0 1.5525,0.46575 0.60525,0.4635 0.9225,1.19925 0.31725,0.7335 0.432,1.575 0.117,0.83925 0.117,1.7595 0,1.2375 -0.2295,2.3175 -0.22725,1.08 -0.8955,1.836 -0.66825,0.756 -1.899,0.756 m 0,-0.3735 q 0.801,0 1.19475,-0.82125 0.39375,-0.8235 0.486,-1.8225 0.0923,-0.999 0.0923,-2.124 0,-1.08225 -0.0923,-1.99575 -0.0923,-0.91575 -0.48375,-1.656 -0.38925,-0.7425 -1.197,-0.7425 -0.8145,0 -1.20825,0.747 -0.39375,0.74475 -0.486,1.656 -0.0923,0.909 -0.0923,1.99125 0,0.801 0.0383,1.512 0.0405,0.711 0.20925,1.467 0.16875,0.756 0.5445,1.2735 0.37575,0.51525 0.9945,0.51525"
           inkscape:connector-curvature="0"
           style="fill:#000000" />
        <path
           id="use809"
           d="m 774.08687,158.695 q -1.764,0 -2.40075,-1.45125 -0.63675,-1.4535 -0.63675,-3.45825 0,-1.251 0.22725,-2.3535 0.2295,-1.10475 0.90675,-1.87425 0.6795,-0.77175 1.9035,-0.77175 0.9495,0 1.5525,0.46575 0.60525,0.4635 0.9225,1.19925 0.31725,0.7335 0.432,1.575 0.117,0.83925 0.117,1.7595 0,1.2375 -0.2295,2.3175 -0.22725,1.08 -0.8955,1.836 -0.66825,0.756 -1.899,0.756 m 0,-0.3735 q 0.801,0 1.19475,-0.82125 0.39375,-0.8235 0.486,-1.8225 0.0923,-0.999 0.0923,-2.124 0,-1.08225 -0.0923,-1.99575 -0.0922,-0.91575 -0.48375,-1.656 -0.38925,-0.7425 -1.197,-0.7425 -0.8145,0 -1.20825,0.747 -0.39375,0.74475 -0.486,1.656 -0.0922,0.909 -0.0922,1.99125 0,0.801 0.0382,1.512 0.0405,0.711 0.20925,1.467 0.16875,0.756 0.5445,1.2735 0.37575,0.51525 0.9945,0.51525"
           inkscape:connector-curvature="0"
           style="fill:#000000" />
        <path
           id="use811"
           d="m 781.28218,158.695 q -1.764,0 -2.40075,-1.45125 -0.63675,-1.4535 -0.63675,-3.45825 0,-1.251 0.22725,-2.3535 0.2295,-1.10475 0.90675,-1.87425 0.6795,-0.77175 1.9035,-0.77175 0.9495,0 1.5525,0.46575 0.60525,0.4635 0.9225,1.19925 0.31725,0.7335 0.432,1.575 0.117,0.83925 0.117,1.7595 0,1.2375 -0.2295,2.3175 -0.22725,1.08 -0.8955,1.836 -0.66825,0.756 -1.899,0.756 m 0,-0.3735 q 0.801,0 1.19475,-0.82125 0.39375,-0.8235 0.486,-1.8225 0.0922,-0.999 0.0922,-2.124 0,-1.08225 -0.0922,-1.99575 -0.0923,-0.91575 -0.48375,-1.656 -0.38925,-0.7425 -1.197,-0.7425 -0.8145,0 -1.20825,0.747 -0.39375,0.74475 -0.486,1.656 -0.0923,0.909 -0.0923,1.99125 0,0.801 0.0383,1.512 0.0405,0.711 0.20925,1.467 0.16875,0.756 0.5445,1.2735 0.37575,0.51525 0.9945,0.51525"
           inkscape:connector-curvature="0"
           style="fill:#000000" />
        <path
           id="use813"
           d="m 786.08799,157.5835 q 0,-0.324 0.2385,-0.55575 0.2385,-0.23175 0.55575,-0.23175 0.19575,0 0.38475,0.10575 0.19125,0.10575 0.297,0.29475 0.10575,0.189 0.10575,0.387 0,0.315 -0.234,0.55575 -0.23175,0.2385 -0.5535,0.2385 -0.31725,0 -0.55575,-0.2385 -0.2385,-0.24075 -0.2385,-0.55575"
           inkscape:connector-curvature="0"
           style="fill:#000000" />
        <path
           id="use815"
           d="m 792.58241,158.695 q -1.764,0 -2.40075,-1.45125 -0.63675,-1.4535 -0.63675,-3.45825 0,-1.251 0.22725,-2.3535 0.2295,-1.10475 0.90675,-1.87425 0.6795,-0.77175 1.9035,-0.77175 0.9495,0 1.5525,0.46575 0.60525,0.4635 0.9225,1.19925 0.31725,0.7335 0.432,1.575 0.117,0.83925 0.117,1.7595 0,1.2375 -0.2295,2.3175 -0.22725,1.08 -0.8955,1.836 -0.66825,0.756 -1.899,0.756 m 0,-0.3735 q 0.801,0 1.19475,-0.82125 0.39375,-0.8235 0.486,-1.8225 0.0923,-0.999 0.0923,-2.124 0,-1.08225 -0.0923,-1.99575 -0.0922,-0.91575 -0.48375,-1.656 -0.38925,-0.7425 -1.197,-0.7425 -0.8145,0 -1.20825,0.747 -0.39375,0.74475 -0.486,1.656 -0.0922,0.909 -0.0922,1.99125 0,0.801 0.0382,1.512 0.0405,0.711 0.20925,1.467 0.16875,0.756 0.5445,1.2735 0.37575,0.51525 0.9945,0.51525"
           inkscape:connector-curvature="0"
           style="fill:#000000" />
      </g>
      <g
         id="g7034"
         transform="translate(-13.816934,-117.74862)">
        <path
           id="use978"
           d="m 720.0488,248.447 q 0,-0.0832 0.0135,-0.1125 l 1.42875,-5.751 q 0.2025,-0.774 0.6975,-1.51425 0.49725,-0.7425 1.19925,-1.21725 0.70425,-0.47475 1.485,-0.47475 0.6255,0 1.0935,0.32625 0.468,0.32625 0.702,0.85725 0.23625,0.531 0.23625,1.1655 0,0.69525 -0.28575,1.44 -0.2835,0.74475 -0.7875,1.3635 -0.50175,0.61875 -1.1565,0.99675 -0.6525,0.37575 -1.37025,0.37575 -0.42075,0 -0.79425,-0.24975 -0.3735,-0.24975 -0.58275,-0.657 l -0.85275,3.39525 q -0.0405,0.20475 -0.20925,0.33075 -0.16875,0.126 -0.38025,0.126 -0.1755,0 -0.306,-0.11025 -0.1305,-0.108 -0.1305,-0.29025 m 3.285,-2.925 q 0.765,0 1.32975,-0.783 0.567,-0.78525 0.86625,-1.84275 0.29925,-1.0575 0.29925,-1.78875 0,-0.549 -0.24075,-0.954 -0.2385,-0.405 -0.74475,-0.405 -0.6255,0 -1.10475,0.47475 -0.477,0.47475 -0.765,1.116 -0.288,0.639 -0.47025,1.33425 l -0.39375,1.611 q 0.09,0.51975 0.4095,0.87975 0.32175,0.35775 0.8145,0.35775"
           inkscape:connector-curvature="0"
           style="fill:#000000" />
        <path
           id="use980"
           d="m 730.69858,243.82775 q -0.11925,0 -0.198,-0.09 -0.0765,-0.0923 -0.0765,-0.198 0,-0.11925 0.0765,-0.2025 0.0788,-0.0855 0.198,-0.0855 l 9.04275,0 q 0.10575,0 0.18225,0.0855 0.0788,0.0832 0.0788,0.2025 0,0.10575 -0.0788,0.198 -0.0765,0.09 -0.18225,0.09 z m 0,-2.799 q -0.11925,0 -0.198,-0.0832 -0.0765,-0.0855 -0.0765,-0.20475 0,-0.10575 0.0765,-0.19575 0.0788,-0.0922 0.198,-0.0922 l 9.04275,0 q 0.10575,0 0.18225,0.0922 0.0788,0.09 0.0788,0.19575 0,0.11925 -0.0788,0.20475 -0.0765,0.0832 -0.18225,0.0832 z"
           inkscape:connector-curvature="0"
           style="fill:#000000" />
        <path
           id="use982"
           d="m 742.10612,243.36425 0,-0.50625 4.4505,-6.6375 q 0.0495,-0.072 0.1485,-0.072 l 0.2115,0 q 0.162,0 0.162,0.162 l 0,6.5475 1.413,0 0,0.50625 -1.413,0 0,1.413 q 0,0.29475 0.42075,0.37575 0.423,0.081 0.9765,0.081 l 0,0.50625 -3.9645,0 0,-0.50625 q 0.55575,0 0.9765,-0.081 0.423,-0.081 0.423,-0.37575 l 0,-1.413 z m 0.47925,-0.50625 3.40875,0 0,-5.0985 z"
           inkscape:connector-curvature="0"
           style="fill:#000000" />
        <path
           id="use984"
           d="m 750.15193,244.10225 q 0.1485,0.42075 0.4545,0.76725 0.306,0.34425 0.7245,0.53775 0.4185,0.19125 0.8685,0.19125 1.0395,0 1.43325,-0.80775 0.39375,-0.80775 0.39375,-1.962 0,-0.4995 -0.018,-0.83925 -0.0158,-0.342 -0.0945,-0.657 -0.13275,-0.50625 -0.468,-0.8865 -0.333,-0.38025 -0.819,-0.38025 -0.48375,0 -0.8325,0.1485 -0.34875,0.14625 -0.567,0.34425 -0.216,0.19575 -0.38475,0.414 -0.16875,0.21825 -0.2115,0.23175 l -0.162,0 q -0.036,0 -0.09,-0.045 -0.0517,-0.045 -0.0517,-0.0877 l 0,-4.8105 q 0,-0.0337 0.045,-0.072 0.0472,-0.0405 0.0968,-0.0405 l 0.0427,0 q 0.96975,0.46575 2.05875,0.46575 1.06875,0 2.061,-0.46575 l 0.0428,0 q 0.0495,0 0.09,0.036 0.0428,0.036 0.0428,0.0765 l 0,0.135 q 0,0.0698 -0.027,0.0698 -0.49275,0.65475 -1.23525,1.0215 -0.7425,0.3645 -1.53675,0.3645 -0.576,0 -1.18125,-0.162 l 0,2.72025 q 0.47925,-0.387 0.855,-0.55125 0.37575,-0.1665 0.96075,-0.1665 0.79425,0 1.422,0.459 0.63,0.45675 0.9675,1.1925 0.3375,0.7335 0.3375,1.4985 0,0.86625 -0.42525,1.60425 -0.42525,0.738 -1.1565,1.1745 -0.73125,0.4365 -1.5885,0.4365 -0.711,0 -1.305,-0.3645 -0.594,-0.36675 -0.936,-0.9855 -0.33975,-0.61875 -0.33975,-1.31625 0,-0.324 0.20925,-0.5265 0.2115,-0.20475 0.52875,-0.20475 0.31725,0 0.531,0.20925 0.21375,0.207 0.21375,0.522 0,0.3105 -0.21375,0.52425 -0.21375,0.21375 -0.531,0.21375 -0.0495,0 -0.1125,-0.009 -0.063,-0.0112 -0.0923,-0.018"
           inkscape:connector-curvature="0"
           style="fill:#000000" />
        <path
           id="use986"
           d="m 756.70149,243.55325 q 0,-0.864 0.56925,-1.52775 0.56925,-0.666 1.4625,-1.10925 l -0.5355,-0.34425 q -0.4905,-0.324 -0.801,-0.86175 -0.30825,-0.53775 -0.30825,-1.12725 0,-0.69075 0.36225,-1.24425 0.36225,-0.55575 0.963,-0.873 0.60075,-0.31725 1.2825,-0.31725 0.639,0 1.233,0.261 0.59625,0.261 0.97875,0.747 0.3825,0.48375 0.3825,1.152 0,0.48375 -0.2295,0.9 -0.22725,0.414 -0.6255,0.74475 -0.396,0.33075 -0.846,0.5625 l 0.8235,0.5265 q 0.56925,0.3735 0.91575,0.97875 0.34875,0.60525 0.34875,1.27125 0,0.78075 -0.4185,1.422 -0.4185,0.639 -1.107,0.99225 -0.6885,0.351 -1.45575,0.351 -0.74475,0 -1.43775,-0.30375 -0.693,-0.3015 -1.125,-0.87525 -0.432,-0.57375 -0.432,-1.32525 m 0.78075,0 q 0,0.56925 0.31275,1.04175 0.31275,0.47025 0.82575,0.738 0.513,0.2655 1.0755,0.2655 0.837,0 1.51875,-0.48825 0.68175,-0.48825 0.68175,-1.296 0,-0.2745 -0.11025,-0.5445 -0.108,-0.27225 -0.3015,-0.49275 -0.1935,-0.22275 -0.432,-0.36225 l -1.93275,-1.251 q -0.45,0.2385 -0.828,0.60525 -0.37575,0.3645 -0.594,0.82125 -0.216,0.45675 -0.216,0.963 m 0.99,-4.39425 1.74375,1.125 q 0.60525,-0.351 0.99225,-0.8505 0.387,-0.4995 0.387,-1.125 0,-0.486 -0.27225,-0.88875 -0.27,-0.405 -0.7065,-0.63 -0.43425,-0.225 -0.93375,-0.225 -0.4365,0 -0.87975,0.16875 -0.44325,0.16875 -0.73125,0.504 -0.288,0.333 -0.288,0.783 0,0.675 0.6885,1.1385"
           inkscape:connector-curvature="0"
           style="fill:#000000" />
        <path
           id="use988"
           d="m 766.89156,246.0575 q -1.764,0 -2.40075,-1.45125 -0.63675,-1.4535 -0.63675,-3.45825 0,-1.251 0.22725,-2.3535 0.2295,-1.10475 0.90675,-1.87425 0.6795,-0.77175 1.9035,-0.77175 0.9495,0 1.5525,0.46575 0.60525,0.4635 0.9225,1.19925 0.31725,0.7335 0.432,1.575 0.117,0.83925 0.117,1.7595 0,1.2375 -0.2295,2.3175 -0.22725,1.08 -0.8955,1.836 -0.66825,0.756 -1.899,0.756 m 0,-0.3735 q 0.801,0 1.19475,-0.82125 0.39375,-0.8235 0.486,-1.8225 0.0923,-0.999 0.0923,-2.124 0,-1.08225 -0.0923,-1.99575 -0.0923,-0.91575 -0.48375,-1.656 -0.38925,-0.7425 -1.197,-0.7425 -0.8145,0 -1.20825,0.747 -0.39375,0.74475 -0.486,1.656 -0.0923,0.909 -0.0923,1.99125 0,0.801 0.0383,1.512 0.0405,0.711 0.20925,1.467 0.16875,0.756 0.5445,1.2735 0.37575,0.51525 0.9945,0.51525"
           inkscape:connector-curvature="0"
           style="fill:#000000" />
        <path
           id="use990"
           d="m 774.08687,246.0575 q -1.764,0 -2.40075,-1.45125 -0.63675,-1.4535 -0.63675,-3.45825 0,-1.251 0.22725,-2.3535 0.2295,-1.10475 0.90675,-1.87425 0.6795,-0.77175 1.9035,-0.77175 0.9495,0 1.5525,0.46575 0.60525,0.4635 0.9225,1.19925 0.31725,0.7335 0.432,1.575 0.117,0.83925 0.117,1.7595 0,1.2375 -0.2295,2.3175 -0.22725,1.08 -0.8955,1.836 -0.66825,0.756 -1.899,0.756 m 0,-0.3735 q 0.801,0 1.19475,-0.82125 0.39375,-0.8235 0.486,-1.8225 0.0923,-0.999 0.0923,-2.124 0,-1.08225 -0.0923,-1.99575 -0.0922,-0.91575 -0.48375,-1.656 -0.38925,-0.7425 -1.197,-0.7425 -0.8145,0 -1.20825,0.747 -0.39375,0.74475 -0.486,1.656 -0.0922,0.909 -0.0922,1.99125 0,0.801 0.0382,1.512 0.0405,0.711 0.20925,1.467 0.16875,0.756 0.5445,1.2735 0.37575,0.51525 0.9945,0.51525"
           inkscape:connector-curvature="0"
           style="fill:#000000" />
        <path
           id="use992"
           d="m 781.28218,246.0575 q -1.764,0 -2.40075,-1.45125 -0.63675,-1.4535 -0.63675,-3.45825 0,-1.251 0.22725,-2.3535 0.2295,-1.10475 0.90675,-1.87425 0.6795,-0.77175 1.9035,-0.77175 0.9495,0 1.5525,0.46575 0.60525,0.4635 0.9225,1.19925 0.31725,0.7335 0.432,1.575 0.117,0.83925 0.117,1.7595 0,1.2375 -0.2295,2.3175 -0.22725,1.08 -0.8955,1.836 -0.66825,0.756 -1.899,0.756 m 0,-0.3735 q 0.801,0 1.19475,-0.82125 0.39375,-0.8235 0.486,-1.8225 0.0922,-0.999 0.0922,-2.124 0,-1.08225 -0.0922,-1.99575 -0.0923,-0.91575 -0.48375,-1.656 -0.38925,-0.7425 -1.197,-0.7425 -0.8145,0 -1.20825,0.747 -0.39375,0.74475 -0.486,1.656 -0.0923,0.909 -0.0923,1.99125 0,0.801 0.0383,1.512 0.0405,0.711 0.20925,1.467 0.16875,0.756 0.5445,1.2735 0.37575,0.51525 0.9945,0.51525"
           inkscape:connector-curvature="0"
           style="fill:#000000" />
        <path
           id="use994"
           d="m 786.08799,244.946 q 0,-0.324 0.2385,-0.55575 0.2385,-0.23175 0.55575,-0.23175 0.19575,0 0.38475,0.10575 0.19125,0.10575 0.297,0.29475 0.10575,0.189 0.10575,0.387 0,0.315 -0.234,0.55575 -0.23175,0.2385 -0.5535,0.2385 -0.31725,0 -0.55575,-0.2385 -0.2385,-0.24075 -0.2385,-0.55575"
           inkscape:connector-curvature="0"
           style="fill:#000000" />
        <path
           id="use996"
           d="m 792.58241,246.0575 q -1.764,0 -2.40075,-1.45125 -0.63675,-1.4535 -0.63675,-3.45825 0,-1.251 0.22725,-2.3535 0.2295,-1.10475 0.90675,-1.87425 0.6795,-0.77175 1.9035,-0.77175 0.9495,0 1.5525,0.46575 0.60525,0.4635 0.9225,1.19925 0.31725,0.7335 0.432,1.575 0.117,0.83925 0.117,1.7595 0,1.2375 -0.2295,2.3175 -0.22725,1.08 -0.8955,1.836 -0.66825,0.756 -1.899,0.756 m 0,-0.3735 q 0.801,0 1.19475,-0.82125 0.39375,-0.8235 0.486,-1.8225 0.0923,-0.999 0.0923,-2.124 0,-1.08225 -0.0923,-1.99575 -0.0922,-0.91575 -0.48375,-1.656 -0.38925,-0.7425 -1.197,-0.7425 -0.8145,0 -1.20825,0.747 -0.39375,0.74475 -0.486,1.656 -0.0922,0.909 -0.0922,1.99125 0,0.801 0.0382,1.512 0.0405,0.711 0.20925,1.467 0.16875,0.756 0.5445,1.2735 0.37575,0.51525 0.9945,0.51525"
           inkscape:connector-curvature="0"
           style="fill:#000000" />
      </g>
      <use
         height="593"
         width="921"
         id="use684-1"
         y="99.71125"
         x="651.47998"
         xlink:href="#mb3b06f9cb25f9b65d41eafb48422fc18"
         style="fill:#ffffff;fill-opacity:1;stroke:#000000;stroke-width:1;stroke-linecap:butt;stroke-linejoin:round;stroke-miterlimit:4;stroke-dasharray:none"
         transform="translate(26.52017,167.45881)" />
      <use
         height="593"
         width="921"
         id="use684-1-2"
         y="99.71125"
         x="651.47998"
         xlink:href="#mb3b06f9cb25f9b65d41eafb48422fc18"
         style="fill:#ffffff;fill-opacity:1;stroke:#000000;stroke-width:0.5;stroke-linecap:butt;stroke-linejoin:round"
         transform="matrix(2,0,0,2,-624.95981,94.289828)" />
      <use
         height="593"
         width="921"
         id="use684-1-7"
         y="99.71125"
         x="651.47998"
         xlink:href="#mb3b06f9cb25f9b65d41eafb48422fc18"
         style="fill:#ffffff;fill-opacity:1;stroke:#000000;stroke-width:0.33333334;stroke-linecap:butt;stroke-linejoin:round;stroke-miterlimit:4;stroke-dasharray:none"
         transform="matrix(3,0,0,3,-1276.4398,21.120784)" />
      <text
         xml:space="preserve"
         style="font-size:32px;font-style:normal;font-weight:normal;line-height:125%;letter-spacing:0px;word-spacing:0px;fill:#000000;fill-opacity:1;stroke:none;font-family:Sans"
         x="705.78186"
         y="270.06381"
         id="text4290"
         sodipodi:linespacing="125%"><tspan
           sodipodi:role="line"
           id="tspan4292"
           x="705.78186"
           y="270.06381"
           style="font-size:12.80000019px;font-style:normal;font-variant:normal;font-weight:normal;font-stretch:normal;text-align:start;line-height:125%;writing-mode:lr-tb;text-anchor:start;font-family:Liberation Serif;-inkscape-font-specification:Liberation Serif">dist. = 10cm</tspan></text>
      <text
         xml:space="preserve"
         style="font-size:32px;font-style:normal;font-weight:normal;line-height:125%;letter-spacing:0px;word-spacing:0px;fill:#000000;fill-opacity:1;stroke:none;font-family:Sans"
         x="705.78186"
         y="296.57483"
         id="text4290-9"
         sodipodi:linespacing="125%"><tspan
           sodipodi:role="line"
           id="tspan4292-3"
           x="705.78186"
           y="296.57483"
           style="font-size:12.80000019px;font-style:normal;font-variant:normal;font-weight:normal;font-stretch:normal;text-align:start;line-height:125%;writing-mode:lr-tb;text-anchor:start;font-family:Liberation Serif;-inkscape-font-specification:Liberation Serif">dist. = 15cm</tspan></text>
      <text
         xml:space="preserve"
         style="font-size:32px;font-style:normal;font-weight:normal;line-height:125%;letter-spacing:0px;word-spacing:0px;fill:#000000;fill-opacity:1;stroke:none;font-family:Sans"
         x="705.78186"
         y="323.14828"
         id="text4290-4"
         sodipodi:linespacing="125%"><tspan
           sodipodi:role="line"
           id="tspan4292-31"
           x="705.78186"
           y="323.14828"
           style="font-size:12.80000019px;font-style:normal;font-variant:normal;font-weight:normal;font-stretch:normal;text-align:start;line-height:125%;writing-mode:lr-tb;text-anchor:start;font-family:Liberation Serif;-inkscape-font-specification:Liberation Serif">dist. = 20cm</tspan></text>
    </g>
  </g>
</svg>
