<?xml version="1.0" standalone="no"?>
<!DOCTYPE svg PUBLIC "-//W3C//DTD SVG 1.1//EN"
  "http://www.w3.org/Graphics/SVG/1.1/DTD/svg11.dtd">
<!-- Created with matplotlib (http://matplotlib.sourceforge.net/) -->
<svg width="921pt" height="593pt" viewBox="0 0 921 593"
   xmlns="http://www.w3.org/2000/svg"
   xmlns:xlink="http://www.w3.org/1999/xlink"
   version="1.1"
   id="svg1">
<g id="figure1">
<g id="patch1">
<path style="fill: #ffffff; stroke: #ffffff; stroke-width: 1.000000; stroke-linejoin: round; stroke-linecap: square;  opacity: 1.000000"  d="M0.000000 593.100000L921.600000 593.100000L921.600000 0.000000
L0.000000 0.000000L0.000000 593.100000"/>
</g>
<g id="axes1">
<g id="patch2">
<path style="fill: #ffffff; opacity: 1.000000"  d="M115.200000 533.790000L829.440000 533.790000L829.440000 59.310000
L115.200000 59.310000L115.200000 533.790000"/>
</g>
<g id="line2d1">
<defs>
  <clipPath id="p7925595e59115e0f26db4807d9e1425e">
<rect x="115.200000" y="59.310000" width="714.240000" height="474.480000"/>
  </clipPath>
</defs><path style="fill: none; stroke: #0000ff; stroke-width: 1.000000; stroke-linejoin: round; stroke-linecap: square;  opacity: 1.000000" clip-path="url(#p7925595e59115e0f26db4807d9e1425e)" d="M115.200000 525.051890L119.664000 514.610627L124.128000 504.582703
L128.592000 494.951071L133.056000 485.699204L137.520000 476.811722
L141.984000 467.587364L146.448000 458.737856L150.912000 450.248062
L155.376000 442.103763L159.840000 432.806010L164.304000 423.914143
L168.768000 415.412158L173.232000 407.283483L177.696000 399.512181
L182.160000 392.084400L186.624000 384.987378L191.088000 377.909177
L195.552000 371.153946L200.016000 363.596850L204.480000 356.407032
L208.944000 349.569281L213.408000 342.299898L217.872000 335.605148
L222.336000 328.521656L226.800000 322.035248L231.264000 315.902349
L235.728000 309.483815L240.192000 302.854678L244.656000 296.236458
L249.120000 289.782342L253.584000 283.738221L258.048000 278.088592
L262.512000 271.750701L266.976000 265.625882L271.440000 259.716161
L275.904000 254.010075L280.368000 248.436158L284.832000 242.868997
L289.296000 237.776263L293.760000 232.905503L298.224000 227.633410
L302.688000 222.601162L307.152000 217.709874L311.616000 213.003847
L316.080000 208.106408L320.544000 203.291326L325.008000 198.789676
L329.472000 194.897859L333.936000 191.589336L338.400000 187.623877
L342.864000 184.026803L347.328000 181.087863L351.792000 178.172916
L356.256000 175.365959L360.720000 173.250651L365.184000 170.773124
L369.648000 168.664787L374.112000 166.819765L378.576000 165.356086
L383.040000 164.201734L387.504000 163.833909L391.968000 163.439908
L396.432000 162.237528L400.896000 162.002686L405.360000 162.668187
L409.824000 163.673500L414.288000 164.520950L418.752000 165.682010
L423.216000 167.809430L427.680000 169.684282L432.144000 172.561703
L436.608000 175.498280L441.072000 178.793391L445.536000 182.624225
L450.000000 186.965271L454.464000 192.263709L458.928000 197.313693
L463.392000 202.622169L467.856000 208.160338L472.320000 220.598503
L476.784000 232.877749L481.248000 244.417980L485.712000 254.766801
L490.176000 265.130699L494.640000 275.239105L499.104000 285.627046
L503.568000 295.826858L508.032000 304.909367L512.496000 313.989257
L516.960000 322.826110L521.424000 331.106320L525.888000 339.533417
L530.352000 347.236068L534.816000 353.933329L539.280000 361.692550
L543.744000 368.972610L548.208000 376.249592L552.672000 383.052478
L557.136000 390.297798L561.600000 397.613879L566.064000 408.454976
L570.528000 416.864315L574.992000 423.687646L579.456000 433.163193
L583.920000 443.600909L588.384000 453.559981L592.848000 462.631056
L597.312000 470.752055L601.776000 477.974449L606.240000 484.379416
L610.704000 490.053561L615.168000 495.077881L619.632000 499.526875
L624.096000 503.464751L628.560000 506.950327"/>
</g>
<g id="line2d2">
<path style="fill: none; stroke: #008000; stroke-width: 1.000000; stroke-linejoin: round; stroke-linecap: square;  opacity: 1.000000" clip-path="url(#p7925595e59115e0f26db4807d9e1425e)" d="M115.200000 524.778530L119.664000 514.323067L124.128000 504.490650
L128.592000 495.031383L133.056000 485.478242L137.520000 476.294447
L141.984000 467.464477L146.448000 458.368804L150.912000 449.633573
L155.376000 441.243654L159.840000 433.185462L164.304000 424.723469
L168.768000 416.608305L173.232000 408.826687L177.696000 401.087032
L182.160000 393.670925L186.624000 385.276742L191.088000 377.257231
L195.552000 369.281370L200.016000 361.411579L204.480000 353.906950
L208.944000 346.753699L213.408000 339.299983L217.872000 332.208969
L222.336000 325.468235L226.800000 319.062944L231.264000 312.072264
L235.728000 305.450672L240.192000 298.947293L244.656000 292.801370
L249.120000 286.217345L253.584000 280.016577L258.048000 273.726881
L262.512000 267.370603L266.976000 261.109238L271.440000 255.258879
L275.904000 249.395701L280.368000 243.943747L284.832000 238.016498
L289.296000 232.040314L293.760000 226.278664L298.224000 220.742093
L302.688000 215.678385L307.152000 210.337645L311.616000 205.494453
L316.080000 200.645237L320.544000 196.052537L325.008000 191.473830
L329.472000 187.422332L333.936000 183.011278L338.400000 179.165195
L342.864000 175.199425L347.328000 171.816048L351.792000 168.542378
L356.256000 165.445552L360.720000 162.593647L365.184000 159.913555
L369.648000 156.844606L374.112000 154.477860L378.576000 152.259220
L383.040000 150.232111L387.504000 148.920915L391.968000 147.517548
L396.432000 145.808530L400.896000 144.923470L405.360000 144.475086
L409.824000 144.394579L414.288000 144.143514L418.752000 144.186494
L423.216000 145.109661L427.680000 146.328972L432.144000 147.898648
L436.608000 149.741959L441.072000 152.452503L445.536000 154.727979
L450.000000 157.936715L454.464000 160.902865L458.928000 164.584879
L463.392000 169.175900L467.856000 173.997336L472.320000 178.829584
L476.784000 184.059374L481.248000 189.442823L485.712000 195.537626
L490.176000 202.170184L494.640000 209.039516L499.104000 216.290861
L503.568000 231.272551L508.032000 245.159053L512.496000 257.423898
L516.960000 270.154082L521.424000 282.078087L525.888000 292.948784
L530.352000 303.069880L534.816000 312.462341L539.280000 320.959346
L543.744000 329.418679L548.208000 337.848747L552.672000 345.728092
L557.136000 353.798179L561.600000 361.143888L566.064000 367.624043
L570.528000 375.924967L574.992000 382.631283L579.456000 389.347864
L583.920000 396.327157L588.384000 402.761442L592.848000 409.817936
L597.312000 419.832701L601.776000 428.257420L606.240000 434.454122
L610.704000 443.002067L615.168000 452.391506L619.632000 461.349969
L624.096000 469.513957L628.560000 476.825976L633.024000 483.331348
L637.488000 489.103712L641.952000 494.220870L646.416000 498.753446
L650.880000 502.767739L655.344000 506.322754"/>
</g>
<g id="line2d3">
<path style="fill: none; stroke: #ff0000; stroke-width: 1.000000; stroke-linejoin: round; stroke-linecap: square;  opacity: 1.000000" clip-path="url(#p7925595e59115e0f26db4807d9e1425e)" d="M115.200000 523.108370L119.664000 512.825238L124.128000 502.924818
L133.056000 483.162984L141.984000 463.879407L150.912000 445.511020
L164.304000 420.044617L173.232000 403.800122L200.016000 357.472436
L213.408000 335.423050L217.872000 328.604739L226.800000 314.076914
L235.728000 301.164497L249.120000 282.916761L275.904000 245.833623
L293.760000 223.317205L325.008000 186.986019L342.864000 168.259327
L360.720000 153.322725L374.112000 143.852297L383.040000 139.370369
L400.896000 131.450626L414.288000 128.495018L418.752000 127.869640
L427.680000 128.109625L432.144000 128.986636L436.608000 129.423527
L441.072000 130.708251L454.464000 136.935798L458.928000 140.113215
L463.392000 142.870665L472.320000 150.312962L476.784000 154.452182
L485.712000 163.901638L494.640000 174.886301L508.032000 194.184359
L521.424000 215.897863L530.352000 231.927279L534.816000 248.108626
L543.744000 276.889511L552.672000 301.781093L561.600000 323.173394
L566.064000 332.100570L583.920000 364.217215L588.384000 371.727719
L597.312000 385.013431L601.776000 391.245633L606.240000 398.883329
L619.632000 414.747316L624.096000 420.409878L633.024000 436.497240
L637.488000 442.626009L646.416000 459.461378L650.880000 467.708622
L655.344000 475.198779L659.808000 481.896092L664.272000 487.848717
L668.736000 493.126781L673.200000 497.802217L677.664000 501.942747
L682.128000 505.607643L682.128000 505.607643"/>
</g>
<g id="line2d4">
<path style="fill: none; stroke: #00bfbf; stroke-width: 1.000000; stroke-linejoin: round; stroke-linecap: square;  opacity: 1.000000" clip-path="url(#p7925595e59115e0f26db4807d9e1425e)" d="M115.200000 523.262935L119.664000 513.115792L124.128000 503.333856
L150.912000 446.098893L168.768000 411.638570L177.696000 395.083125
L182.160000 387.294324L191.088000 370.348784L200.016000 354.795802
L208.944000 340.528623L217.872000 326.614529L226.800000 312.312353
L253.584000 272.611140L266.976000 254.085529L298.224000 213.638927
L311.616000 198.041542L320.544000 187.141861L338.400000 167.930653
L342.864000 163.949467L360.720000 146.471626L374.112000 135.094198
L378.576000 131.750613L383.040000 128.988201L387.504000 125.681072
L391.968000 123.016255L405.360000 116.835165L409.824000 115.203717
L423.216000 111.405153L427.680000 110.919124L441.072000 111.784141
L454.464000 115.232416L458.928000 117.157704L467.856000 121.948882
L481.248000 131.381380L485.712000 135.327839L494.640000 144.825407
L508.032000 161.626966L521.424000 181.445235L530.352000 195.343879
L539.280000 210.559705L552.672000 234.742686L566.064000 260.282916
L574.992000 293.281271L579.456000 307.549288L583.920000 320.479893
L592.848000 341.599225L601.776000 359.314196L610.704000 374.110237
L628.560000 399.324194L637.488000 411.626534L650.880000 426.443587
L655.344000 431.272519L659.808000 438.766840L664.272000 444.796385
L668.736000 449.966673L673.200000 457.185609L682.128000 472.671913
L686.592000 479.558662L691.056000 485.725907L695.520000 491.213129
L699.984000 496.082471L704.448000 500.399574L708.912000 504.223968
L708.912000 504.223968"/>
</g>
<g id="line2d5">
<path style="fill: none; stroke: #bf00bf; stroke-width: 1.000000; stroke-linejoin: round; stroke-linecap: square;  opacity: 1.000000" clip-path="url(#p7925595e59115e0f26db4807d9e1425e)" d="M115.200000 523.167513L137.520000 472.664213L146.448000 453.895385
L168.768000 410.108252L191.088000 370.161246L217.872000 325.999413
L226.800000 312.445516L231.264000 306.103464L240.192000 291.855215
L249.120000 278.897900L266.976000 255.342492L271.440000 249.890041
L307.152000 201.755193L316.080000 191.372284L329.472000 176.166452
L338.400000 166.693667L369.648000 136.806333L383.040000 125.719867
L387.504000 121.988236L400.896000 112.698584L405.360000 110.160922
L418.752000 104.106365L427.680000 101.485421L432.144000 100.889377
L436.608000 99.528973L441.072000 98.878966L450.000000 98.991920
L458.928000 100.189475L463.392000 101.073134L472.320000 104.516178
L485.712000 112.053297L494.640000 118.818562L499.104000 122.505148
L508.032000 131.607399L512.496000 136.136023L521.424000 146.736069
L525.888000 152.751495L534.816000 165.487872L539.280000 171.854350
L548.208000 186.314839L557.136000 201.143207L579.456000 241.923884
L597.312000 276.119734L601.776000 284.999445L606.240000 302.200061
L610.704000 317.064042L615.168000 330.209639L619.632000 342.222021
L628.560000 362.405896L633.024000 371.187171L637.488000 378.618692
L646.416000 392.030222L650.880000 397.894203L655.344000 403.029518
L659.808000 408.769642L664.272000 415.059312L668.736000 419.940499
L673.200000 425.668931L677.664000 429.639998L691.056000 443.345463
L695.520000 450.407784L699.984000 456.070852L704.448000 460.647561
L717.840000 481.107607L722.304000 487.058495L726.768000 492.374463
L731.232000 497.100812L735.696000 501.293282L740.160000 505.009439
L740.160000 505.009439"/>
</g>
<g id="line2d6">
<path style="fill: none; stroke: #bfbf00; stroke-width: 1.000000; stroke-linejoin: round; stroke-linecap: square;  opacity: 1.000000" clip-path="url(#p7925595e59115e0f26db4807d9e1425e)" d="M115.200000 522.985868L133.056000 482.092941L146.448000 453.673973
L155.376000 435.641019L168.768000 409.927130L195.552000 360.258054
L217.872000 324.253921L231.264000 303.809777L235.728000 297.565263
L249.120000 277.529716L258.048000 265.228921L266.976000 253.260349
L275.904000 241.679272L284.832000 230.811052L302.688000 207.140044
L316.080000 190.941174L325.008000 180.588571L329.472000 175.936663
L342.864000 160.134432L356.256000 145.493606L374.112000 128.499406
L383.040000 121.098374L396.432000 109.759375L409.824000 100.726939
L418.752000 95.695469L427.680000 91.256064L436.608000 88.226791
L441.072000 86.758147L445.536000 85.922216L458.928000 85.349082
L463.392000 85.786109L476.784000 88.944825L485.712000 92.544249
L490.176000 94.922834L499.104000 100.986779L508.032000 107.975930
L516.960000 116.262921L530.352000 130.978871L534.816000 136.332810
L543.744000 148.304152L557.136000 168.055031L570.528000 189.905059
L597.312000 237.140477L637.488000 312.048781L641.952000 328.069997
L646.416000 341.679327L650.880000 353.764469L655.344000 364.529508
L659.808000 373.943373L664.272000 382.482473L668.736000 390.110488
L673.200000 396.941696L682.128000 408.554558L695.520000 423.300105
L704.448000 432.341778L708.912000 436.820569L722.304000 448.926441
L726.768000 453.127117L731.232000 459.972699L735.696000 465.056783
L740.160000 469.363759L749.088000 481.004113L758.016000 492.088963
L762.480000 496.824047L766.944000 501.037462L771.408000 504.777128
L771.408000 504.777128"/>
</g>
<g id="line2d7">
<path style="fill: none; stroke: #000000; stroke-width: 1.000000; stroke-linejoin: round; stroke-linecap: square;  opacity: 1.000000" clip-path="url(#p7925595e59115e0f26db4807d9e1425e)" d="M115.200000 522.902560L119.664000 512.389925L124.128000 502.237493
L150.912000 444.030331L159.840000 425.733496L168.768000 407.897236
L177.696000 391.341816L195.552000 360.609001L204.480000 345.551741
L231.264000 303.405781L240.192000 290.262614L249.120000 275.695176
L258.048000 262.387598L266.976000 250.249752L311.616000 194.080075
L338.400000 161.695123L347.328000 151.947891L351.792000 147.613250
L360.720000 137.857791L378.576000 120.998415L396.432000 105.835812
L409.824000 96.716772L418.752000 91.792957L423.216000 89.079814
L432.144000 84.879616L445.536000 79.406241L454.464000 76.743602
L458.928000 76.152896L463.392000 76.116164L467.856000 75.641383
L472.320000 75.773337L485.712000 78.200958L494.640000 81.262302
L503.568000 85.657757L508.032000 88.392426L512.496000 91.675410
L516.960000 94.533268L521.424000 97.992636L525.888000 102.009274
L534.816000 111.105958L548.208000 126.510789L557.136000 137.913255
L570.528000 156.857094L583.920000 177.504599L601.776000 207.420977
L619.632000 239.135096L628.560000 255.404262L637.488000 271.908482
L659.808000 311.845990L668.736000 327.621177L673.200000 342.259572
L677.664000 355.507105L682.128000 366.414245L686.592000 375.901172
L695.520000 392.339838L699.984000 398.898715L704.448000 404.829330
L713.376000 414.944549L731.232000 433.396696L740.160000 441.394289
L744.624000 445.866814L749.088000 449.531352L753.552000 452.760300
L758.016000 456.578696L762.480000 461.396226L766.944000 467.113390
L771.408000 470.899414L775.872000 475.227718L793.728000 496.291045
L798.192000 500.587875L802.656000 504.404971L802.656000 504.404971"/>
</g>
<g id="line2d8">
</g>
<g id="line2d9">
</g>
<g id="matplotlib.axis1">
<g id="xtick1">
<g id="line2d10">
<defs><path id="m30e32995789d870ad79a2e54c91cf9c6" d="M0.000000 0.000000L0.000000 -4.000000"/></defs>
<g ><use style="fill: none; stroke: #000000; stroke-width: 0.500000; stroke-linejoin: round; stroke-linecap: butt;  opacity: 1.000000" xlink:href="#m30e32995789d870ad79a2e54c91cf9c6" x="115.200000" y="533.790000"/>
</g></g>
<g id="line2d11">
<defs><path id="m9281cae24120827b11d5ea8a7ad3e96b" d="M0.000000 0.000000L0.000000 4.000000"/></defs>
<g ><use style="fill: none; stroke: #000000; stroke-width: 0.500000; stroke-linejoin: round; stroke-linecap: butt;  opacity: 1.000000" xlink:href="#m9281cae24120827b11d5ea8a7ad3e96b" x="115.200000" y="59.310000"/>
</g></g>
<g id="text1">
<defs>
<path id="c_7a2040fe3b94fcd41d0a72c84e93b115" d="M31.781250 -66.406250q-7.609375 0.000000 -11.453125 7.500000q-3.828125 7.484375 -3.828125 22.531250q0.000000 14.984375 3.828125 22.484375q3.843750 7.500000 11.453125 7.500000q7.671875 0.000000 11.500000 -7.500000q3.843750 -7.500000 3.843750 -22.484375q0.000000 -15.046875 -3.843750 -22.531250q-3.828125 -7.500000 -11.500000 -7.500000M31.781250 -74.218750q12.265625 0.000000 18.734375 9.703125q6.468750 9.687500 6.468750 28.140625q0.000000 18.406250 -6.468750 28.109375q-6.468750 9.687500 -18.734375 9.687500q-12.250000 0.000000 -18.718750 -9.687500q-6.468750 -9.703125 -6.468750 -28.109375q0.000000 -18.453125 6.468750 -28.140625q6.468750 -9.703125 18.718750 -9.703125"/>
</defs>
<g style="fill: #000000; opacity: 1.000000" transform="translate(112.176563,546.696250)scale(0.120000)">
<use xlink:href="#c_7a2040fe3b94fcd41d0a72c84e93b115"/>
</g>
</g>
</g>
<g id="xtick2">
<g id="line2d12">
<g ><use style="fill: none; stroke: #000000; stroke-width: 0.500000; stroke-linejoin: round; stroke-linecap: butt;  opacity: 1.000000" xlink:href="#m30e32995789d870ad79a2e54c91cf9c6" x="204.480000" y="533.790000"/>
</g></g>
<g id="line2d13">
<g ><use style="fill: none; stroke: #000000; stroke-width: 0.500000; stroke-linejoin: round; stroke-linecap: butt;  opacity: 1.000000" xlink:href="#m9281cae24120827b11d5ea8a7ad3e96b" x="204.480000" y="59.310000"/>
</g></g>
<g id="text2">
<defs>
<path id="c_ed3f3ed3ebfbd18bcb9c012009a68ad1" d="M19.187500 -8.296875l34.421875 0.000000l0.000000 8.296875l-46.281250 0.000000l0.000000 -8.296875q5.609375 -5.812500 15.296875 -15.593750q9.703125 -9.796875 12.187500 -12.640625q4.734375 -5.312500 6.609375 -9.000000q1.890625 -3.687500 1.890625 -7.250000q0.000000 -5.812500 -4.078125 -9.468750q-4.078125 -3.671875 -10.625000 -3.671875q-4.640625 0.000000 -9.796875 1.609375q-5.140625 1.609375 -11.000000 4.890625l0.000000 -9.968750q5.953125 -2.390625 11.125000 -3.609375q5.187500 -1.218750 9.484375 -1.218750q11.328125 0.000000 18.062500 5.671875q6.734375 5.656250 6.734375 15.125000q0.000000 4.500000 -1.687500 8.531250q-1.671875 4.015625 -6.125000 9.484375q-1.218750 1.421875 -7.765625 8.187500q-6.531250 6.765625 -18.453125 18.921875"/>
</defs>
<g style="fill: #000000; opacity: 1.000000" transform="translate(197.675313,546.696250)scale(0.120000)">
<use xlink:href="#c_ed3f3ed3ebfbd18bcb9c012009a68ad1"/>
<use xlink:href="#c_7a2040fe3b94fcd41d0a72c84e93b115" x="63.623047"/>
</g>
</g>
</g>
<g id="xtick3">
<g id="line2d14">
<g ><use style="fill: none; stroke: #000000; stroke-width: 0.500000; stroke-linejoin: round; stroke-linecap: butt;  opacity: 1.000000" xlink:href="#m30e32995789d870ad79a2e54c91cf9c6" x="293.760000" y="533.790000"/>
</g></g>
<g id="line2d15">
<g ><use style="fill: none; stroke: #000000; stroke-width: 0.500000; stroke-linejoin: round; stroke-linecap: butt;  opacity: 1.000000" xlink:href="#m9281cae24120827b11d5ea8a7ad3e96b" x="293.760000" y="59.310000"/>
</g></g>
<g id="text3">
<defs>
<path id="c_a0416418d96557a09b8c1332d34883ba" d="M37.796875 -64.312500l-24.906250 38.921875l24.906250 0.000000zM35.203125 -72.906250l12.406250 0.000000l0.000000 47.515625l10.406250 0.000000l0.000000 8.203125l-10.406250 0.000000l0.000000 17.187500l-9.812500 0.000000l0.000000 -17.187500l-32.906250 0.000000l0.000000 -9.515625z"/>
</defs>
<g style="fill: #000000; opacity: 1.000000" transform="translate(286.814687,546.696250)scale(0.120000)">
<use xlink:href="#c_a0416418d96557a09b8c1332d34883ba"/>
<use xlink:href="#c_7a2040fe3b94fcd41d0a72c84e93b115" x="63.623047"/>
</g>
</g>
</g>
<g id="xtick4">
<g id="line2d16">
<g ><use style="fill: none; stroke: #000000; stroke-width: 0.500000; stroke-linejoin: round; stroke-linecap: butt;  opacity: 1.000000" xlink:href="#m30e32995789d870ad79a2e54c91cf9c6" x="383.040000" y="533.790000"/>
</g></g>
<g id="line2d17">
<g ><use style="fill: none; stroke: #000000; stroke-width: 0.500000; stroke-linejoin: round; stroke-linecap: butt;  opacity: 1.000000" xlink:href="#m9281cae24120827b11d5ea8a7ad3e96b" x="383.040000" y="59.310000"/>
</g></g>
<g id="text4">
<defs>
<path id="c_cc8d6d580d1b10c8632f7a42cd53db8a" d="M33.015625 -40.375000q-6.640625 0.000000 -10.531250 4.546875q-3.875000 4.531250 -3.875000 12.437500q0.000000 7.859375 3.875000 12.437500q3.890625 4.562500 10.531250 4.562500q6.640625 0.000000 10.515625 -4.562500q3.875000 -4.578125 3.875000 -12.437500q0.000000 -7.906250 -3.875000 -12.437500q-3.875000 -4.546875 -10.515625 -4.546875M52.593750 -71.296875l0.000000 8.984375q-3.718750 -1.750000 -7.500000 -2.671875q-3.781250 -0.937500 -7.500000 -0.937500q-9.765625 0.000000 -14.921875 6.593750q-5.140625 6.593750 -5.875000 19.921875q2.875000 -4.250000 7.218750 -6.515625q4.359375 -2.265625 9.578125 -2.265625q10.984375 0.000000 17.359375 6.671875q6.375000 6.656250 6.375000 18.125000q0.000000 11.234375 -6.640625 18.031250q-6.640625 6.781250 -17.671875 6.781250q-12.656250 0.000000 -19.343750 -9.687500q-6.687500 -9.703125 -6.687500 -28.109375q0.000000 -17.281250 8.203125 -27.562500q8.203125 -10.281250 22.015625 -10.281250q3.718750 0.000000 7.500000 0.734375q3.781250 0.734375 7.890625 2.187500"/>
</defs>
<g style="fill: #000000; opacity: 1.000000" transform="translate(376.219688,546.696250)scale(0.120000)">
<use xlink:href="#c_cc8d6d580d1b10c8632f7a42cd53db8a"/>
<use xlink:href="#c_7a2040fe3b94fcd41d0a72c84e93b115" x="63.623047"/>
</g>
</g>
</g>
<g id="xtick5">
<g id="line2d18">
<g ><use style="fill: none; stroke: #000000; stroke-width: 0.500000; stroke-linejoin: round; stroke-linecap: butt;  opacity: 1.000000" xlink:href="#m30e32995789d870ad79a2e54c91cf9c6" x="472.320000" y="533.790000"/>
</g></g>
<g id="line2d19">
<g ><use style="fill: none; stroke: #000000; stroke-width: 0.500000; stroke-linejoin: round; stroke-linecap: butt;  opacity: 1.000000" xlink:href="#m9281cae24120827b11d5ea8a7ad3e96b" x="472.320000" y="59.310000"/>
</g></g>
<g id="text5">
<defs>
<path id="c_bef35738d52871942e50b9de9b122bab" d="M31.781250 -34.625000q-7.031250 0.000000 -11.062500 3.765625q-4.015625 3.765625 -4.015625 10.343750q0.000000 6.593750 4.015625 10.359375q4.031250 3.765625 11.062500 3.765625q7.031250 0.000000 11.078125 -3.781250q4.062500 -3.796875 4.062500 -10.343750q0.000000 -6.578125 -4.031250 -10.343750q-4.015625 -3.765625 -11.109375 -3.765625M21.921875 -38.812500q-6.343750 -1.562500 -9.890625 -5.906250q-3.531250 -4.359375 -3.531250 -10.609375q0.000000 -8.734375 6.218750 -13.812500q6.234375 -5.078125 17.062500 -5.078125q10.890625 0.000000 17.093750 5.078125q6.203125 5.078125 6.203125 13.812500q0.000000 6.250000 -3.546875 10.609375q-3.531250 4.343750 -9.828125 5.906250q7.125000 1.656250 11.093750 6.500000q3.984375 4.828125 3.984375 11.796875q0.000000 10.609375 -6.468750 16.281250q-6.468750 5.656250 -18.531250 5.656250q-12.046875 0.000000 -18.531250 -5.656250q-6.468750 -5.671875 -6.468750 -16.281250q0.000000 -6.968750 4.000000 -11.796875q4.015625 -4.843750 11.140625 -6.500000M18.312500 -54.390625q0.000000 5.656250 3.531250 8.828125q3.546875 3.171875 9.937500 3.171875q6.359375 0.000000 9.937500 -3.171875q3.593750 -3.171875 3.593750 -8.828125q0.000000 -5.671875 -3.593750 -8.843750q-3.578125 -3.171875 -9.937500 -3.171875q-6.390625 0.000000 -9.937500 3.171875q-3.531250 3.171875 -3.531250 8.843750"/>
</defs>
<g style="fill: #000000; opacity: 1.000000" transform="translate(465.484062,546.696250)scale(0.120000)">
<use xlink:href="#c_bef35738d52871942e50b9de9b122bab"/>
<use xlink:href="#c_7a2040fe3b94fcd41d0a72c84e93b115" x="63.623047"/>
</g>
</g>
</g>
<g id="xtick6">
<g id="line2d20">
<g ><use style="fill: none; stroke: #000000; stroke-width: 0.500000; stroke-linejoin: round; stroke-linecap: butt;  opacity: 1.000000" xlink:href="#m30e32995789d870ad79a2e54c91cf9c6" x="561.600000" y="533.790000"/>
</g></g>
<g id="line2d21">
<g ><use style="fill: none; stroke: #000000; stroke-width: 0.500000; stroke-linejoin: round; stroke-linecap: butt;  opacity: 1.000000" xlink:href="#m9281cae24120827b11d5ea8a7ad3e96b" x="561.600000" y="59.310000"/>
</g></g>
<g id="text6">
<defs>
<path id="c_42baa63129a918535c52adb20d687ea7" d="M12.406250 -8.296875l16.109375 0.000000l0.000000 -55.625000l-17.531250 3.515625l0.000000 -8.984375l17.437500 -3.515625l9.859375 0.000000l0.000000 64.609375l16.109375 0.000000l0.000000 8.296875l-41.984375 0.000000z"/>
</defs>
<g style="fill: #000000; opacity: 1.000000" transform="translate(551.193750,546.696250)scale(0.120000)">
<use xlink:href="#c_42baa63129a918535c52adb20d687ea7"/>
<use xlink:href="#c_7a2040fe3b94fcd41d0a72c84e93b115" x="63.623047"/>
<use xlink:href="#c_7a2040fe3b94fcd41d0a72c84e93b115" x="127.246094"/>
</g>
</g>
</g>
<g id="xtick7">
<g id="line2d22">
<g ><use style="fill: none; stroke: #000000; stroke-width: 0.500000; stroke-linejoin: round; stroke-linecap: butt;  opacity: 1.000000" xlink:href="#m30e32995789d870ad79a2e54c91cf9c6" x="650.880000" y="533.790000"/>
</g></g>
<g id="line2d23">
<g ><use style="fill: none; stroke: #000000; stroke-width: 0.500000; stroke-linejoin: round; stroke-linecap: butt;  opacity: 1.000000" xlink:href="#m9281cae24120827b11d5ea8a7ad3e96b" x="650.880000" y="59.310000"/>
</g></g>
<g id="text7">
<g style="fill: #000000; opacity: 1.000000" transform="translate(640.473750,546.696250)scale(0.120000)">
<use xlink:href="#c_42baa63129a918535c52adb20d687ea7"/>
<use xlink:href="#c_ed3f3ed3ebfbd18bcb9c012009a68ad1" x="63.623047"/>
<use xlink:href="#c_7a2040fe3b94fcd41d0a72c84e93b115" x="127.246094"/>
</g>
</g>
</g>
<g id="xtick8">
<g id="line2d24">
<g ><use style="fill: none; stroke: #000000; stroke-width: 0.500000; stroke-linejoin: round; stroke-linecap: butt;  opacity: 1.000000" xlink:href="#m30e32995789d870ad79a2e54c91cf9c6" x="740.160000" y="533.790000"/>
</g></g>
<g id="line2d25">
<g ><use style="fill: none; stroke: #000000; stroke-width: 0.500000; stroke-linejoin: round; stroke-linecap: butt;  opacity: 1.000000" xlink:href="#m9281cae24120827b11d5ea8a7ad3e96b" x="740.160000" y="59.310000"/>
</g></g>
<g id="text8">
<g style="fill: #000000; opacity: 1.000000" transform="translate(729.753750,546.696250)scale(0.120000)">
<use xlink:href="#c_42baa63129a918535c52adb20d687ea7"/>
<use xlink:href="#c_a0416418d96557a09b8c1332d34883ba" x="63.623047"/>
<use xlink:href="#c_7a2040fe3b94fcd41d0a72c84e93b115" x="127.246094"/>
</g>
</g>
</g>
<g id="xtick9">
<g id="line2d26">
<g ><use style="fill: none; stroke: #000000; stroke-width: 0.500000; stroke-linejoin: round; stroke-linecap: butt;  opacity: 1.000000" xlink:href="#m30e32995789d870ad79a2e54c91cf9c6" x="829.440000" y="533.790000"/>
</g></g>
<g id="line2d27">
<g ><use style="fill: none; stroke: #000000; stroke-width: 0.500000; stroke-linejoin: round; stroke-linecap: butt;  opacity: 1.000000" xlink:href="#m9281cae24120827b11d5ea8a7ad3e96b" x="829.440000" y="59.310000"/>
</g></g>
<g id="text9">
<g style="fill: #000000; opacity: 1.000000" transform="translate(819.033750,546.696250)scale(0.120000)">
<use xlink:href="#c_42baa63129a918535c52adb20d687ea7"/>
<use xlink:href="#c_cc8d6d580d1b10c8632f7a42cd53db8a" x="63.623047"/>
<use xlink:href="#c_7a2040fe3b94fcd41d0a72c84e93b115" x="127.246094"/>
</g>
</g>
</g>
<g id="text10">
<defs>
<path id="c_9e4b30cbdf32072672ded72e9074c4c9" d="M-0.296875 -72.906250l61.671875 0.000000l0.000000 8.312500l-25.875000 0.000000l0.000000 64.593750l-9.906250 0.000000l0.000000 -64.593750l-25.890625 0.000000z"/>
<path id="c_0bce5afba2dc6b9024b26277c38ad8e8" d="M56.203125 -29.593750l0.000000 4.390625l-41.312500 0.000000q0.593750 9.281250 5.593750 14.140625q5.000000 4.859375 13.937500 4.859375q5.171875 0.000000 10.031250 -1.265625q4.859375 -1.265625 9.656250 -3.812500l0.000000 8.500000q-4.843750 2.046875 -9.921875 3.125000q-5.078125 1.078125 -10.296875 1.078125q-13.093750 0.000000 -20.734375 -7.609375q-7.640625 -7.625000 -7.640625 -20.625000q0.000000 -13.421875 7.250000 -21.296875q7.250000 -7.890625 19.562500 -7.890625q11.031250 0.000000 17.453125 7.109375q6.421875 7.093750 6.421875 19.296875M47.218750 -32.234375q-0.093750 -7.359375 -4.125000 -11.750000q-4.031250 -4.406250 -10.671875 -4.406250q-7.515625 0.000000 -12.031250 4.250000q-4.515625 4.250000 -5.203125 11.968750z"/>
<path id="c_4653c6dfde66c7610eae0911760d3490" d="M52.000000 -44.187500q3.375000 -6.062500 8.062500 -8.937500q4.687500 -2.875000 11.031250 -2.875000q8.546875 0.000000 13.187500 5.984375q4.640625 5.968750 4.640625 17.000000l0.000000 33.015625l-9.031250 0.000000l0.000000 -32.718750q0.000000 -7.859375 -2.796875 -11.656250q-2.781250 -3.812500 -8.484375 -3.812500q-6.984375 0.000000 -11.046875 4.640625q-4.046875 4.625000 -4.046875 12.640625l0.000000 30.906250l-9.031250 0.000000l0.000000 -32.718750q0.000000 -7.906250 -2.781250 -11.687500q-2.781250 -3.781250 -8.593750 -3.781250q-6.890625 0.000000 -10.953125 4.656250q-4.046875 4.656250 -4.046875 12.625000l0.000000 30.906250l-9.031250 0.000000l0.000000 -54.687500l9.031250 0.000000l0.000000 8.500000q3.078125 -5.031250 7.375000 -7.421875q4.296875 -2.390625 10.203125 -2.390625q5.968750 0.000000 10.140625 3.031250q4.171875 3.015625 6.171875 8.781250"/>
<path id="c_f15a64fcd463ef4629c48bab42cde24c" d="M18.109375 -8.203125l0.000000 29.000000l-9.031250 0.000000l0.000000 -75.484375l9.031250 0.000000l0.000000 8.296875q2.843750 -4.875000 7.156250 -7.234375q4.328125 -2.375000 10.328125 -2.375000q9.968750 0.000000 16.187500 7.906250q6.234375 7.906250 6.234375 20.796875q0.000000 12.890625 -6.234375 20.812500q-6.218750 7.906250 -16.187500 7.906250q-6.000000 0.000000 -10.328125 -2.375000q-4.312500 -2.375000 -7.156250 -7.250000M48.687500 -27.296875q0.000000 -9.906250 -4.078125 -15.546875q-4.078125 -5.640625 -11.203125 -5.640625q-7.140625 0.000000 -11.218750 5.640625q-4.078125 5.640625 -4.078125 15.546875q0.000000 9.906250 4.078125 15.546875q4.078125 5.640625 11.218750 5.640625q7.125000 0.000000 11.203125 -5.640625q4.078125 -5.640625 4.078125 -15.546875"/>
<path id="c_8e0810ad13fe20a2a87a2619799b154d" d="M44.281250 -53.078125l0.000000 8.500000q-3.796875 -1.953125 -7.906250 -2.921875q-4.093750 -0.984375 -8.500000 -0.984375q-6.687500 0.000000 -10.031250 2.046875q-3.343750 2.046875 -3.343750 6.156250q0.000000 3.125000 2.390625 4.906250q2.390625 1.781250 9.625000 3.390625l3.078125 0.687500q9.562500 2.046875 13.593750 5.781250q4.031250 3.734375 4.031250 10.421875q0.000000 7.625000 -6.031250 12.078125q-6.031250 4.437500 -16.578125 4.437500q-4.390625 0.000000 -9.156250 -0.859375q-4.765625 -0.859375 -10.031250 -2.562500l0.000000 -9.281250q4.984375 2.593750 9.812500 3.890625q4.828125 1.281250 9.578125 1.281250q6.343750 0.000000 9.750000 -2.171875q3.421875 -2.171875 3.421875 -6.125000q0.000000 -3.656250 -2.468750 -5.609375q-2.453125 -1.953125 -10.812500 -3.765625l-3.125000 -0.734375q-8.343750 -1.750000 -12.062500 -5.390625q-3.703125 -3.640625 -3.703125 -9.984375q0.000000 -7.718750 5.468750 -11.906250q5.468750 -4.203125 15.531250 -4.203125q4.968750 0.000000 9.359375 0.734375q4.406250 0.718750 8.109375 2.187500"/>
<path id="c_d41d8cd98f00b204e9800998ecf8427e" d=""/>
<path id="c_7efa9804c2b4c09a4b614b91fdebee3d" d="M31.000000 -75.875000q-6.531250 11.218750 -9.718750 22.218750q-3.171875 10.984375 -3.171875 22.265625q0.000000 11.265625 3.203125 22.328125q3.203125 11.062500 9.687500 22.250000l-7.812500 0.000000q-7.312500 -11.484375 -10.953125 -22.562500q-3.640625 -11.078125 -3.640625 -22.015625q0.000000 -10.890625 3.609375 -21.921875q3.625000 -11.046875 10.984375 -22.562500z"/>
<path id="c_e96974be642f6eac0427d72f9cec6c19" d="M8.015625 -75.875000l7.812500 0.000000q7.312500 11.515625 10.953125 22.562500q3.640625 11.031250 3.640625 21.921875q0.000000 10.937500 -3.640625 22.015625q-3.640625 11.078125 -10.953125 22.562500l-7.812500 0.000000q6.484375 -11.187500 9.687500 -22.250000q3.203125 -11.062500 3.203125 -22.328125q0.000000 -11.281250 -3.203125 -22.265625q-3.203125 -11.000000 -9.687500 -22.218750"/>
</defs>
<g style="fill: #000000; opacity: 1.000000" transform="translate(415.335625,567.040000)scale(0.200000)">
<use xlink:href="#c_9e4b30cbdf32072672ded72e9074c4c9"/>
<use xlink:href="#c_0bce5afba2dc6b9024b26277c38ad8e8" x="44.083984"/>
<use xlink:href="#c_4653c6dfde66c7610eae0911760d3490" x="105.607422"/>
<use xlink:href="#c_f15a64fcd463ef4629c48bab42cde24c" x="203.019531"/>
<use xlink:href="#c_8e0810ad13fe20a2a87a2619799b154d" x="266.496094"/>
<use xlink:href="#c_d41d8cd98f00b204e9800998ecf8427e" x="318.595703"/>
<use xlink:href="#c_7efa9804c2b4c09a4b614b91fdebee3d" x="350.382812"/>
<use xlink:href="#c_4653c6dfde66c7610eae0911760d3490" x="389.396484"/>
<use xlink:href="#c_8e0810ad13fe20a2a87a2619799b154d" x="486.808594"/>
<use xlink:href="#c_e96974be642f6eac0427d72f9cec6c19" x="538.908203"/>
</g>
</g>
</g>
<g id="matplotlib.axis2">
<g id="ytick1">
<g id="line2d28">
<defs><path id="m3400efa6b1638b3fea9e19e898273957" d="M0.000000 0.000000L4.000000 0.000000"/></defs>
<g ><use style="fill: none; stroke: #000000; stroke-width: 0.500000; stroke-linejoin: round; stroke-linecap: butt;  opacity: 1.000000" xlink:href="#m3400efa6b1638b3fea9e19e898273957" x="115.200000" y="533.790000"/>
</g></g>
<g id="line2d29">
<defs><path id="m20b58b2501143cb5e0a5e8f1ef6f1643" d="M0.000000 0.000000L-4.000000 0.000000"/></defs>
<g ><use style="fill: none; stroke: #000000; stroke-width: 0.500000; stroke-linejoin: round; stroke-linecap: butt;  opacity: 1.000000" xlink:href="#m20b58b2501143cb5e0a5e8f1ef6f1643" x="829.440000" y="533.790000"/>
</g></g>
<g id="text11">
<defs>
<path id="c_ed3e21196fb739f392806f09ca0594ef" d="M10.687500 -12.406250l10.312500 0.000000l0.000000 12.406250l-10.312500 0.000000z"/>
</defs>
<g style="fill: #000000; opacity: 1.000000" transform="translate(93.700000,538.157188)scale(0.120000)">
<use xlink:href="#c_7a2040fe3b94fcd41d0a72c84e93b115"/>
<use xlink:href="#c_ed3e21196fb739f392806f09ca0594ef" x="63.623047"/>
<use xlink:href="#c_7a2040fe3b94fcd41d0a72c84e93b115" x="95.410156"/>
</g>
</g>
</g>
<g id="ytick2">
<g id="line2d30">
<g ><use style="fill: none; stroke: #000000; stroke-width: 0.500000; stroke-linejoin: round; stroke-linecap: butt;  opacity: 1.000000" xlink:href="#m3400efa6b1638b3fea9e19e898273957" x="115.200000" y="481.070000"/>
</g></g>
<g id="line2d31">
<g ><use style="fill: none; stroke: #000000; stroke-width: 0.500000; stroke-linejoin: round; stroke-linecap: butt;  opacity: 1.000000" xlink:href="#m20b58b2501143cb5e0a5e8f1ef6f1643" x="829.440000" y="481.070000"/>
</g></g>
<g id="text12">
<g style="fill: #000000; opacity: 1.000000" transform="translate(94.012500,485.437188)scale(0.120000)">
<use xlink:href="#c_7a2040fe3b94fcd41d0a72c84e93b115"/>
<use xlink:href="#c_ed3e21196fb739f392806f09ca0594ef" x="63.623047"/>
<use xlink:href="#c_42baa63129a918535c52adb20d687ea7" x="95.410156"/>
</g>
</g>
</g>
<g id="ytick3">
<g id="line2d32">
<g ><use style="fill: none; stroke: #000000; stroke-width: 0.500000; stroke-linejoin: round; stroke-linecap: butt;  opacity: 1.000000" xlink:href="#m3400efa6b1638b3fea9e19e898273957" x="115.200000" y="428.350000"/>
</g></g>
<g id="line2d33">
<g ><use style="fill: none; stroke: #000000; stroke-width: 0.500000; stroke-linejoin: round; stroke-linecap: butt;  opacity: 1.000000" xlink:href="#m20b58b2501143cb5e0a5e8f1ef6f1643" x="829.440000" y="428.350000"/>
</g></g>
<g id="text13">
<g style="fill: #000000; opacity: 1.000000" transform="translate(94.106250,432.717188)scale(0.120000)">
<use xlink:href="#c_7a2040fe3b94fcd41d0a72c84e93b115"/>
<use xlink:href="#c_ed3e21196fb739f392806f09ca0594ef" x="63.623047"/>
<use xlink:href="#c_ed3f3ed3ebfbd18bcb9c012009a68ad1" x="95.410156"/>
</g>
</g>
</g>
<g id="ytick4">
<g id="line2d34">
<g ><use style="fill: none; stroke: #000000; stroke-width: 0.500000; stroke-linejoin: round; stroke-linecap: butt;  opacity: 1.000000" xlink:href="#m3400efa6b1638b3fea9e19e898273957" x="115.200000" y="375.630000"/>
</g></g>
<g id="line2d35">
<g ><use style="fill: none; stroke: #000000; stroke-width: 0.500000; stroke-linejoin: round; stroke-linecap: butt;  opacity: 1.000000" xlink:href="#m20b58b2501143cb5e0a5e8f1ef6f1643" x="829.440000" y="375.630000"/>
</g></g>
<g id="text14">
<defs>
<path id="c_3dcfa38a02242cb63ec6726c6e70be7a" d="M40.578125 -39.312500q7.078125 1.515625 11.046875 6.312500q3.984375 4.781250 3.984375 11.812500q0.000000 10.781250 -7.421875 16.703125q-7.421875 5.906250 -21.093750 5.906250q-4.578125 0.000000 -9.437500 -0.906250q-4.859375 -0.906250 -10.031250 -2.718750l0.000000 -9.515625q4.093750 2.390625 8.968750 3.609375q4.890625 1.218750 10.218750 1.218750q9.265625 0.000000 14.125000 -3.656250q4.859375 -3.656250 4.859375 -10.640625q0.000000 -6.453125 -4.515625 -10.078125q-4.515625 -3.640625 -12.562500 -3.640625l-8.500000 0.000000l0.000000 -8.109375l8.890625 0.000000q7.265625 0.000000 11.125000 -2.906250q3.859375 -2.906250 3.859375 -8.375000q0.000000 -5.609375 -3.984375 -8.609375q-3.968750 -3.015625 -11.390625 -3.015625q-4.062500 0.000000 -8.703125 0.890625q-4.640625 0.875000 -10.203125 2.718750l0.000000 -8.781250q5.625000 -1.562500 10.531250 -2.343750q4.906250 -0.781250 9.250000 -0.781250q11.234375 0.000000 17.765625 5.109375q6.546875 5.093750 6.546875 13.781250q0.000000 6.062500 -3.468750 10.234375q-3.468750 4.171875 -9.859375 5.781250"/>
</defs>
<g style="fill: #000000; opacity: 1.000000" transform="translate(93.871875,379.997187)scale(0.120000)">
<use xlink:href="#c_7a2040fe3b94fcd41d0a72c84e93b115"/>
<use xlink:href="#c_ed3e21196fb739f392806f09ca0594ef" x="63.623047"/>
<use xlink:href="#c_3dcfa38a02242cb63ec6726c6e70be7a" x="95.410156"/>
</g>
</g>
</g>
<g id="ytick5">
<g id="line2d36">
<g ><use style="fill: none; stroke: #000000; stroke-width: 0.500000; stroke-linejoin: round; stroke-linecap: butt;  opacity: 1.000000" xlink:href="#m3400efa6b1638b3fea9e19e898273957" x="115.200000" y="322.910000"/>
</g></g>
<g id="line2d37">
<g ><use style="fill: none; stroke: #000000; stroke-width: 0.500000; stroke-linejoin: round; stroke-linecap: butt;  opacity: 1.000000" xlink:href="#m20b58b2501143cb5e0a5e8f1ef6f1643" x="829.440000" y="322.910000"/>
</g></g>
<g id="text15">
<g style="fill: #000000; opacity: 1.000000" transform="translate(93.575000,327.277187)scale(0.120000)">
<use xlink:href="#c_7a2040fe3b94fcd41d0a72c84e93b115"/>
<use xlink:href="#c_ed3e21196fb739f392806f09ca0594ef" x="63.623047"/>
<use xlink:href="#c_a0416418d96557a09b8c1332d34883ba" x="95.410156"/>
</g>
</g>
</g>
<g id="ytick6">
<g id="line2d38">
<g ><use style="fill: none; stroke: #000000; stroke-width: 0.500000; stroke-linejoin: round; stroke-linecap: butt;  opacity: 1.000000" xlink:href="#m3400efa6b1638b3fea9e19e898273957" x="115.200000" y="270.190000"/>
</g></g>
<g id="line2d39">
<g ><use style="fill: none; stroke: #000000; stroke-width: 0.500000; stroke-linejoin: round; stroke-linecap: butt;  opacity: 1.000000" xlink:href="#m20b58b2501143cb5e0a5e8f1ef6f1643" x="829.440000" y="270.190000"/>
</g></g>
<g id="text16">
<defs>
<path id="c_1260a2df50f305f3db244e29828f968e" d="M10.796875 -72.906250l38.718750 0.000000l0.000000 8.312500l-29.687500 0.000000l0.000000 17.859375q2.140625 -0.734375 4.281250 -1.093750q2.156250 -0.359375 4.312500 -0.359375q12.203125 0.000000 19.328125 6.687500q7.140625 6.687500 7.140625 18.109375q0.000000 11.765625 -7.328125 18.296875q-7.328125 6.515625 -20.656250 6.515625q-4.593750 0.000000 -9.359375 -0.781250q-4.750000 -0.781250 -9.828125 -2.343750l0.000000 -9.921875q4.390625 2.390625 9.078125 3.562500q4.687500 1.171875 9.906250 1.171875q8.453125 0.000000 13.375000 -4.437500q4.937500 -4.437500 4.937500 -12.062500q0.000000 -7.609375 -4.937500 -12.046875q-4.921875 -4.453125 -13.375000 -4.453125q-3.953125 0.000000 -7.890625 0.875000q-3.921875 0.875000 -8.015625 2.734375z"/>
</defs>
<g style="fill: #000000; opacity: 1.000000" transform="translate(93.950000,274.557187)scale(0.120000)">
<use xlink:href="#c_7a2040fe3b94fcd41d0a72c84e93b115"/>
<use xlink:href="#c_ed3e21196fb739f392806f09ca0594ef" x="63.623047"/>
<use xlink:href="#c_1260a2df50f305f3db244e29828f968e" x="95.410156"/>
</g>
</g>
</g>
<g id="ytick7">
<g id="line2d40">
<g ><use style="fill: none; stroke: #000000; stroke-width: 0.500000; stroke-linejoin: round; stroke-linecap: butt;  opacity: 1.000000" xlink:href="#m3400efa6b1638b3fea9e19e898273957" x="115.200000" y="217.470000"/>
</g></g>
<g id="line2d41">
<g ><use style="fill: none; stroke: #000000; stroke-width: 0.500000; stroke-linejoin: round; stroke-linecap: butt;  opacity: 1.000000" xlink:href="#m20b58b2501143cb5e0a5e8f1ef6f1643" x="829.440000" y="217.470000"/>
</g></g>
<g id="text17">
<g style="fill: #000000; opacity: 1.000000" transform="translate(93.668750,221.837187)scale(0.120000)">
<use xlink:href="#c_7a2040fe3b94fcd41d0a72c84e93b115"/>
<use xlink:href="#c_ed3e21196fb739f392806f09ca0594ef" x="63.623047"/>
<use xlink:href="#c_cc8d6d580d1b10c8632f7a42cd53db8a" x="95.410156"/>
</g>
</g>
</g>
<g id="ytick8">
<g id="line2d42">
<g ><use style="fill: none; stroke: #000000; stroke-width: 0.500000; stroke-linejoin: round; stroke-linecap: butt;  opacity: 1.000000" xlink:href="#m3400efa6b1638b3fea9e19e898273957" x="115.200000" y="164.750000"/>
</g></g>
<g id="line2d43">
<g ><use style="fill: none; stroke: #000000; stroke-width: 0.500000; stroke-linejoin: round; stroke-linecap: butt;  opacity: 1.000000" xlink:href="#m20b58b2501143cb5e0a5e8f1ef6f1643" x="829.440000" y="164.750000"/>
</g></g>
<g id="text18">
<defs>
<path id="c_956f18cfdaf972f35a6c2b4aaac2532b" d="M8.203125 -72.906250l46.875000 0.000000l0.000000 4.203125l-26.468750 68.703125l-10.296875 0.000000l24.906250 -64.593750l-35.015625 0.000000z"/>
</defs>
<g style="fill: #000000; opacity: 1.000000" transform="translate(93.934375,169.117187)scale(0.120000)">
<use xlink:href="#c_7a2040fe3b94fcd41d0a72c84e93b115"/>
<use xlink:href="#c_ed3e21196fb739f392806f09ca0594ef" x="63.623047"/>
<use xlink:href="#c_956f18cfdaf972f35a6c2b4aaac2532b" x="95.410156"/>
</g>
</g>
</g>
<g id="ytick9">
<g id="line2d44">
<g ><use style="fill: none; stroke: #000000; stroke-width: 0.500000; stroke-linejoin: round; stroke-linecap: butt;  opacity: 1.000000" xlink:href="#m3400efa6b1638b3fea9e19e898273957" x="115.200000" y="112.030000"/>
</g></g>
<g id="line2d45">
<g ><use style="fill: none; stroke: #000000; stroke-width: 0.500000; stroke-linejoin: round; stroke-linecap: butt;  opacity: 1.000000" xlink:href="#m20b58b2501143cb5e0a5e8f1ef6f1643" x="829.440000" y="112.030000"/>
</g></g>
<g id="text19">
<g style="fill: #000000; opacity: 1.000000" transform="translate(93.731250,116.397187)scale(0.120000)">
<use xlink:href="#c_7a2040fe3b94fcd41d0a72c84e93b115"/>
<use xlink:href="#c_ed3e21196fb739f392806f09ca0594ef" x="63.623047"/>
<use xlink:href="#c_bef35738d52871942e50b9de9b122bab" x="95.410156"/>
</g>
</g>
</g>
<g id="ytick10">
<g id="line2d46">
<g ><use style="fill: none; stroke: #000000; stroke-width: 0.500000; stroke-linejoin: round; stroke-linecap: butt;  opacity: 1.000000" xlink:href="#m3400efa6b1638b3fea9e19e898273957" x="115.200000" y="59.310000"/>
</g></g>
<g id="line2d47">
<g ><use style="fill: none; stroke: #000000; stroke-width: 0.500000; stroke-linejoin: round; stroke-linecap: butt;  opacity: 1.000000" xlink:href="#m20b58b2501143cb5e0a5e8f1ef6f1643" x="829.440000" y="59.310000"/>
</g></g>
<g id="text20">
<defs>
<path id="c_cd96f817f3cab988d24a2b49a5577fe6" d="M10.984375 -1.515625l0.000000 -8.984375q3.718750 1.765625 7.515625 2.687500q3.812500 0.921875 7.484375 0.921875q9.765625 0.000000 14.906250 -6.562500q5.156250 -6.562500 5.890625 -19.953125q-2.828125 4.203125 -7.187500 6.453125q-4.343750 2.250000 -9.609375 2.250000q-10.937500 0.000000 -17.312500 -6.609375q-6.375000 -6.625000 -6.375000 -18.109375q0.000000 -11.218750 6.640625 -18.000000q6.640625 -6.796875 17.671875 -6.796875q12.656250 0.000000 19.312500 9.703125q6.671875 9.687500 6.671875 28.140625q0.000000 17.234375 -8.187500 27.515625q-8.171875 10.281250 -21.984375 10.281250q-3.718750 0.000000 -7.531250 -0.734375q-3.796875 -0.734375 -7.906250 -2.203125M30.609375 -32.421875q6.640625 0.000000 10.515625 -4.531250q3.890625 -4.546875 3.890625 -12.468750q0.000000 -7.859375 -3.890625 -12.421875q-3.875000 -4.562500 -10.515625 -4.562500q-6.640625 0.000000 -10.515625 4.562500q-3.875000 4.562500 -3.875000 12.421875q0.000000 7.921875 3.875000 12.468750q3.875000 4.531250 10.515625 4.531250"/>
</defs>
<g style="fill: #000000; opacity: 1.000000" transform="translate(93.746875,63.677187)scale(0.120000)">
<use xlink:href="#c_7a2040fe3b94fcd41d0a72c84e93b115"/>
<use xlink:href="#c_ed3e21196fb739f392806f09ca0594ef" x="63.623047"/>
<use xlink:href="#c_cd96f817f3cab988d24a2b49a5577fe6" x="95.410156"/>
</g>
</g>
</g>
<g id="text21">
<defs>
<path id="c_ae70b0af174184799fa4976b9c5da571" d="M28.609375 -0.000000l-27.828125 -72.906250l10.296875 0.000000l23.109375 61.375000l23.140625 -61.375000l10.250000 0.000000l-27.781250 72.906250z"/>
<path id="c_6a63bda47b2f3da1cec6aadd80692cfe" d="M9.421875 -54.687500l8.984375 0.000000l0.000000 54.687500l-8.984375 0.000000zM9.421875 -75.984375l8.984375 0.000000l0.000000 11.390625l-8.984375 0.000000z"/>
<path id="c_0f8c41144cfbf448378cb6fd1cc8e549" d="M18.312500 -70.218750l0.000000 15.531250l18.500000 0.000000l0.000000 6.984375l-18.500000 0.000000l0.000000 29.687500q0.000000 6.687500 1.828125 8.593750q1.828125 1.906250 7.453125 1.906250l9.218750 0.000000l0.000000 7.515625l-9.218750 0.000000q-10.406250 0.000000 -14.359375 -3.875000q-3.953125 -3.890625 -3.953125 -14.140625l0.000000 -29.687500l-6.593750 0.000000l0.000000 -6.984375l6.593750 0.000000l0.000000 -15.531250z"/>
<path id="c_d821beae607506e87470f334d9ff47af" d="M45.406250 -46.390625l0.000000 -29.593750l8.984375 0.000000l0.000000 75.984375l-8.984375 0.000000l0.000000 -8.203125q-2.828125 4.875000 -7.156250 7.250000q-4.312500 2.375000 -10.375000 2.375000q-9.906250 0.000000 -16.140625 -7.906250q-6.218750 -7.921875 -6.218750 -20.812500q0.000000 -12.890625 6.218750 -20.796875q6.234375 -7.906250 16.140625 -7.906250q6.062500 0.000000 10.375000 2.375000q4.328125 2.359375 7.156250 7.234375M14.796875 -27.296875q0.000000 9.906250 4.078125 15.546875q4.078125 5.640625 11.203125 5.640625q7.125000 0.000000 11.218750 -5.640625q4.109375 -5.640625 4.109375 -15.546875q0.000000 -9.906250 -4.109375 -15.546875q-4.093750 -5.640625 -11.218750 -5.640625q-7.125000 0.000000 -11.203125 5.640625q-4.078125 5.640625 -4.078125 15.546875"/>
<path id="c_3b515ad41f960e225ec85275856806ca" d="M8.500000 -21.578125l0.000000 -33.109375l8.984375 0.000000l0.000000 32.765625q0.000000 7.765625 3.015625 11.656250q3.031250 3.875000 9.093750 3.875000q7.265625 0.000000 11.484375 -4.640625q4.234375 -4.640625 4.234375 -12.656250l0.000000 -31.000000l8.984375 0.000000l0.000000 54.687500l-8.984375 0.000000l0.000000 -8.406250q-3.265625 4.984375 -7.593750 7.406250q-4.312500 2.421875 -10.031250 2.421875q-9.421875 0.000000 -14.312500 -5.859375q-4.875000 -5.859375 -4.875000 -17.140625M31.109375 -56.000000z"/>
<path id="c_f05dd90d41f04bb96ef1ca503cc2044b" d="M30.609375 -48.390625q-7.218750 0.000000 -11.421875 5.640625q-4.203125 5.640625 -4.203125 15.453125q0.000000 9.812500 4.171875 15.453125q4.187500 5.640625 11.453125 5.640625q7.187500 0.000000 11.375000 -5.656250q4.203125 -5.671875 4.203125 -15.437500q0.000000 -9.718750 -4.203125 -15.406250q-4.187500 -5.687500 -11.375000 -5.687500M30.609375 -56.000000q11.718750 0.000000 18.406250 7.625000q6.703125 7.609375 6.703125 21.078125q0.000000 13.421875 -6.703125 21.078125q-6.687500 7.640625 -18.406250 7.640625q-11.765625 0.000000 -18.437500 -7.640625q-6.656250 -7.656250 -6.656250 -21.078125q0.000000 -13.468750 6.656250 -21.078125q6.671875 -7.625000 18.437500 -7.625000"/>
<path id="c_e3864de5dabf2f8dd9eee74726882ec1" d="M45.406250 -27.984375q0.000000 -9.765625 -4.031250 -15.125000q-4.015625 -5.375000 -11.296875 -5.375000q-7.218750 0.000000 -11.250000 5.375000q-4.031250 5.359375 -4.031250 15.125000q0.000000 9.718750 4.031250 15.093750q4.031250 5.375000 11.250000 5.375000q7.281250 0.000000 11.296875 -5.375000q4.031250 -5.375000 4.031250 -15.093750M54.390625 -6.781250q0.000000 13.953125 -6.203125 20.765625q-6.187500 6.812500 -18.984375 6.812500q-4.734375 0.000000 -8.937500 -0.703125q-4.203125 -0.703125 -8.156250 -2.171875l0.000000 -8.734375q3.953125 2.140625 7.812500 3.156250q3.859375 1.031250 7.859375 1.031250q8.843750 0.000000 13.234375 -4.609375q4.390625 -4.609375 4.390625 -13.937500l0.000000 -4.453125q-2.781250 4.843750 -7.125000 7.234375q-4.343750 2.390625 -10.406250 2.390625q-10.046875 0.000000 -16.203125 -7.656250q-6.156250 -7.671875 -6.156250 -20.328125q0.000000 -12.687500 6.156250 -20.343750q6.156250 -7.671875 16.203125 -7.671875q6.062500 0.000000 10.406250 2.390625q4.343750 2.390625 7.125000 7.218750l0.000000 -8.296875l8.984375 0.000000z"/>
<path id="c_fe791a90f5471e2ab20a5ed41a7fa451" d="M54.890625 -33.015625l0.000000 33.015625l-8.984375 0.000000l0.000000 -32.718750q0.000000 -7.765625 -3.031250 -11.609375q-3.031250 -3.859375 -9.078125 -3.859375q-7.281250 0.000000 -11.484375 4.640625q-4.203125 4.625000 -4.203125 12.640625l0.000000 30.906250l-9.031250 0.000000l0.000000 -54.687500l9.031250 0.000000l0.000000 8.500000q3.234375 -4.937500 7.593750 -7.375000q4.375000 -2.437500 10.093750 -2.437500q9.421875 0.000000 14.250000 5.828125q4.843750 5.828125 4.843750 17.156250"/>
<path id="c_9c6d5cbc59c6231647eb409cc6b37bb3" d="M25.390625 -72.906250l8.296875 0.000000l-25.390625 82.187500l-8.296875 0.000000z"/>
</defs>
<g style="fill: #000000; opacity: 1.000000" transform="translate(88.575000,413.925000)rotate(-90.0)scale(0.200000)">
<use xlink:href="#c_ae70b0af174184799fa4976b9c5da571"/>
<use xlink:href="#c_6a63bda47b2f3da1cec6aadd80692cfe" x="66.158203"/>
<use xlink:href="#c_0f8c41144cfbf448378cb6fd1cc8e549" x="93.941406"/>
<use xlink:href="#c_0bce5afba2dc6b9024b26277c38ad8e8" x="133.150391"/>
<use xlink:href="#c_8e0810ad13fe20a2a87a2619799b154d" x="194.673828"/>
<use xlink:href="#c_8e0810ad13fe20a2a87a2619799b154d" x="246.773438"/>
<use xlink:href="#c_0bce5afba2dc6b9024b26277c38ad8e8" x="298.873047"/>
<use xlink:href="#c_d41d8cd98f00b204e9800998ecf8427e" x="360.396484"/>
<use xlink:href="#c_d821beae607506e87470f334d9ff47af" x="392.183594"/>
<use xlink:href="#c_3b515ad41f960e225ec85275856806ca" x="455.660156"/>
<use xlink:href="#c_d41d8cd98f00b204e9800998ecf8427e" x="519.039062"/>
<use xlink:href="#c_f15a64fcd463ef4629c48bab42cde24c" x="550.826172"/>
<use xlink:href="#c_f05dd90d41f04bb96ef1ca503cc2044b" x="614.302734"/>
<use xlink:href="#c_6a63bda47b2f3da1cec6aadd80692cfe" x="675.484375"/>
<use xlink:href="#c_e3864de5dabf2f8dd9eee74726882ec1" x="703.267578"/>
<use xlink:href="#c_fe791a90f5471e2ab20a5ed41a7fa451" x="766.744141"/>
<use xlink:href="#c_0bce5afba2dc6b9024b26277c38ad8e8" x="830.123047"/>
<use xlink:href="#c_0f8c41144cfbf448378cb6fd1cc8e549" x="891.646484"/>
<use xlink:href="#c_d41d8cd98f00b204e9800998ecf8427e" x="930.855469"/>
<use xlink:href="#c_7efa9804c2b4c09a4b614b91fdebee3d" x="962.642578"/>
<use xlink:href="#c_4653c6dfde66c7610eae0911760d3490" x="1001.656250"/>
<use xlink:href="#c_9c6d5cbc59c6231647eb409cc6b37bb3" x="1099.068359"/>
<use xlink:href="#c_8e0810ad13fe20a2a87a2619799b154d" x="1132.759766"/>
<use xlink:href="#c_e96974be642f6eac0427d72f9cec6c19" x="1184.859375"/>
</g>
</g>
</g>
<g id="patch3">
<path style="fill: none; stroke: #000000; stroke-width: 1.000000; stroke-linejoin: round; stroke-linecap: square;  opacity: 1.000000"  d="M115.200000 59.310000L829.440000 59.310000"/>
</g>
<g id="patch4">
<path style="fill: none; stroke: #000000; stroke-width: 1.000000; stroke-linejoin: round; stroke-linecap: square;  opacity: 1.000000"  d="M829.440000 533.790000L829.440000 59.310000"/>
</g>
<g id="patch5">
<path style="fill: none; stroke: #000000; stroke-width: 1.000000; stroke-linejoin: round; stroke-linecap: square;  opacity: 1.000000"  d="M115.200000 533.790000L829.440000 533.790000"/>
</g>
<g id="patch6">
<path style="fill: none; stroke: #000000; stroke-width: 1.000000; stroke-linejoin: round; stroke-linecap: square;  opacity: 1.000000"  d="M115.200000 533.790000L115.200000 59.310000"/>
</g>
<g id="text22">
<defs>
<path id="c_01d93a582460e35a7945ca50d148ffeb" d="M34.281250 -27.484375q-10.890625 0.000000 -15.093750 2.484375q-4.203125 2.484375 -4.203125 8.500000q0.000000 4.781250 3.156250 7.593750q3.156250 2.796875 8.562500 2.796875q7.484375 0.000000 12.000000 -5.296875q4.515625 -5.296875 4.515625 -14.078125l0.000000 -2.000000zM52.203125 -31.203125l0.000000 31.203125l-8.984375 0.000000l0.000000 -8.296875q-3.078125 4.968750 -7.671875 7.343750q-4.593750 2.375000 -11.234375 2.375000q-8.390625 0.000000 -13.359375 -4.718750q-4.953125 -4.718750 -4.953125 -12.625000q0.000000 -9.218750 6.171875 -13.906250q6.187500 -4.687500 18.437500 -4.687500l12.609375 0.000000l0.000000 -0.890625q0.000000 -6.203125 -4.078125 -9.593750q-4.078125 -3.390625 -11.453125 -3.390625q-4.687500 0.000000 -9.140625 1.125000q-4.437500 1.125000 -8.531250 3.375000l0.000000 -8.312500q4.921875 -1.906250 9.562500 -2.843750q4.640625 -0.953125 9.031250 -0.953125q11.875000 0.000000 17.734375 6.156250q5.859375 6.140625 5.859375 18.640625"/>
<path id="c_d650c37394b681142a10dfc54356d478" d="M48.781250 -52.593750l0.000000 8.406250q-3.812500 -2.109375 -7.640625 -3.156250q-3.828125 -1.046875 -7.734375 -1.046875q-8.750000 0.000000 -13.593750 5.546875q-4.828125 5.531250 -4.828125 15.546875q0.000000 10.015625 4.828125 15.562500q4.843750 5.531250 13.593750 5.531250q3.906250 0.000000 7.734375 -1.046875q3.828125 -1.046875 7.640625 -3.156250l0.000000 8.312500q-3.765625 1.750000 -7.796875 2.625000q-4.015625 0.890625 -8.562500 0.890625q-12.359375 0.000000 -19.640625 -7.765625q-7.265625 -7.765625 -7.265625 -20.953125q0.000000 -13.375000 7.343750 -21.031250q7.359375 -7.671875 20.156250 -7.671875q4.140625 0.000000 8.093750 0.859375q3.953125 0.843750 7.671875 2.546875"/>
<path id="c_6ec8d5749226675394676a5d2a3b468b" d="M41.109375 -46.296875q-1.515625 -0.875000 -3.296875 -1.281250q-1.781250 -0.421875 -3.921875 -0.421875q-7.625000 0.000000 -11.703125 4.953125q-4.078125 4.953125 -4.078125 14.234375l0.000000 28.812500l-9.031250 0.000000l0.000000 -54.687500l9.031250 0.000000l0.000000 8.500000q2.843750 -4.984375 7.375000 -7.390625q4.546875 -2.421875 11.046875 -2.421875q0.921875 0.000000 2.046875 0.125000q1.125000 0.109375 2.484375 0.359375z"/>
<path id="c_c48ceabac27bf136feba2f4bf2716ab6" d="M2.984375 -54.687500l9.515625 0.000000l17.093750 45.890625l17.093750 -45.890625l9.515625 0.000000l-20.515625 54.687500l-12.203125 0.000000z"/>
<path id="c_5099edb83619131346ae654950954dea" d="M9.421875 -75.984375l8.984375 0.000000l0.000000 75.984375l-8.984375 0.000000z"/>
<path id="c_2e5dfb8af59f7166823a060f6b91d481" d="M34.281250 -27.484375q-10.890625 0.000000 -15.093750 2.484375q-4.203125 2.484375 -4.203125 8.500000q0.000000 4.781250 3.156250 7.593750q3.156250 2.796875 8.562500 2.796875q7.484375 0.000000 12.000000 -5.296875q4.515625 -5.296875 4.515625 -14.078125l0.000000 -2.000000zM52.203125 -31.203125l0.000000 31.203125l-8.984375 0.000000l0.000000 -8.296875q-3.078125 4.968750 -7.671875 7.343750q-4.593750 2.375000 -11.234375 2.375000q-8.390625 0.000000 -13.359375 -4.718750q-4.953125 -4.718750 -4.953125 -12.625000q0.000000 -9.218750 6.171875 -13.906250q6.187500 -4.687500 18.437500 -4.687500l12.609375 0.000000l0.000000 -0.890625q0.000000 -6.203125 -4.078125 -9.593750q-4.078125 -3.390625 -11.453125 -3.390625q-4.687500 0.000000 -9.140625 1.125000q-4.437500 1.125000 -8.531250 3.375000l0.000000 -8.312500q4.921875 -1.906250 9.562500 -2.843750q4.640625 -0.953125 9.031250 -0.953125q11.875000 0.000000 17.734375 6.156250q5.859375 6.140625 5.859375 18.640625M25.390625 -79.984375l7.218750 0.000000l11.968750 18.359375l-6.781250 0.000000l-8.796875 -11.953125l-8.781250 11.953125l-6.796875 0.000000z"/>
<path id="c_74d54c94aa871ec39e2bc6697dde6c00" d="M54.890625 -33.015625l0.000000 33.015625l-8.984375 0.000000l0.000000 -32.718750q0.000000 -7.765625 -3.031250 -11.609375q-3.031250 -3.859375 -9.078125 -3.859375q-7.281250 0.000000 -11.484375 4.640625q-4.203125 4.625000 -4.203125 12.640625l0.000000 30.906250l-9.031250 0.000000l0.000000 -75.984375l9.031250 0.000000l0.000000 29.796875q3.234375 -4.937500 7.593750 -7.375000q4.375000 -2.437500 10.093750 -2.437500q9.421875 0.000000 14.250000 5.828125q4.843750 5.828125 4.843750 17.156250"/>
</defs>
<g style="fill: #000000; opacity: 1.000000" transform="translate(149.046562,50.153750)scale(0.200000)">
<use xlink:href="#c_ae70b0af174184799fa4976b9c5da571"/>
<use xlink:href="#c_6a63bda47b2f3da1cec6aadd80692cfe" x="66.158203"/>
<use xlink:href="#c_0f8c41144cfbf448378cb6fd1cc8e549" x="93.941406"/>
<use xlink:href="#c_0bce5afba2dc6b9024b26277c38ad8e8" x="133.150391"/>
<use xlink:href="#c_8e0810ad13fe20a2a87a2619799b154d" x="194.673828"/>
<use xlink:href="#c_8e0810ad13fe20a2a87a2619799b154d" x="246.773438"/>
<use xlink:href="#c_0bce5afba2dc6b9024b26277c38ad8e8" x="298.873047"/>
<use xlink:href="#c_d41d8cd98f00b204e9800998ecf8427e" x="360.396484"/>
<use xlink:href="#c_d821beae607506e87470f334d9ff47af" x="392.183594"/>
<use xlink:href="#c_3b515ad41f960e225ec85275856806ca" x="455.660156"/>
<use xlink:href="#c_d41d8cd98f00b204e9800998ecf8427e" x="519.039062"/>
<use xlink:href="#c_f15a64fcd463ef4629c48bab42cde24c" x="550.826172"/>
<use xlink:href="#c_f05dd90d41f04bb96ef1ca503cc2044b" x="614.302734"/>
<use xlink:href="#c_6a63bda47b2f3da1cec6aadd80692cfe" x="675.484375"/>
<use xlink:href="#c_e3864de5dabf2f8dd9eee74726882ec1" x="703.267578"/>
<use xlink:href="#c_fe791a90f5471e2ab20a5ed41a7fa451" x="766.744141"/>
<use xlink:href="#c_0bce5afba2dc6b9024b26277c38ad8e8" x="830.123047"/>
<use xlink:href="#c_0f8c41144cfbf448378cb6fd1cc8e549" x="891.646484"/>
<use xlink:href="#c_d41d8cd98f00b204e9800998ecf8427e" x="930.855469"/>
<use xlink:href="#c_01d93a582460e35a7945ca50d148ffeb" x="962.642578"/>
<use xlink:href="#c_3b515ad41f960e225ec85275856806ca" x="1023.921875"/>
<use xlink:href="#c_d41d8cd98f00b204e9800998ecf8427e" x="1087.300781"/>
<use xlink:href="#c_d650c37394b681142a10dfc54356d478" x="1119.087891"/>
<use xlink:href="#c_f05dd90d41f04bb96ef1ca503cc2044b" x="1174.068359"/>
<use xlink:href="#c_3b515ad41f960e225ec85275856806ca" x="1235.250000"/>
<use xlink:href="#c_6ec8d5749226675394676a5d2a3b468b" x="1298.628906"/>
<use xlink:href="#c_8e0810ad13fe20a2a87a2619799b154d" x="1339.742188"/>
<use xlink:href="#c_d41d8cd98f00b204e9800998ecf8427e" x="1391.841797"/>
<use xlink:href="#c_d821beae607506e87470f334d9ff47af" x="1423.628906"/>
<use xlink:href="#c_3b515ad41f960e225ec85275856806ca" x="1487.105469"/>
<use xlink:href="#c_d41d8cd98f00b204e9800998ecf8427e" x="1550.484375"/>
<use xlink:href="#c_4653c6dfde66c7610eae0911760d3490" x="1582.271484"/>
<use xlink:href="#c_f05dd90d41f04bb96ef1ca503cc2044b" x="1679.683594"/>
<use xlink:href="#c_3b515ad41f960e225ec85275856806ca" x="1740.865234"/>
<use xlink:href="#c_c48ceabac27bf136feba2f4bf2716ab6" x="1804.244141"/>
<use xlink:href="#c_0bce5afba2dc6b9024b26277c38ad8e8" x="1863.423828"/>
<use xlink:href="#c_4653c6dfde66c7610eae0911760d3490" x="1924.947266"/>
<use xlink:href="#c_0bce5afba2dc6b9024b26277c38ad8e8" x="2022.359375"/>
<use xlink:href="#c_fe791a90f5471e2ab20a5ed41a7fa451" x="2083.882812"/>
<use xlink:href="#c_0f8c41144cfbf448378cb6fd1cc8e549" x="2147.261719"/>
<use xlink:href="#c_d41d8cd98f00b204e9800998ecf8427e" x="2186.470703"/>
<use xlink:href="#c_7efa9804c2b4c09a4b614b91fdebee3d" x="2218.257812"/>
<use xlink:href="#c_0bce5afba2dc6b9024b26277c38ad8e8" x="2257.271484"/>
<use xlink:href="#c_8e0810ad13fe20a2a87a2619799b154d" x="2318.794922"/>
<use xlink:href="#c_f15a64fcd463ef4629c48bab42cde24c" x="2370.894531"/>
<use xlink:href="#c_01d93a582460e35a7945ca50d148ffeb" x="2434.371094"/>
<use xlink:href="#c_d650c37394b681142a10dfc54356d478" x="2495.650391"/>
<use xlink:href="#c_0bce5afba2dc6b9024b26277c38ad8e8" x="2550.630859"/>
<use xlink:href="#c_d41d8cd98f00b204e9800998ecf8427e" x="2612.154297"/>
<use xlink:href="#c_d821beae607506e87470f334d9ff47af" x="2643.941406"/>
<use xlink:href="#c_0bce5afba2dc6b9024b26277c38ad8e8" x="2707.417969"/>
<use xlink:href="#c_d41d8cd98f00b204e9800998ecf8427e" x="2768.941406"/>
<use xlink:href="#c_5099edb83619131346ae654950954dea" x="2800.728516"/>
<use xlink:href="#c_01d93a582460e35a7945ca50d148ffeb" x="2828.511719"/>
<use xlink:href="#c_d41d8cd98f00b204e9800998ecf8427e" x="2889.791016"/>
<use xlink:href="#c_0f8c41144cfbf448378cb6fd1cc8e549" x="2921.578125"/>
<use xlink:href="#c_2e5dfb8af59f7166823a060f6b91d481" x="2960.787109"/>
<use xlink:href="#c_d650c37394b681142a10dfc54356d478" x="3022.066406"/>
<use xlink:href="#c_74d54c94aa871ec39e2bc6697dde6c00" x="3077.046875"/>
<use xlink:href="#c_0bce5afba2dc6b9024b26277c38ad8e8" x="3140.425781"/>
<use xlink:href="#c_e96974be642f6eac0427d72f9cec6c19" x="3201.949219"/>
</g>
</g>
</g>
</g>
</svg>
