<?xml version="1.0" standalone="no"?>
<!DOCTYPE svg PUBLIC "-//W3C//DTD SVG 1.1//EN"
  "http://www.w3.org/Graphics/SVG/1.1/DTD/svg11.dtd">
<!-- Created with matplotlib (http://matplotlib.sourceforge.net/) -->
<svg width="921pt" height="593pt" viewBox="0 0 921 593"
   xmlns="http://www.w3.org/2000/svg"
   xmlns:xlink="http://www.w3.org/1999/xlink"
   version="1.1"
   id="svg1">
<g id="figure1">
<g id="patch1">
<path style="fill: #ffffff; stroke: #ffffff; stroke-width: 1.000000; stroke-linejoin: round; stroke-linecap: square;  opacity: 1.000000"  d="M0.000000 593.100000L921.600000 593.100000L921.600000 0.000000
L0.000000 0.000000L0.000000 593.100000"/>
</g>
<g id="axes1">
<g id="patch2">
<path style="fill: #ffffff; opacity: 1.000000"  d="M115.200000 533.790000L829.440000 533.790000L829.440000 59.310000
L115.200000 59.310000L115.200000 533.790000"/>
</g>
<g id="line2d1">
<defs>
  <clipPath id="p7925595e59115e0f26db4807d9e1425e">
<rect x="115.200000" y="59.310000" width="714.240000" height="474.480000"/>
  </clipPath>
</defs><path style="fill: none; stroke: #0000ff; stroke-width: 1.000000; stroke-linejoin: round; stroke-linecap: square;  opacity: 1.000000" clip-path="url(#p7925595e59115e0f26db4807d9e1425e)" d="M268.061546 295.907371L268.451430 302.764897L269.714900 313.413590
L272.476181 334.872353L272.485454 334.963461L272.485454 334.963461"/>
</g>
<g id="line2d2">
<defs><path id="m747cc61de9b2cf7f4795268aef228876" d="M-3.000000 3.000000L3.000000 -3.000000M-3.000000 -3.000000
L3.000000 3.000000"/></defs>
<g clip-path="url(#p7925595e59115e0f26db4807d9e1425e)"><use style="fill: none; stroke: #000000; stroke-width: 0.500000; stroke-linejoin: round; stroke-linecap: butt;  opacity: 1.000000" xlink:href="#m747cc61de9b2cf7f4795268aef228876" x="272.525494" y="335.295720"/>
</g></g>
<g id="line2d3">
<path style="fill: none; stroke: #008000; stroke-width: 1.000000; stroke-linejoin: round; stroke-linecap: square;  opacity: 1.000000" clip-path="url(#p7925595e59115e0f26db4807d9e1425e)" d="M268.061546 295.907371L268.068358 295.920606L268.084800 295.952179
L268.110522 296.001353L268.145191 296.067415L268.189126 296.150820
L268.241989 296.250821L268.303458 296.366693L268.373225 296.497732
L268.450993 296.643253L268.536477 296.802592L268.629884 296.975953
L268.730926 297.162655L268.839988 297.363189L268.957482 297.578064
L269.083522 297.807261L269.217762 298.049976L269.359866 298.305436
L269.509508 298.572891L269.666879 298.852466L269.831643 299.143403
L270.004228 299.446212L270.184272 299.760096L270.371424 300.084291
L270.566148 300.419371L270.768293 300.764897L270.977473 301.120063
L271.193826 301.484917L271.416952 301.858650L271.646841 302.241097
L271.883090 302.631463L272.125303 303.028989L272.374219 303.434707
L272.629387 303.847770L272.890365 304.267369L273.157557 304.694019
L273.430484 305.126866L273.709119 305.565776L273.993356 306.010489
L274.282694 306.460155L274.577517 306.915296L274.877518 307.375372
L275.182152 307.839498L275.491651 308.307989L275.805641 308.780232
L276.124084 309.256139L276.446376 309.734782L276.772421 310.216013
L277.102101 310.699668L277.435477 311.185845L277.771878 311.673553
L278.110655 312.161862L278.452088 312.651232L278.796000 313.141447
L279.141925 313.631870L279.489716 314.122349L279.839270 314.612802
L280.189815 315.102169L280.541239 315.590380L280.893763 316.077859
L281.246540 316.563452L281.599693 317.047456L281.953202 317.529954
L282.306665 318.010459L282.659131 318.487705L283.010203 318.961256
L283.359869 319.431250L283.708222 319.897968L284.054478 320.360411
L284.398564 320.818631L284.740223 321.272413L285.078918 321.721130
L285.414047 322.164079L285.745103 322.600701L286.066111 323.024894
L286.377723 323.437466L286.679463 323.837582L286.971359 324.225169
L287.253733 324.600599L287.527365 324.964871L287.792239 325.317849
L288.046951 325.657473L288.293595 325.986619L288.531809 326.304686
L288.760961 326.610734L288.981366 326.905146L289.193466 327.188473
L289.397110 327.460458L289.592435 327.721245L289.779487 327.970859
L289.959097 328.210377L290.131302 328.439807L290.296593 328.659763
L290.454643 328.869781L290.601059 329.064174L290.737911 329.245613
L290.866651 329.415962L290.986685 329.574443L291.096043 329.718541
L291.194014 329.847413L291.281204 329.961914L291.358597 330.063376
L291.427227 330.153181L291.488065 330.232630L291.541992 330.302900
L291.589795 330.365046L291.632172 330.420002L291.669740 330.468597
L291.703047 330.511565L291.732579 330.549558"/>
</g>
<g id="line2d4">
<g clip-path="url(#p7925595e59115e0f26db4807d9e1425e)"><use style="fill: none; stroke: #000000; stroke-width: 0.500000; stroke-linejoin: round; stroke-linecap: butt;  opacity: 1.000000" xlink:href="#m747cc61de9b2cf7f4795268aef228876" x="291.963928" y="330.839168"/>
</g></g>
<g id="line2d5">
<path style="fill: none; stroke: #ff0000; stroke-width: 1.000000; stroke-linejoin: round; stroke-linecap: square;  opacity: 1.000000" clip-path="url(#p7925595e59115e0f26db4807d9e1425e)" d="M268.061546 295.907371L293.871889 312.642250L304.774629 319.546452
L307.267351 320.725788L307.267351 320.725788"/>
</g>
<g id="line2d6">
<g clip-path="url(#p7925595e59115e0f26db4807d9e1425e)"><use style="fill: none; stroke: #000000; stroke-width: 0.500000; stroke-linejoin: round; stroke-linecap: butt;  opacity: 1.000000" xlink:href="#m747cc61de9b2cf7f4795268aef228876" x="307.628701" y="320.867654"/>
</g></g>
<g id="line2d7">
<path style="fill: none; stroke: #00bfbf; stroke-width: 1.000000; stroke-linejoin: round; stroke-linecap: square;  opacity: 1.000000" clip-path="url(#p7925595e59115e0f26db4807d9e1425e)" d="M268.061546 295.907371L275.320650 299.469363L289.513849 305.775191
L298.653997 309.164870L304.703687 310.730671L308.927696 311.165288
L311.888387 310.865101L314.192081 310.001447L315.723457 308.762922
L316.858472 307.257437L316.858472 307.257437"/>
</g>
<g id="line2d8">
<g clip-path="url(#p7925595e59115e0f26db4807d9e1425e)"><use style="fill: none; stroke: #000000; stroke-width: 0.500000; stroke-linejoin: round; stroke-linecap: butt;  opacity: 1.000000" xlink:href="#m747cc61de9b2cf7f4795268aef228876" x="317.046690" y="306.955460"/>
</g></g>
<g id="line2d9">
<path style="fill: none; stroke: #bf00bf; stroke-width: 1.000000; stroke-linejoin: round; stroke-linecap: square;  opacity: 1.000000" clip-path="url(#p7925595e59115e0f26db4807d9e1425e)" d="M268.061546 295.907371L273.402086 297.377973L281.267231 298.911439
L287.777763 299.549499L293.225382 299.448447L297.725807 298.720253
L301.577232 297.427406L304.792113 295.679178L307.688378 293.381206
L310.449479 290.299095L312.670052 286.856910L314.339981 282.864572
L314.974054 280.817637L314.974054 280.817637"/>
</g>
<g id="line2d10">
<g clip-path="url(#p7925595e59115e0f26db4807d9e1425e)"><use style="fill: none; stroke: #000000; stroke-width: 0.500000; stroke-linejoin: round; stroke-linecap: butt;  opacity: 1.000000" xlink:href="#m747cc61de9b2cf7f4795268aef228876" x="315.051446" y="280.509770"/>
</g></g>
<g id="line2d11">
<path style="fill: none; stroke: #bfbf00; stroke-width: 1.000000; stroke-linejoin: round; stroke-linecap: square;  opacity: 1.000000" clip-path="url(#p7925595e59115e0f26db4807d9e1425e)" d="M268.061546 295.907371L273.490110 295.238407L278.948890 293.950180
L283.831314 292.101478L287.831635 289.915455L291.741054 286.990911
L295.118206 283.635131L298.428645 279.343316L301.115815 274.717402
L302.906835 270.084599L303.533570 267.861968L303.533570 267.861968"/>
</g>
<g id="line2d12">
<g clip-path="url(#p7925595e59115e0f26db4807d9e1425e)"><use style="fill: none; stroke: #000000; stroke-width: 0.500000; stroke-linejoin: round; stroke-linecap: butt;  opacity: 1.000000" xlink:href="#m747cc61de9b2cf7f4795268aef228876" x="303.605531" y="267.543111"/>
</g></g>
<g id="line2d13">
<path style="fill: none; stroke: #000000; stroke-width: 1.000000; stroke-linejoin: round; stroke-linecap: square;  opacity: 1.000000" clip-path="url(#p7925595e59115e0f26db4807d9e1425e)" d="M268.061546 295.907371L275.555882 286.619394L279.197146 280.730019
L282.522821 274.030441L284.909655 267.823217L286.098404 262.779903
L286.529985 259.364688L286.529985 259.364688"/>
</g>
<g id="line2d14">
<g clip-path="url(#p7925595e59115e0f26db4807d9e1425e)"><use style="fill: none; stroke: #000000; stroke-width: 0.500000; stroke-linejoin: round; stroke-linecap: butt;  opacity: 1.000000" xlink:href="#m747cc61de9b2cf7f4795268aef228876" x="286.548003" y="259.054546"/>
</g></g>
<g id="line2d15">
<path style="fill: none; stroke: #0000ff; stroke-width: 1.000000; stroke-linejoin: round; stroke-linecap: square;  opacity: 1.000000" clip-path="url(#p7925595e59115e0f26db4807d9e1425e)" d="M268.061546 295.907371L268.053901 295.892764L268.036765 295.860266
L268.010518 295.810514L267.975539 295.744134L267.932203 295.661738
L267.880416 295.563113L267.820575 295.448895L267.753065 295.319705
L267.677812 295.175351L267.595219 295.016474L267.505680 294.843703
L267.408931 294.656508L267.304844 294.454589L267.193865 294.238659
L267.075732 294.008180L266.950914 293.763904L266.819869 293.506561
L266.683034 293.236860L266.540835 292.955491L266.393439 292.662703
L266.240666 292.358140L266.083200 292.042960L265.920477 291.716155
L265.753233 291.378975L265.581886 291.032133L265.406835 290.676323
L265.227478 290.310519L265.044456 289.935835L264.858171 289.552991
L264.669007 289.162684L264.476301 288.763844L264.280481 288.357252
L264.081954 287.943664L263.880743 287.523206L263.676970 287.096176
L263.471027 286.663328L263.263275 286.225386L263.053520 285.782162
L262.841717 285.333729L262.628247 284.880856L262.413465 284.424278
L262.197314 283.964086L261.979731 283.500364L261.761072 283.033867
L261.540983 282.564255L261.319834 282.092314L261.097966 281.618789
L260.875393 281.143929L260.652188 280.668080L260.428438 280.191621
L260.204457 279.715257L259.980235 279.239231L259.755670 278.763657
L259.531069 278.289230L259.306257 277.815967L259.081537 277.344549
L258.856417 276.874583L258.631018 276.406501L258.405666 275.941003
L258.180659 275.478739L257.956003 275.019977L257.731361 274.564547
L257.506628 274.112575L257.282139 273.664727L257.057812 273.221146
L256.833969 272.782449L256.610653 272.348922L256.387481 271.920356
L256.164801 271.497360L255.942933 271.080482L255.721289 270.669293
L255.500022 270.264156L255.279495 269.865623L255.059101 269.473246
L254.839052 269.087404L254.619758 268.708644L254.401145 268.337024
L254.183610 267.973031L253.966824 267.616480L253.750790 267.267488
L253.535949 266.926521L253.321933 266.593330L253.108937 266.268141
L252.896982 265.951021L252.685928 265.641897L252.475710 265.340755
L252.266706 265.047902L252.059058 264.763450L251.852488 264.487193
L251.647650 264.219573L251.444645 263.960619L251.243342 263.710193
L251.044084 263.468446L250.848341 263.243282L250.656534 263.033135
L250.468724 262.836477L250.285503 262.652279L250.105084 262.478070
L249.928545 262.313511L249.756374 262.157986L249.588237 262.010432
L249.424396 261.870318L249.264694 261.736907L249.109264 261.609762
L248.958195 261.488486L248.811547 261.372731L248.669674 261.262430
L248.533134 261.157687L248.402305 261.058530L248.275793 260.963736
L248.153991 260.873426L248.036777 260.787371L247.924576 260.705752
L247.819201 260.630083L247.721323 260.560420L247.630627 260.496310
L247.544366 260.435706L247.465079 260.380330L247.393767 260.330783
L247.330168 260.286796L247.273642 260.247866L247.223470 260.213451
L247.178964 260.183045L247.139494 260.156185"/>
</g>
<g id="line2d16">
<g clip-path="url(#p7925595e59115e0f26db4807d9e1425e)"><use style="fill: none; stroke: #000000; stroke-width: 0.500000; stroke-linejoin: round; stroke-linecap: butt;  opacity: 1.000000" xlink:href="#m747cc61de9b2cf7f4795268aef228876" x="246.830923" y="259.953751"/>
</g></g>
<g id="line2d17">
<path style="fill: none; stroke: #008000; stroke-width: 1.000000; stroke-linejoin: round; stroke-linecap: square;  opacity: 1.000000" clip-path="url(#p7925595e59115e0f26db4807d9e1425e)" d="M268.061546 295.907371L268.060658 295.893982L268.058756 295.865424
L268.055956 295.822280L268.052238 295.763748L268.047728 295.690444
L268.042416 295.601616L268.036437 295.497912L268.029922 295.379950
L268.022914 295.247468L268.015544 295.101087L268.007936 294.941408
L268.000207 294.769004L267.992342 294.583043L267.984463 294.384141
L267.976688 294.172888L267.969039 293.948890L267.961629 293.712754
L267.954567 293.465059L267.947839 293.205139L267.941555 292.933610
L267.935816 292.651062L267.930712 292.358064L267.926206 292.053842
L267.922328 291.738361L267.919175 291.412255L267.916831 291.076133
L267.915339 290.730233L267.914716 290.374574L267.915033 290.009757
L267.916192 289.634813L267.918274 289.250411L267.921311 288.856825
L267.925252 288.453591L267.930169 288.041419L267.936050 287.620411
L267.942910 287.190847L267.950689 286.752439L267.959402 286.305547
L267.969109 285.850934L267.979761 285.388605L267.991331 284.918737
L268.003865 284.442114L268.017145 283.957667L268.031228 283.466281
L268.046159 282.968810L268.061833 282.465182L268.078106 281.955109
L268.095022 281.439527L268.112486 280.918528L268.130530 280.393049
L268.148973 279.862836L268.167585 279.327391L268.186419 278.787800
L268.205386 278.244469L268.224233 277.696943L268.242925 277.145950
L268.261510 276.592652L268.279767 276.036964L268.297640 275.479628
L268.314826 274.920335L268.331308 274.360000L268.346932 273.799019
L268.361643 273.238253L268.375363 272.678453L268.387816 272.119629
L268.398934 271.562615L268.408566 271.007952L268.416513 270.456050
L268.422429 269.906791L268.426451 269.361680L268.428399 268.821192
L268.427922 268.285309L268.425056 267.755154L268.419523 267.230908
L268.411528 266.714081L268.400578 266.204325L268.386763 265.702765
L268.370105 265.210269L268.350484 264.727333L268.323100 264.263609
L268.288959 263.818687L268.249273 263.392756L268.203918 262.982908
L268.154132 262.589772L268.100372 262.212136L268.043524 261.849998
L267.984573 261.503799L267.923550 261.171721L267.861167 260.853777
L267.797536 260.548676L267.733235 260.256411L267.668461 259.976125
L267.603802 259.708156L267.539000 259.450634L267.475402 259.206155
L267.412862 258.973376L267.351288 258.751187L267.290636 258.538687
L267.230885 258.335111L267.172550 258.141217L267.117188 257.963437
L267.064314 257.797824L267.013472 257.641651L266.966454 257.499019
L266.923919 257.371259L266.885752 257.257671L266.851617 257.156983
L266.821131 257.067834L266.793924 256.988941L266.769655 256.919140
L266.748015 256.857388L266.728722 256.802759L266.711527 256.754433
L266.696204 256.711685"/>
</g>
<g id="line2d18">
<g clip-path="url(#p7925595e59115e0f26db4807d9e1425e)"><use style="fill: none; stroke: #000000; stroke-width: 0.500000; stroke-linejoin: round; stroke-linecap: butt;  opacity: 1.000000" xlink:href="#m747cc61de9b2cf7f4795268aef228876" x="266.571869" y="256.384231"/>
</g></g>
<g id="line2d19">
<path style="fill: none; stroke: #ff0000; stroke-width: 1.000000; stroke-linejoin: round; stroke-linecap: square;  opacity: 1.000000" clip-path="url(#p7925595e59115e0f26db4807d9e1425e)" d="M268.061546 295.907371L257.605512 285.073669L251.304082 279.453679
L245.936056 275.472134L240.788554 272.468271L235.921569 270.420799
L231.909557 269.433920L230.873615 269.259732L230.873615 269.259732"/>
</g>
<g id="line2d20">
<g clip-path="url(#p7925595e59115e0f26db4807d9e1425e)"><use style="fill: none; stroke: #000000; stroke-width: 0.500000; stroke-linejoin: round; stroke-linecap: butt;  opacity: 1.000000" xlink:href="#m747cc61de9b2cf7f4795268aef228876" x="230.441825" y="269.199557"/>
</g></g>
<g id="line2d21">
<path style="fill: none; stroke: #00bfbf; stroke-width: 1.000000; stroke-linejoin: round; stroke-linecap: square;  opacity: 1.000000" clip-path="url(#p7925595e59115e0f26db4807d9e1425e)" d="M268.061546 295.907371L261.366836 291.707449L254.655339 288.270003
L248.148148 285.686349L241.792497 283.862772L235.145662 282.670471
L228.409519 282.175458L222.339886 282.383969L220.413304 282.599446
L220.413304 282.599446"/>
</g>
<g id="line2d22">
<g clip-path="url(#p7925595e59115e0f26db4807d9e1425e)"><use style="fill: none; stroke: #000000; stroke-width: 0.500000; stroke-linejoin: round; stroke-linecap: butt;  opacity: 1.000000" xlink:href="#m747cc61de9b2cf7f4795268aef228876" x="219.992054" y="282.661940"/>
</g></g>
<g id="line2d23">
<path style="fill: none; stroke: #bf00bf; stroke-width: 1.000000; stroke-linejoin: round; stroke-linecap: square;  opacity: 1.000000" clip-path="url(#p7925595e59115e0f26db4807d9e1425e)" d="M268.061546 295.907371L263.285313 294.599236L256.969811 293.561209
L249.953204 293.115354L242.287311 293.331964L234.163732 294.237993
L225.383955 295.901141L217.733948 298.001594L217.501753 298.081043
L217.501753 298.081043"/>
</g>
<g id="line2d24">
<g clip-path="url(#p7925595e59115e0f26db4807d9e1425e)"><use style="fill: none; stroke: #000000; stroke-width: 0.500000; stroke-linejoin: round; stroke-linecap: butt;  opacity: 1.000000" xlink:href="#m747cc61de9b2cf7f4795268aef228876" x="217.131398" y="298.215485"/>
</g></g>
<g id="line2d25">
<path style="fill: none; stroke: #bfbf00; stroke-width: 1.000000; stroke-linejoin: round; stroke-linecap: square;  opacity: 1.000000" clip-path="url(#p7925595e59115e0f26db4807d9e1425e)" d="M268.061546 295.907371L264.592447 296.492733L258.525474 298.201324
L249.187146 301.576486L234.467352 307.695068L222.642691 313.214447
L222.642691 313.214447"/>
</g>
<g id="line2d26">
<g clip-path="url(#p7925595e59115e0f26db4807d9e1425e)"><use style="fill: none; stroke: #000000; stroke-width: 0.500000; stroke-linejoin: round; stroke-linecap: butt;  opacity: 1.000000" xlink:href="#m747cc61de9b2cf7f4795268aef228876" x="222.311493" y="313.404629"/>
</g></g>
<g id="line2d27">
<path style="fill: none; stroke: #000000; stroke-width: 1.000000; stroke-linejoin: round; stroke-linecap: square;  opacity: 1.000000" clip-path="url(#p7925595e59115e0f26db4807d9e1425e)" d="M268.061546 295.907371L273.866798 298.597590L284.127251 302.690517
L292.696973 305.460045L299.112906 306.882823L303.931630 307.328226
L307.912836 307.030636L311.092935 306.097455L313.556411 304.704072
L315.776913 302.648512L317.439634 300.238668L318.842016 296.726590
L318.994528 296.220299L318.994528 296.220299"/>
</g>
<g id="line2d28">
<g clip-path="url(#p7925595e59115e0f26db4807d9e1425e)"><use style="fill: none; stroke: #000000; stroke-width: 0.500000; stroke-linejoin: round; stroke-linecap: butt;  opacity: 1.000000" xlink:href="#m747cc61de9b2cf7f4795268aef228876" x="319.078688" y="295.907371"/>
</g></g>
<g id="line2d29">
<path style="fill: none; stroke: #0000ff; stroke-width: 1.000000; stroke-linejoin: round; stroke-linecap: square;  opacity: 1.000000" clip-path="url(#p7925595e59115e0f26db4807d9e1425e)" d="M268.061546 295.907371L265.879983 297.830382L258.234898 305.655230
L250.251193 313.306325L242.611251 319.662885L234.986378 325.586904
L234.986378 325.586904"/>
</g>
<g id="line2d30">
<g clip-path="url(#p7925595e59115e0f26db4807d9e1425e)"><use style="fill: none; stroke: #000000; stroke-width: 0.500000; stroke-linejoin: round; stroke-linecap: butt;  opacity: 1.000000" xlink:href="#m747cc61de9b2cf7f4795268aef228876" x="234.714516" y="325.831342"/>
</g></g>
<g id="line2d31">
<path style="fill: none; stroke: #008000; stroke-width: 1.000000; stroke-linejoin: round; stroke-linecap: square;  opacity: 1.000000" clip-path="url(#p7925595e59115e0f26db4807d9e1425e)" d="M268.061546 295.907371L266.469307 300.385482L259.912599 319.491892
L256.874518 325.838147L252.545357 333.213386L252.545357 333.213386"/>
</g>
<g id="line2d32">
<g clip-path="url(#p7925595e59115e0f26db4807d9e1425e)"><use style="fill: none; stroke: #000000; stroke-width: 0.500000; stroke-linejoin: round; stroke-linecap: butt;  opacity: 1.000000" xlink:href="#m747cc61de9b2cf7f4795268aef228876" x="252.382301" y="333.533717"/>
</g></g>
<g id="line2d33">
<path style="fill: none; stroke: #000000; stroke-width: 1.000000; stroke-linejoin: round; stroke-linecap: square;  opacity: 1.000000" clip-path="url(#p7925595e59115e0f26db4807d9e1425e)" d="M708.486778 504.135000L714.337947 495.606183L719.407231 486.781806
L723.669934 477.704862L727.105287 468.419571L729.696555 458.971171
L731.431112 449.405694L732.300508 439.769741L732.300508 430.110259
L731.431112 420.474306L729.696555 410.908829L727.105287 401.460429
L723.669934 392.175138L719.407231 383.098194L714.337947 374.273817
L708.486778 365.745000L701.882231 357.553294L694.556483 349.738608
L686.545222 342.339015L677.887481 335.390565L668.625438 328.927110
L658.804217 322.980138L648.471666 317.578624L637.678125 312.748883
L626.476177 308.514444L614.920399 304.895938L603.067089 301.910994
L590.973994 299.574154L578.700031 297.896802L566.304998 296.887111
L553.849282 296.550000L541.393566 296.887111L528.998533 297.896802
L516.724571 299.574154L504.631476 301.910994L492.778166 304.895938
L481.222387 308.514444L470.020440 312.748883L459.226899 317.578624
L448.894348 322.980138L439.073127 328.927110L431.596923 327.596773
L423.967258 326.982502L416.297874 327.093453L408.703102 327.927972
L401.296163 329.473618L394.187478 331.707350L387.483021 334.595867
L381.282740 338.096109L376.439794 341.543876L372.088377 345.365098
L368.276164 349.517908L365.044923 353.956808L362.430055 358.633164
L360.460210 363.495741L359.156970 368.491264L358.534614 373.564999
L358.599959 378.661360L359.352290 383.724508L360.783365 388.698971
L362.877504 393.530248L365.611763 398.165406L368.956186 402.553661
L372.874129 406.646935L377.322668 410.400381L382.253063 413.772876
L387.611296 416.727469L392.361084 418.846899L390.626267 420.421155
L379.521378 424.806468L368.048842 428.580729L356.264552 431.725549
L344.225921 434.225607L331.991599 436.068723L319.621190 437.245918
L307.174962 437.751456L294.713552 437.582875L282.297671 436.740996
L269.987807 435.229920L257.843932 433.057009L245.925211 430.232849
L234.289710 426.771200L222.994117 422.688927L212.093462 418.005916
L201.640852 412.744985L191.687212 406.931763L182.281034 400.594573
L173.468144 393.764287L165.291478 386.474183L157.790872 378.759777
L151.002868 370.658653L144.960536 362.210279L139.693314 353.455815
L135.226864 344.437911L131.582945 335.200501L128.779311 325.788591
L126.829620 316.248032L125.743371 306.625307L125.525856 296.967295
L126.178135 287.321051L127.697031 277.733568L130.075142 268.251557
L133.300884 258.921214L137.358540 249.787993L142.228342 240.896392
L147.886566 232.289730L154.305644 224.009938L161.454304 216.097353
L167.273765 210.427156L178.777611 200.349601L190.946203 190.752478
L203.746185 181.662091L217.142476 173.103356L231.098356 165.099733
L245.575573 157.673159L260.534446 150.843989L275.933975 144.630942
L291.731949 139.051048L307.885069 134.119600L324.349058 129.850115
L341.078792 126.254295L358.028414 123.341998L375.151466 121.121204
L392.401017 119.598001L409.729785 118.776564L427.090275 118.659144
L444.434901 119.246063L461.716124 120.535714L478.886577 122.524559
L495.899198 125.207150L512.707354 128.576132L529.264978 132.622271
L545.526685 137.334478L561.447903 142.699836L576.984993 148.703639
L592.095369 155.329432L606.737615 162.559053L620.871597 170.372688
L634.458575 178.748918L647.461308 187.664785L659.844156 197.095852
L671.573179 207.016269L682.616229 217.398844L692.943037 228.215120
L702.525298 239.435450L711.336748 251.029080L719.353235 262.964232
L726.552787 275.208193L732.915670 287.727403L738.424443 300.487548
L743.064009 313.453654L746.821650 326.590180L749.687066 339.861121
L751.652404 353.230103L752.712277 366.660480L752.863780 380.115443
L752.106497 393.558111L750.442504 406.951640L747.876363 420.259318
L744.415106 433.444670L740.068221 446.471557L734.847623 459.304271
L728.767620 471.907641L721.844877 484.247119L714.098370 496.288886
L708.486778 504.135000L708.486778 504.135000"/>
</g>
<g id="matplotlib.axis1">
<g id="xtick1">
<g id="line2d34">
<defs><path id="m30e32995789d870ad79a2e54c91cf9c6" d="M0.000000 0.000000L0.000000 -4.000000"/></defs>
<g ><use style="fill: none; stroke: #000000; stroke-width: 0.500000; stroke-linejoin: round; stroke-linecap: butt;  opacity: 1.000000" xlink:href="#m30e32995789d870ad79a2e54c91cf9c6" x="115.200000" y="533.790000"/>
</g></g>
<g id="line2d35">
<defs><path id="m9281cae24120827b11d5ea8a7ad3e96b" d="M0.000000 0.000000L0.000000 4.000000"/></defs>
<g ><use style="fill: none; stroke: #000000; stroke-width: 0.500000; stroke-linejoin: round; stroke-linecap: butt;  opacity: 1.000000" xlink:href="#m9281cae24120827b11d5ea8a7ad3e96b" x="115.200000" y="59.310000"/>
</g></g>
<g id="text1">
<defs>
<path id="c_6a8d56c819c37117ab4cf023bec22a5a" d="M10.593750 -35.500000l62.593750 0.000000l0.000000 8.296875l-62.593750 0.000000z"/>
<path id="c_7a2040fe3b94fcd41d0a72c84e93b115" d="M31.781250 -66.406250q-7.609375 0.000000 -11.453125 7.500000q-3.828125 7.484375 -3.828125 22.531250q0.000000 14.984375 3.828125 22.484375q3.843750 7.500000 11.453125 7.500000q7.671875 0.000000 11.500000 -7.500000q3.843750 -7.500000 3.843750 -22.484375q0.000000 -15.046875 -3.843750 -22.531250q-3.828125 -7.500000 -11.500000 -7.500000M31.781250 -74.218750q12.265625 0.000000 18.734375 9.703125q6.468750 9.687500 6.468750 28.140625q0.000000 18.406250 -6.468750 28.109375q-6.468750 9.687500 -18.734375 9.687500q-12.250000 0.000000 -18.718750 -9.687500q-6.468750 -9.703125 -6.468750 -28.109375q0.000000 -18.453125 6.468750 -28.140625q6.468750 -9.703125 18.718750 -9.703125"/>
<path id="c_ed3e21196fb739f392806f09ca0594ef" d="M10.687500 -12.406250l10.312500 0.000000l0.000000 12.406250l-10.312500 0.000000z"/>
<path id="c_cc8d6d580d1b10c8632f7a42cd53db8a" d="M33.015625 -40.375000q-6.640625 0.000000 -10.531250 4.546875q-3.875000 4.531250 -3.875000 12.437500q0.000000 7.859375 3.875000 12.437500q3.890625 4.562500 10.531250 4.562500q6.640625 0.000000 10.515625 -4.562500q3.875000 -4.578125 3.875000 -12.437500q0.000000 -7.906250 -3.875000 -12.437500q-3.875000 -4.546875 -10.515625 -4.546875M52.593750 -71.296875l0.000000 8.984375q-3.718750 -1.750000 -7.500000 -2.671875q-3.781250 -0.937500 -7.500000 -0.937500q-9.765625 0.000000 -14.921875 6.593750q-5.140625 6.593750 -5.875000 19.921875q2.875000 -4.250000 7.218750 -6.515625q4.359375 -2.265625 9.578125 -2.265625q10.984375 0.000000 17.359375 6.671875q6.375000 6.656250 6.375000 18.125000q0.000000 11.234375 -6.640625 18.031250q-6.640625 6.781250 -17.671875 6.781250q-12.656250 0.000000 -19.343750 -9.687500q-6.687500 -9.703125 -6.687500 -28.109375q0.000000 -17.281250 8.203125 -27.562500q8.203125 -10.281250 22.015625 -10.281250q3.718750 0.000000 7.500000 0.734375q3.781250 0.734375 7.890625 2.187500"/>
</defs>
<g style="fill: #000000; opacity: 1.000000" transform="translate(101.637500,546.696250)scale(0.120000)">
<use xlink:href="#c_6a8d56c819c37117ab4cf023bec22a5a"/>
<use xlink:href="#c_7a2040fe3b94fcd41d0a72c84e93b115" x="83.789062"/>
<use xlink:href="#c_ed3e21196fb739f392806f09ca0594ef" x="147.412109"/>
<use xlink:href="#c_cc8d6d580d1b10c8632f7a42cd53db8a" x="179.199219"/>
</g>
</g>
</g>
<g id="xtick2">
<g id="line2d36">
<g ><use style="fill: none; stroke: #000000; stroke-width: 0.500000; stroke-linejoin: round; stroke-linecap: butt;  opacity: 1.000000" xlink:href="#m30e32995789d870ad79a2e54c91cf9c6" x="217.234286" y="533.790000"/>
</g></g>
<g id="line2d37">
<g ><use style="fill: none; stroke: #000000; stroke-width: 0.500000; stroke-linejoin: round; stroke-linecap: butt;  opacity: 1.000000" xlink:href="#m9281cae24120827b11d5ea8a7ad3e96b" x="217.234286" y="59.310000"/>
</g></g>
<g id="text2">
<defs>
<path id="c_a0416418d96557a09b8c1332d34883ba" d="M37.796875 -64.312500l-24.906250 38.921875l24.906250 0.000000zM35.203125 -72.906250l12.406250 0.000000l0.000000 47.515625l10.406250 0.000000l0.000000 8.203125l-10.406250 0.000000l0.000000 17.187500l-9.812500 0.000000l0.000000 -17.187500l-32.906250 0.000000l0.000000 -9.515625z"/>
</defs>
<g style="fill: #000000; opacity: 1.000000" transform="translate(203.624911,546.696250)scale(0.120000)">
<use xlink:href="#c_6a8d56c819c37117ab4cf023bec22a5a"/>
<use xlink:href="#c_7a2040fe3b94fcd41d0a72c84e93b115" x="83.789062"/>
<use xlink:href="#c_ed3e21196fb739f392806f09ca0594ef" x="147.412109"/>
<use xlink:href="#c_a0416418d96557a09b8c1332d34883ba" x="179.199219"/>
</g>
</g>
</g>
<g id="xtick3">
<g id="line2d38">
<g ><use style="fill: none; stroke: #000000; stroke-width: 0.500000; stroke-linejoin: round; stroke-linecap: butt;  opacity: 1.000000" xlink:href="#m30e32995789d870ad79a2e54c91cf9c6" x="319.268571" y="533.790000"/>
</g></g>
<g id="line2d39">
<g ><use style="fill: none; stroke: #000000; stroke-width: 0.500000; stroke-linejoin: round; stroke-linecap: butt;  opacity: 1.000000" xlink:href="#m9281cae24120827b11d5ea8a7ad3e96b" x="319.268571" y="59.310000"/>
</g></g>
<g id="text3">
<defs>
<path id="c_ed3f3ed3ebfbd18bcb9c012009a68ad1" d="M19.187500 -8.296875l34.421875 0.000000l0.000000 8.296875l-46.281250 0.000000l0.000000 -8.296875q5.609375 -5.812500 15.296875 -15.593750q9.703125 -9.796875 12.187500 -12.640625q4.734375 -5.312500 6.609375 -9.000000q1.890625 -3.687500 1.890625 -7.250000q0.000000 -5.812500 -4.078125 -9.468750q-4.078125 -3.671875 -10.625000 -3.671875q-4.640625 0.000000 -9.796875 1.609375q-5.140625 1.609375 -11.000000 4.890625l0.000000 -9.968750q5.953125 -2.390625 11.125000 -3.609375q5.187500 -1.218750 9.484375 -1.218750q11.328125 0.000000 18.062500 5.671875q6.734375 5.656250 6.734375 15.125000q0.000000 4.500000 -1.687500 8.531250q-1.671875 4.015625 -6.125000 9.484375q-1.218750 1.421875 -7.765625 8.187500q-6.531250 6.765625 -18.453125 18.921875"/>
</defs>
<g style="fill: #000000; opacity: 1.000000" transform="translate(305.924821,546.696250)scale(0.120000)">
<use xlink:href="#c_6a8d56c819c37117ab4cf023bec22a5a"/>
<use xlink:href="#c_7a2040fe3b94fcd41d0a72c84e93b115" x="83.789062"/>
<use xlink:href="#c_ed3e21196fb739f392806f09ca0594ef" x="147.412109"/>
<use xlink:href="#c_ed3f3ed3ebfbd18bcb9c012009a68ad1" x="179.199219"/>
</g>
</g>
</g>
<g id="xtick4">
<g id="line2d40">
<g ><use style="fill: none; stroke: #000000; stroke-width: 0.500000; stroke-linejoin: round; stroke-linecap: butt;  opacity: 1.000000" xlink:href="#m30e32995789d870ad79a2e54c91cf9c6" x="421.302857" y="533.790000"/>
</g></g>
<g id="line2d41">
<g ><use style="fill: none; stroke: #000000; stroke-width: 0.500000; stroke-linejoin: round; stroke-linecap: butt;  opacity: 1.000000" xlink:href="#m9281cae24120827b11d5ea8a7ad3e96b" x="421.302857" y="59.310000"/>
</g></g>
<g id="text4">
<g style="fill: #000000; opacity: 1.000000" transform="translate(412.552857,546.696250)scale(0.120000)">
<use xlink:href="#c_7a2040fe3b94fcd41d0a72c84e93b115"/>
<use xlink:href="#c_ed3e21196fb739f392806f09ca0594ef" x="63.623047"/>
<use xlink:href="#c_7a2040fe3b94fcd41d0a72c84e93b115" x="95.410156"/>
</g>
</g>
</g>
<g id="xtick5">
<g id="line2d42">
<g ><use style="fill: none; stroke: #000000; stroke-width: 0.500000; stroke-linejoin: round; stroke-linecap: butt;  opacity: 1.000000" xlink:href="#m30e32995789d870ad79a2e54c91cf9c6" x="523.337143" y="533.790000"/>
</g></g>
<g id="line2d43">
<g ><use style="fill: none; stroke: #000000; stroke-width: 0.500000; stroke-linejoin: round; stroke-linecap: butt;  opacity: 1.000000" xlink:href="#m9281cae24120827b11d5ea8a7ad3e96b" x="523.337143" y="59.310000"/>
</g></g>
<g id="text5">
<g style="fill: #000000; opacity: 1.000000" transform="translate(514.790268,546.696250)scale(0.120000)">
<use xlink:href="#c_7a2040fe3b94fcd41d0a72c84e93b115"/>
<use xlink:href="#c_ed3e21196fb739f392806f09ca0594ef" x="63.623047"/>
<use xlink:href="#c_ed3f3ed3ebfbd18bcb9c012009a68ad1" x="95.410156"/>
</g>
</g>
</g>
<g id="xtick6">
<g id="line2d44">
<g ><use style="fill: none; stroke: #000000; stroke-width: 0.500000; stroke-linejoin: round; stroke-linecap: butt;  opacity: 1.000000" xlink:href="#m30e32995789d870ad79a2e54c91cf9c6" x="625.371429" y="533.790000"/>
</g></g>
<g id="line2d45">
<g ><use style="fill: none; stroke: #000000; stroke-width: 0.500000; stroke-linejoin: round; stroke-linecap: butt;  opacity: 1.000000" xlink:href="#m9281cae24120827b11d5ea8a7ad3e96b" x="625.371429" y="59.310000"/>
</g></g>
<g id="text6">
<g style="fill: #000000; opacity: 1.000000" transform="translate(616.558929,546.696250)scale(0.120000)">
<use xlink:href="#c_7a2040fe3b94fcd41d0a72c84e93b115"/>
<use xlink:href="#c_ed3e21196fb739f392806f09ca0594ef" x="63.623047"/>
<use xlink:href="#c_a0416418d96557a09b8c1332d34883ba" x="95.410156"/>
</g>
</g>
</g>
<g id="xtick7">
<g id="line2d46">
<g ><use style="fill: none; stroke: #000000; stroke-width: 0.500000; stroke-linejoin: round; stroke-linecap: butt;  opacity: 1.000000" xlink:href="#m30e32995789d870ad79a2e54c91cf9c6" x="727.405714" y="533.790000"/>
</g></g>
<g id="line2d47">
<g ><use style="fill: none; stroke: #000000; stroke-width: 0.500000; stroke-linejoin: round; stroke-linecap: butt;  opacity: 1.000000" xlink:href="#m9281cae24120827b11d5ea8a7ad3e96b" x="727.405714" y="59.310000"/>
</g></g>
<g id="text7">
<g style="fill: #000000; opacity: 1.000000" transform="translate(718.640089,546.696250)scale(0.120000)">
<use xlink:href="#c_7a2040fe3b94fcd41d0a72c84e93b115"/>
<use xlink:href="#c_ed3e21196fb739f392806f09ca0594ef" x="63.623047"/>
<use xlink:href="#c_cc8d6d580d1b10c8632f7a42cd53db8a" x="95.410156"/>
</g>
</g>
</g>
<g id="xtick8">
<g id="line2d48">
<g ><use style="fill: none; stroke: #000000; stroke-width: 0.500000; stroke-linejoin: round; stroke-linecap: butt;  opacity: 1.000000" xlink:href="#m30e32995789d870ad79a2e54c91cf9c6" x="829.440000" y="533.790000"/>
</g></g>
<g id="line2d49">
<g ><use style="fill: none; stroke: #000000; stroke-width: 0.500000; stroke-linejoin: round; stroke-linecap: butt;  opacity: 1.000000" xlink:href="#m9281cae24120827b11d5ea8a7ad3e96b" x="829.440000" y="59.310000"/>
</g></g>
<g id="text8">
<defs>
<path id="c_bef35738d52871942e50b9de9b122bab" d="M31.781250 -34.625000q-7.031250 0.000000 -11.062500 3.765625q-4.015625 3.765625 -4.015625 10.343750q0.000000 6.593750 4.015625 10.359375q4.031250 3.765625 11.062500 3.765625q7.031250 0.000000 11.078125 -3.781250q4.062500 -3.796875 4.062500 -10.343750q0.000000 -6.578125 -4.031250 -10.343750q-4.015625 -3.765625 -11.109375 -3.765625M21.921875 -38.812500q-6.343750 -1.562500 -9.890625 -5.906250q-3.531250 -4.359375 -3.531250 -10.609375q0.000000 -8.734375 6.218750 -13.812500q6.234375 -5.078125 17.062500 -5.078125q10.890625 0.000000 17.093750 5.078125q6.203125 5.078125 6.203125 13.812500q0.000000 6.250000 -3.546875 10.609375q-3.531250 4.343750 -9.828125 5.906250q7.125000 1.656250 11.093750 6.500000q3.984375 4.828125 3.984375 11.796875q0.000000 10.609375 -6.468750 16.281250q-6.468750 5.656250 -18.531250 5.656250q-12.046875 0.000000 -18.531250 -5.656250q-6.468750 -5.671875 -6.468750 -16.281250q0.000000 -6.968750 4.000000 -11.796875q4.015625 -4.843750 11.140625 -6.500000M18.312500 -54.390625q0.000000 5.656250 3.531250 8.828125q3.546875 3.171875 9.937500 3.171875q6.359375 0.000000 9.937500 -3.171875q3.593750 -3.171875 3.593750 -8.828125q0.000000 -5.671875 -3.593750 -8.843750q-3.578125 -3.171875 -9.937500 -3.171875q-6.390625 0.000000 -9.937500 3.171875q-3.531250 3.171875 -3.531250 8.843750"/>
</defs>
<g style="fill: #000000; opacity: 1.000000" transform="translate(820.705625,546.696250)scale(0.120000)">
<use xlink:href="#c_7a2040fe3b94fcd41d0a72c84e93b115"/>
<use xlink:href="#c_ed3e21196fb739f392806f09ca0594ef" x="63.623047"/>
<use xlink:href="#c_bef35738d52871942e50b9de9b122bab" x="95.410156"/>
</g>
</g>
</g>
<g id="text9">
<defs>
<path id="c_518d586bee075aa0153eaebfcb5ab11f" d="M19.671875 -64.796875l0.000000 27.390625l12.406250 0.000000q6.890625 0.000000 10.640625 -3.562500q3.765625 -3.562500 3.765625 -10.156250q0.000000 -6.546875 -3.765625 -10.109375q-3.750000 -3.562500 -10.640625 -3.562500zM9.812500 -72.906250l22.265625 0.000000q12.265625 0.000000 18.531250 5.546875q6.281250 5.546875 6.281250 16.234375q0.000000 10.796875 -6.281250 16.312500q-6.265625 5.515625 -18.531250 5.515625l-12.406250 0.000000l0.000000 29.296875l-9.859375 0.000000z"/>
<path id="c_f05dd90d41f04bb96ef1ca503cc2044b" d="M30.609375 -48.390625q-7.218750 0.000000 -11.421875 5.640625q-4.203125 5.640625 -4.203125 15.453125q0.000000 9.812500 4.171875 15.453125q4.187500 5.640625 11.453125 5.640625q7.187500 0.000000 11.375000 -5.656250q4.203125 -5.671875 4.203125 -15.437500q0.000000 -9.718750 -4.203125 -15.406250q-4.187500 -5.687500 -11.375000 -5.687500M30.609375 -56.000000q11.718750 0.000000 18.406250 7.625000q6.703125 7.609375 6.703125 21.078125q0.000000 13.421875 -6.703125 21.078125q-6.687500 7.640625 -18.406250 7.640625q-11.765625 0.000000 -18.437500 -7.640625q-6.656250 -7.656250 -6.656250 -21.078125q0.000000 -13.468750 6.656250 -21.078125q6.671875 -7.625000 18.437500 -7.625000"/>
<path id="c_8e0810ad13fe20a2a87a2619799b154d" d="M44.281250 -53.078125l0.000000 8.500000q-3.796875 -1.953125 -7.906250 -2.921875q-4.093750 -0.984375 -8.500000 -0.984375q-6.687500 0.000000 -10.031250 2.046875q-3.343750 2.046875 -3.343750 6.156250q0.000000 3.125000 2.390625 4.906250q2.390625 1.781250 9.625000 3.390625l3.078125 0.687500q9.562500 2.046875 13.593750 5.781250q4.031250 3.734375 4.031250 10.421875q0.000000 7.625000 -6.031250 12.078125q-6.031250 4.437500 -16.578125 4.437500q-4.390625 0.000000 -9.156250 -0.859375q-4.765625 -0.859375 -10.031250 -2.562500l0.000000 -9.281250q4.984375 2.593750 9.812500 3.890625q4.828125 1.281250 9.578125 1.281250q6.343750 0.000000 9.750000 -2.171875q3.421875 -2.171875 3.421875 -6.125000q0.000000 -3.656250 -2.468750 -5.609375q-2.453125 -1.953125 -10.812500 -3.765625l-3.125000 -0.734375q-8.343750 -1.750000 -12.062500 -5.390625q-3.703125 -3.640625 -3.703125 -9.984375q0.000000 -7.718750 5.468750 -11.906250q5.468750 -4.203125 15.531250 -4.203125q4.968750 0.000000 9.359375 0.734375q4.406250 0.718750 8.109375 2.187500"/>
<path id="c_6a63bda47b2f3da1cec6aadd80692cfe" d="M9.421875 -54.687500l8.984375 0.000000l0.000000 54.687500l-8.984375 0.000000zM9.421875 -75.984375l8.984375 0.000000l0.000000 11.390625l-8.984375 0.000000z"/>
<path id="c_0f8c41144cfbf448378cb6fd1cc8e549" d="M18.312500 -70.218750l0.000000 15.531250l18.500000 0.000000l0.000000 6.984375l-18.500000 0.000000l0.000000 29.687500q0.000000 6.687500 1.828125 8.593750q1.828125 1.906250 7.453125 1.906250l9.218750 0.000000l0.000000 7.515625l-9.218750 0.000000q-10.406250 0.000000 -14.359375 -3.875000q-3.953125 -3.890625 -3.953125 -14.140625l0.000000 -29.687500l-6.593750 0.000000l0.000000 -6.984375l6.593750 0.000000l0.000000 -15.531250z"/>
<path id="c_fe791a90f5471e2ab20a5ed41a7fa451" d="M54.890625 -33.015625l0.000000 33.015625l-8.984375 0.000000l0.000000 -32.718750q0.000000 -7.765625 -3.031250 -11.609375q-3.031250 -3.859375 -9.078125 -3.859375q-7.281250 0.000000 -11.484375 4.640625q-4.203125 4.625000 -4.203125 12.640625l0.000000 30.906250l-9.031250 0.000000l0.000000 -54.687500l9.031250 0.000000l0.000000 8.500000q3.234375 -4.937500 7.593750 -7.375000q4.375000 -2.437500 10.093750 -2.437500q9.421875 0.000000 14.250000 5.828125q4.843750 5.828125 4.843750 17.156250"/>
<path id="c_d41d8cd98f00b204e9800998ecf8427e" d=""/>
<path id="c_74d54c94aa871ec39e2bc6697dde6c00" d="M54.890625 -33.015625l0.000000 33.015625l-8.984375 0.000000l0.000000 -32.718750q0.000000 -7.765625 -3.031250 -11.609375q-3.031250 -3.859375 -9.078125 -3.859375q-7.281250 0.000000 -11.484375 4.640625q-4.203125 4.625000 -4.203125 12.640625l0.000000 30.906250l-9.031250 0.000000l0.000000 -75.984375l9.031250 0.000000l0.000000 29.796875q3.234375 -4.937500 7.593750 -7.375000q4.375000 -2.437500 10.093750 -2.437500q9.421875 0.000000 14.250000 5.828125q4.843750 5.828125 4.843750 17.156250"/>
<path id="c_6ec8d5749226675394676a5d2a3b468b" d="M41.109375 -46.296875q-1.515625 -0.875000 -3.296875 -1.281250q-1.781250 -0.421875 -3.921875 -0.421875q-7.625000 0.000000 -11.703125 4.953125q-4.078125 4.953125 -4.078125 14.234375l0.000000 28.812500l-9.031250 0.000000l0.000000 -54.687500l9.031250 0.000000l0.000000 8.500000q2.843750 -4.984375 7.375000 -7.390625q4.546875 -2.421875 11.046875 -2.421875q0.921875 0.000000 2.046875 0.125000q1.125000 0.109375 2.484375 0.359375z"/>
<path id="c_9f267d35ece7e6f3f1d851c2e17a8dec" d="M5.515625 -54.687500l42.671875 0.000000l0.000000 8.203125l-33.781250 39.312500l33.781250 0.000000l0.000000 7.171875l-43.890625 0.000000l0.000000 -8.203125l33.796875 -39.312500l-32.578125 0.000000z"/>
<path id="c_01d93a582460e35a7945ca50d148ffeb" d="M34.281250 -27.484375q-10.890625 0.000000 -15.093750 2.484375q-4.203125 2.484375 -4.203125 8.500000q0.000000 4.781250 3.156250 7.593750q3.156250 2.796875 8.562500 2.796875q7.484375 0.000000 12.000000 -5.296875q4.515625 -5.296875 4.515625 -14.078125l0.000000 -2.000000zM52.203125 -31.203125l0.000000 31.203125l-8.984375 0.000000l0.000000 -8.296875q-3.078125 4.968750 -7.671875 7.343750q-4.593750 2.375000 -11.234375 2.375000q-8.390625 0.000000 -13.359375 -4.718750q-4.953125 -4.718750 -4.953125 -12.625000q0.000000 -9.218750 6.171875 -13.906250q6.187500 -4.687500 18.437500 -4.687500l12.609375 0.000000l0.000000 -0.890625q0.000000 -6.203125 -4.078125 -9.593750q-4.078125 -3.390625 -11.453125 -3.390625q-4.687500 0.000000 -9.140625 1.125000q-4.437500 1.125000 -8.531250 3.375000l0.000000 -8.312500q4.921875 -1.906250 9.562500 -2.843750q4.640625 -0.953125 9.031250 -0.953125q11.875000 0.000000 17.734375 6.156250q5.859375 6.140625 5.859375 18.640625"/>
<path id="c_5099edb83619131346ae654950954dea" d="M9.421875 -75.984375l8.984375 0.000000l0.000000 75.984375l-8.984375 0.000000z"/>
<path id="c_0bce5afba2dc6b9024b26277c38ad8e8" d="M56.203125 -29.593750l0.000000 4.390625l-41.312500 0.000000q0.593750 9.281250 5.593750 14.140625q5.000000 4.859375 13.937500 4.859375q5.171875 0.000000 10.031250 -1.265625q4.859375 -1.265625 9.656250 -3.812500l0.000000 8.500000q-4.843750 2.046875 -9.921875 3.125000q-5.078125 1.078125 -10.296875 1.078125q-13.093750 0.000000 -20.734375 -7.609375q-7.640625 -7.625000 -7.640625 -20.625000q0.000000 -13.421875 7.250000 -21.296875q7.250000 -7.890625 19.562500 -7.890625q11.031250 0.000000 17.453125 7.109375q6.421875 7.093750 6.421875 19.296875M47.218750 -32.234375q-0.093750 -7.359375 -4.125000 -11.750000q-4.031250 -4.406250 -10.671875 -4.406250q-7.515625 0.000000 -12.031250 4.250000q-4.515625 4.250000 -5.203125 11.968750z"/>
<path id="c_d821beae607506e87470f334d9ff47af" d="M45.406250 -46.390625l0.000000 -29.593750l8.984375 0.000000l0.000000 75.984375l-8.984375 0.000000l0.000000 -8.203125q-2.828125 4.875000 -7.156250 7.250000q-4.312500 2.375000 -10.375000 2.375000q-9.906250 0.000000 -16.140625 -7.906250q-6.218750 -7.921875 -6.218750 -20.812500q0.000000 -12.890625 6.218750 -20.796875q6.234375 -7.906250 16.140625 -7.906250q6.062500 0.000000 10.375000 2.375000q4.328125 2.359375 7.156250 7.234375M14.796875 -27.296875q0.000000 9.906250 4.078125 15.546875q4.078125 5.640625 11.203125 5.640625q7.125000 0.000000 11.218750 -5.640625q4.109375 -5.640625 4.109375 -15.546875q0.000000 -9.906250 -4.109375 -15.546875q-4.093750 -5.640625 -11.218750 -5.640625q-7.125000 0.000000 -11.203125 5.640625q-4.078125 5.640625 -4.078125 15.546875"/>
<path id="c_3b515ad41f960e225ec85275856806ca" d="M8.500000 -21.578125l0.000000 -33.109375l8.984375 0.000000l0.000000 32.765625q0.000000 7.765625 3.015625 11.656250q3.031250 3.875000 9.093750 3.875000q7.265625 0.000000 11.484375 -4.640625q4.234375 -4.640625 4.234375 -12.656250l0.000000 -31.000000l8.984375 0.000000l0.000000 54.687500l-8.984375 0.000000l0.000000 -8.406250q-3.265625 4.984375 -7.593750 7.406250q-4.312500 2.421875 -10.031250 2.421875q-9.421875 0.000000 -14.312500 -5.859375q-4.875000 -5.859375 -4.875000 -17.140625M31.109375 -56.000000z"/>
<path id="c_f15a64fcd463ef4629c48bab42cde24c" d="M18.109375 -8.203125l0.000000 29.000000l-9.031250 0.000000l0.000000 -75.484375l9.031250 0.000000l0.000000 8.296875q2.843750 -4.875000 7.156250 -7.234375q4.328125 -2.375000 10.328125 -2.375000q9.968750 0.000000 16.187500 7.906250q6.234375 7.906250 6.234375 20.796875q0.000000 12.890625 -6.234375 20.812500q-6.218750 7.906250 -16.187500 7.906250q-6.000000 0.000000 -10.328125 -2.375000q-4.312500 -2.375000 -7.156250 -7.250000M48.687500 -27.296875q0.000000 -9.906250 -4.078125 -15.546875q-4.078125 -5.640625 -11.203125 -5.640625q-7.140625 0.000000 -11.218750 5.640625q-4.078125 5.640625 -4.078125 15.546875q0.000000 9.906250 4.078125 15.546875q4.078125 5.640625 11.218750 5.640625q7.125000 0.000000 11.203125 -5.640625q4.078125 -5.640625 4.078125 -15.546875"/>
<path id="c_e3864de5dabf2f8dd9eee74726882ec1" d="M45.406250 -27.984375q0.000000 -9.765625 -4.031250 -15.125000q-4.015625 -5.375000 -11.296875 -5.375000q-7.218750 0.000000 -11.250000 5.375000q-4.031250 5.359375 -4.031250 15.125000q0.000000 9.718750 4.031250 15.093750q4.031250 5.375000 11.250000 5.375000q7.281250 0.000000 11.296875 -5.375000q4.031250 -5.375000 4.031250 -15.093750M54.390625 -6.781250q0.000000 13.953125 -6.203125 20.765625q-6.187500 6.812500 -18.984375 6.812500q-4.734375 0.000000 -8.937500 -0.703125q-4.203125 -0.703125 -8.156250 -2.171875l0.000000 -8.734375q3.953125 2.140625 7.812500 3.156250q3.859375 1.031250 7.859375 1.031250q8.843750 0.000000 13.234375 -4.609375q4.390625 -4.609375 4.390625 -13.937500l0.000000 -4.453125q-2.781250 4.843750 -7.125000 7.234375q-4.343750 2.390625 -10.406250 2.390625q-10.046875 0.000000 -16.203125 -7.656250q-6.156250 -7.671875 -6.156250 -20.328125q0.000000 -12.687500 6.156250 -20.343750q6.156250 -7.671875 16.203125 -7.671875q6.062500 0.000000 10.406250 2.390625q4.343750 2.390625 7.125000 7.218750l0.000000 -8.296875l8.984375 0.000000z"/>
<path id="c_7efa9804c2b4c09a4b614b91fdebee3d" d="M31.000000 -75.875000q-6.531250 11.218750 -9.718750 22.218750q-3.171875 10.984375 -3.171875 22.265625q0.000000 11.265625 3.203125 22.328125q3.203125 11.062500 9.687500 22.250000l-7.812500 0.000000q-7.312500 -11.484375 -10.953125 -22.562500q-3.640625 -11.078125 -3.640625 -22.015625q0.000000 -10.890625 3.609375 -21.921875q3.625000 -11.046875 10.984375 -22.562500z"/>
<path id="c_4653c6dfde66c7610eae0911760d3490" d="M52.000000 -44.187500q3.375000 -6.062500 8.062500 -8.937500q4.687500 -2.875000 11.031250 -2.875000q8.546875 0.000000 13.187500 5.984375q4.640625 5.968750 4.640625 17.000000l0.000000 33.015625l-9.031250 0.000000l0.000000 -32.718750q0.000000 -7.859375 -2.796875 -11.656250q-2.781250 -3.812500 -8.484375 -3.812500q-6.984375 0.000000 -11.046875 4.640625q-4.046875 4.625000 -4.046875 12.640625l0.000000 30.906250l-9.031250 0.000000l0.000000 -32.718750q0.000000 -7.906250 -2.781250 -11.687500q-2.781250 -3.781250 -8.593750 -3.781250q-6.890625 0.000000 -10.953125 4.656250q-4.046875 4.656250 -4.046875 12.625000l0.000000 30.906250l-9.031250 0.000000l0.000000 -54.687500l9.031250 0.000000l0.000000 8.500000q3.078125 -5.031250 7.375000 -7.421875q4.296875 -2.390625 10.203125 -2.390625q5.968750 0.000000 10.140625 3.031250q4.171875 3.015625 6.171875 8.781250"/>
<path id="c_e96974be642f6eac0427d72f9cec6c19" d="M8.015625 -75.875000l7.812500 0.000000q7.312500 11.515625 10.953125 22.562500q3.640625 11.031250 3.640625 21.921875q0.000000 10.937500 -3.640625 22.015625q-3.640625 11.078125 -10.953125 22.562500l-7.812500 0.000000q6.484375 -11.187500 9.687500 -22.250000q3.203125 -11.062500 3.203125 -22.328125q0.000000 -11.281250 -3.203125 -22.265625q-3.203125 -11.000000 -9.687500 -22.218750"/>
</defs>
<g style="fill: #000000; opacity: 1.000000" transform="translate(297.265312,567.071250)scale(0.200000)">
<use xlink:href="#c_518d586bee075aa0153eaebfcb5ab11f"/>
<use xlink:href="#c_f05dd90d41f04bb96ef1ca503cc2044b" x="56.677734"/>
<use xlink:href="#c_8e0810ad13fe20a2a87a2619799b154d" x="117.859375"/>
<use xlink:href="#c_6a63bda47b2f3da1cec6aadd80692cfe" x="169.958984"/>
<use xlink:href="#c_0f8c41144cfbf448378cb6fd1cc8e549" x="197.742188"/>
<use xlink:href="#c_6a63bda47b2f3da1cec6aadd80692cfe" x="236.951172"/>
<use xlink:href="#c_f05dd90d41f04bb96ef1ca503cc2044b" x="264.734375"/>
<use xlink:href="#c_fe791a90f5471e2ab20a5ed41a7fa451" x="325.916016"/>
<use xlink:href="#c_d41d8cd98f00b204e9800998ecf8427e" x="389.294922"/>
<use xlink:href="#c_74d54c94aa871ec39e2bc6697dde6c00" x="421.082031"/>
<use xlink:href="#c_f05dd90d41f04bb96ef1ca503cc2044b" x="484.460938"/>
<use xlink:href="#c_6ec8d5749226675394676a5d2a3b468b" x="545.642578"/>
<use xlink:href="#c_6a63bda47b2f3da1cec6aadd80692cfe" x="586.755859"/>
<use xlink:href="#c_9f267d35ece7e6f3f1d851c2e17a8dec" x="614.539062"/>
<use xlink:href="#c_f05dd90d41f04bb96ef1ca503cc2044b" x="667.029297"/>
<use xlink:href="#c_fe791a90f5471e2ab20a5ed41a7fa451" x="728.210938"/>
<use xlink:href="#c_0f8c41144cfbf448378cb6fd1cc8e549" x="791.589844"/>
<use xlink:href="#c_01d93a582460e35a7945ca50d148ffeb" x="830.798828"/>
<use xlink:href="#c_5099edb83619131346ae654950954dea" x="892.078125"/>
<use xlink:href="#c_0bce5afba2dc6b9024b26277c38ad8e8" x="919.861328"/>
<use xlink:href="#c_d41d8cd98f00b204e9800998ecf8427e" x="981.384766"/>
<use xlink:href="#c_d821beae607506e87470f334d9ff47af" x="1013.171875"/>
<use xlink:href="#c_3b515ad41f960e225ec85275856806ca" x="1076.648438"/>
<use xlink:href="#c_d41d8cd98f00b204e9800998ecf8427e" x="1140.027344"/>
<use xlink:href="#c_f15a64fcd463ef4629c48bab42cde24c" x="1171.814453"/>
<use xlink:href="#c_f05dd90d41f04bb96ef1ca503cc2044b" x="1235.291016"/>
<use xlink:href="#c_6a63bda47b2f3da1cec6aadd80692cfe" x="1296.472656"/>
<use xlink:href="#c_e3864de5dabf2f8dd9eee74726882ec1" x="1324.255859"/>
<use xlink:href="#c_fe791a90f5471e2ab20a5ed41a7fa451" x="1387.732422"/>
<use xlink:href="#c_0bce5afba2dc6b9024b26277c38ad8e8" x="1451.111328"/>
<use xlink:href="#c_0f8c41144cfbf448378cb6fd1cc8e549" x="1512.634766"/>
<use xlink:href="#c_d41d8cd98f00b204e9800998ecf8427e" x="1551.843750"/>
<use xlink:href="#c_7efa9804c2b4c09a4b614b91fdebee3d" x="1583.630859"/>
<use xlink:href="#c_4653c6dfde66c7610eae0911760d3490" x="1622.644531"/>
<use xlink:href="#c_e96974be642f6eac0427d72f9cec6c19" x="1720.056641"/>
</g>
</g>
</g>
<g id="matplotlib.axis2">
<g id="ytick1">
<g id="line2d50">
<defs><path id="m3400efa6b1638b3fea9e19e898273957" d="M0.000000 0.000000L4.000000 0.000000"/></defs>
<g ><use style="fill: none; stroke: #000000; stroke-width: 0.500000; stroke-linejoin: round; stroke-linecap: butt;  opacity: 1.000000" xlink:href="#m3400efa6b1638b3fea9e19e898273957" x="115.200000" y="533.790000"/>
</g></g>
<g id="line2d51">
<defs><path id="m20b58b2501143cb5e0a5e8f1ef6f1643" d="M0.000000 0.000000L-4.000000 0.000000"/></defs>
<g ><use style="fill: none; stroke: #000000; stroke-width: 0.500000; stroke-linejoin: round; stroke-linecap: butt;  opacity: 1.000000" xlink:href="#m20b58b2501143cb5e0a5e8f1ef6f1643" x="829.440000" y="533.790000"/>
</g></g>
<g id="text10">
<g style="fill: #000000; opacity: 1.000000" transform="translate(83.981250,538.157187)scale(0.120000)">
<use xlink:href="#c_6a8d56c819c37117ab4cf023bec22a5a"/>
<use xlink:href="#c_7a2040fe3b94fcd41d0a72c84e93b115" x="83.789062"/>
<use xlink:href="#c_ed3e21196fb739f392806f09ca0594ef" x="147.412109"/>
<use xlink:href="#c_a0416418d96557a09b8c1332d34883ba" x="179.199219"/>
</g>
</g>
</g>
<g id="ytick2">
<g id="line2d52">
<g ><use style="fill: none; stroke: #000000; stroke-width: 0.500000; stroke-linejoin: round; stroke-linecap: butt;  opacity: 1.000000" xlink:href="#m3400efa6b1638b3fea9e19e898273957" x="115.200000" y="454.710000"/>
</g></g>
<g id="line2d53">
<g ><use style="fill: none; stroke: #000000; stroke-width: 0.500000; stroke-linejoin: round; stroke-linecap: butt;  opacity: 1.000000" xlink:href="#m20b58b2501143cb5e0a5e8f1ef6f1643" x="829.440000" y="454.710000"/>
</g></g>
<g id="text11">
<g style="fill: #000000; opacity: 1.000000" transform="translate(84.512500,459.077188)scale(0.120000)">
<use xlink:href="#c_6a8d56c819c37117ab4cf023bec22a5a"/>
<use xlink:href="#c_7a2040fe3b94fcd41d0a72c84e93b115" x="83.789062"/>
<use xlink:href="#c_ed3e21196fb739f392806f09ca0594ef" x="147.412109"/>
<use xlink:href="#c_ed3f3ed3ebfbd18bcb9c012009a68ad1" x="179.199219"/>
</g>
</g>
</g>
<g id="ytick3">
<g id="line2d54">
<g ><use style="fill: none; stroke: #000000; stroke-width: 0.500000; stroke-linejoin: round; stroke-linecap: butt;  opacity: 1.000000" xlink:href="#m3400efa6b1638b3fea9e19e898273957" x="115.200000" y="375.630000"/>
</g></g>
<g id="line2d55">
<g ><use style="fill: none; stroke: #000000; stroke-width: 0.500000; stroke-linejoin: round; stroke-linecap: butt;  opacity: 1.000000" xlink:href="#m20b58b2501143cb5e0a5e8f1ef6f1643" x="829.440000" y="375.630000"/>
</g></g>
<g id="text12">
<g style="fill: #000000; opacity: 1.000000" transform="translate(93.700000,379.997187)scale(0.120000)">
<use xlink:href="#c_7a2040fe3b94fcd41d0a72c84e93b115"/>
<use xlink:href="#c_ed3e21196fb739f392806f09ca0594ef" x="63.623047"/>
<use xlink:href="#c_7a2040fe3b94fcd41d0a72c84e93b115" x="95.410156"/>
</g>
</g>
</g>
<g id="ytick4">
<g id="line2d56">
<g ><use style="fill: none; stroke: #000000; stroke-width: 0.500000; stroke-linejoin: round; stroke-linecap: butt;  opacity: 1.000000" xlink:href="#m3400efa6b1638b3fea9e19e898273957" x="115.200000" y="296.550000"/>
</g></g>
<g id="line2d57">
<g ><use style="fill: none; stroke: #000000; stroke-width: 0.500000; stroke-linejoin: round; stroke-linecap: butt;  opacity: 1.000000" xlink:href="#m20b58b2501143cb5e0a5e8f1ef6f1643" x="829.440000" y="296.550000"/>
</g></g>
<g id="text13">
<g style="fill: #000000; opacity: 1.000000" transform="translate(94.106250,300.917187)scale(0.120000)">
<use xlink:href="#c_7a2040fe3b94fcd41d0a72c84e93b115"/>
<use xlink:href="#c_ed3e21196fb739f392806f09ca0594ef" x="63.623047"/>
<use xlink:href="#c_ed3f3ed3ebfbd18bcb9c012009a68ad1" x="95.410156"/>
</g>
</g>
</g>
<g id="ytick5">
<g id="line2d58">
<g ><use style="fill: none; stroke: #000000; stroke-width: 0.500000; stroke-linejoin: round; stroke-linecap: butt;  opacity: 1.000000" xlink:href="#m3400efa6b1638b3fea9e19e898273957" x="115.200000" y="217.470000"/>
</g></g>
<g id="line2d59">
<g ><use style="fill: none; stroke: #000000; stroke-width: 0.500000; stroke-linejoin: round; stroke-linecap: butt;  opacity: 1.000000" xlink:href="#m20b58b2501143cb5e0a5e8f1ef6f1643" x="829.440000" y="217.470000"/>
</g></g>
<g id="text14">
<g style="fill: #000000; opacity: 1.000000" transform="translate(93.575000,221.837187)scale(0.120000)">
<use xlink:href="#c_7a2040fe3b94fcd41d0a72c84e93b115"/>
<use xlink:href="#c_ed3e21196fb739f392806f09ca0594ef" x="63.623047"/>
<use xlink:href="#c_a0416418d96557a09b8c1332d34883ba" x="95.410156"/>
</g>
</g>
</g>
<g id="ytick6">
<g id="line2d60">
<g ><use style="fill: none; stroke: #000000; stroke-width: 0.500000; stroke-linejoin: round; stroke-linecap: butt;  opacity: 1.000000" xlink:href="#m3400efa6b1638b3fea9e19e898273957" x="115.200000" y="138.390000"/>
</g></g>
<g id="line2d61">
<g ><use style="fill: none; stroke: #000000; stroke-width: 0.500000; stroke-linejoin: round; stroke-linecap: butt;  opacity: 1.000000" xlink:href="#m20b58b2501143cb5e0a5e8f1ef6f1643" x="829.440000" y="138.390000"/>
</g></g>
<g id="text15">
<g style="fill: #000000; opacity: 1.000000" transform="translate(93.668750,142.757187)scale(0.120000)">
<use xlink:href="#c_7a2040fe3b94fcd41d0a72c84e93b115"/>
<use xlink:href="#c_ed3e21196fb739f392806f09ca0594ef" x="63.623047"/>
<use xlink:href="#c_cc8d6d580d1b10c8632f7a42cd53db8a" x="95.410156"/>
</g>
</g>
</g>
<g id="ytick7">
<g id="line2d62">
<g ><use style="fill: none; stroke: #000000; stroke-width: 0.500000; stroke-linejoin: round; stroke-linecap: butt;  opacity: 1.000000" xlink:href="#m3400efa6b1638b3fea9e19e898273957" x="115.200000" y="59.310000"/>
</g></g>
<g id="line2d63">
<g ><use style="fill: none; stroke: #000000; stroke-width: 0.500000; stroke-linejoin: round; stroke-linecap: butt;  opacity: 1.000000" xlink:href="#m20b58b2501143cb5e0a5e8f1ef6f1643" x="829.440000" y="59.310000"/>
</g></g>
<g id="text16">
<g style="fill: #000000; opacity: 1.000000" transform="translate(93.731250,63.677187)scale(0.120000)">
<use xlink:href="#c_7a2040fe3b94fcd41d0a72c84e93b115"/>
<use xlink:href="#c_ed3e21196fb739f392806f09ca0594ef" x="63.623047"/>
<use xlink:href="#c_bef35738d52871942e50b9de9b122bab" x="95.410156"/>
</g>
</g>
</g>
<g id="text17">
<defs>
<path id="c_c48ceabac27bf136feba2f4bf2716ab6" d="M2.984375 -54.687500l9.515625 0.000000l17.093750 45.890625l17.093750 -45.890625l9.515625 0.000000l-20.515625 54.687500l-12.203125 0.000000z"/>
<path id="c_d650c37394b681142a10dfc54356d478" d="M48.781250 -52.593750l0.000000 8.406250q-3.812500 -2.109375 -7.640625 -3.156250q-3.828125 -1.046875 -7.734375 -1.046875q-8.750000 0.000000 -13.593750 5.546875q-4.828125 5.531250 -4.828125 15.546875q0.000000 10.015625 4.828125 15.562500q4.843750 5.531250 13.593750 5.531250q3.906250 0.000000 7.734375 -1.046875q3.828125 -1.046875 7.640625 -3.156250l0.000000 8.312500q-3.765625 1.750000 -7.796875 2.625000q-4.015625 0.890625 -8.562500 0.890625q-12.359375 0.000000 -19.640625 -7.765625q-7.265625 -7.765625 -7.265625 -20.953125q0.000000 -13.375000 7.343750 -21.031250q7.359375 -7.671875 20.156250 -7.671875q4.140625 0.000000 8.093750 0.859375q3.953125 0.843750 7.671875 2.546875"/>
</defs>
<g style="fill: #000000; opacity: 1.000000" transform="translate(78.981250,454.870313)rotate(-90.0)scale(0.200000)">
<use xlink:href="#c_518d586bee075aa0153eaebfcb5ab11f"/>
<use xlink:href="#c_f05dd90d41f04bb96ef1ca503cc2044b" x="56.677734"/>
<use xlink:href="#c_8e0810ad13fe20a2a87a2619799b154d" x="117.859375"/>
<use xlink:href="#c_6a63bda47b2f3da1cec6aadd80692cfe" x="169.958984"/>
<use xlink:href="#c_0f8c41144cfbf448378cb6fd1cc8e549" x="197.742188"/>
<use xlink:href="#c_6a63bda47b2f3da1cec6aadd80692cfe" x="236.951172"/>
<use xlink:href="#c_f05dd90d41f04bb96ef1ca503cc2044b" x="264.734375"/>
<use xlink:href="#c_fe791a90f5471e2ab20a5ed41a7fa451" x="325.916016"/>
<use xlink:href="#c_d41d8cd98f00b204e9800998ecf8427e" x="389.294922"/>
<use xlink:href="#c_c48ceabac27bf136feba2f4bf2716ab6" x="421.082031"/>
<use xlink:href="#c_0bce5afba2dc6b9024b26277c38ad8e8" x="480.261719"/>
<use xlink:href="#c_6ec8d5749226675394676a5d2a3b468b" x="541.785156"/>
<use xlink:href="#c_0f8c41144cfbf448378cb6fd1cc8e549" x="582.898438"/>
<use xlink:href="#c_6a63bda47b2f3da1cec6aadd80692cfe" x="622.107422"/>
<use xlink:href="#c_d650c37394b681142a10dfc54356d478" x="649.890625"/>
<use xlink:href="#c_01d93a582460e35a7945ca50d148ffeb" x="704.871094"/>
<use xlink:href="#c_5099edb83619131346ae654950954dea" x="766.150391"/>
<use xlink:href="#c_0bce5afba2dc6b9024b26277c38ad8e8" x="793.933594"/>
<use xlink:href="#c_d41d8cd98f00b204e9800998ecf8427e" x="855.457031"/>
<use xlink:href="#c_d821beae607506e87470f334d9ff47af" x="887.244141"/>
<use xlink:href="#c_3b515ad41f960e225ec85275856806ca" x="950.720703"/>
<use xlink:href="#c_d41d8cd98f00b204e9800998ecf8427e" x="1014.099609"/>
<use xlink:href="#c_f15a64fcd463ef4629c48bab42cde24c" x="1045.886719"/>
<use xlink:href="#c_f05dd90d41f04bb96ef1ca503cc2044b" x="1109.363281"/>
<use xlink:href="#c_6a63bda47b2f3da1cec6aadd80692cfe" x="1170.544922"/>
<use xlink:href="#c_e3864de5dabf2f8dd9eee74726882ec1" x="1198.328125"/>
<use xlink:href="#c_fe791a90f5471e2ab20a5ed41a7fa451" x="1261.804688"/>
<use xlink:href="#c_0bce5afba2dc6b9024b26277c38ad8e8" x="1325.183594"/>
<use xlink:href="#c_0f8c41144cfbf448378cb6fd1cc8e549" x="1386.707031"/>
<use xlink:href="#c_d41d8cd98f00b204e9800998ecf8427e" x="1425.916016"/>
<use xlink:href="#c_7efa9804c2b4c09a4b614b91fdebee3d" x="1457.703125"/>
<use xlink:href="#c_4653c6dfde66c7610eae0911760d3490" x="1496.716797"/>
<use xlink:href="#c_e96974be642f6eac0427d72f9cec6c19" x="1594.128906"/>
</g>
</g>
</g>
<g id="patch3">
<path style="fill: none; stroke: #000000; stroke-width: 1.000000; stroke-linejoin: round; stroke-linecap: square;  opacity: 1.000000"  d="M115.200000 59.310000L829.440000 59.310000"/>
</g>
<g id="patch4">
<path style="fill: none; stroke: #000000; stroke-width: 1.000000; stroke-linejoin: round; stroke-linecap: square;  opacity: 1.000000"  d="M829.440000 533.790000L829.440000 59.310000"/>
</g>
<g id="patch5">
<path style="fill: none; stroke: #000000; stroke-width: 1.000000; stroke-linejoin: round; stroke-linecap: square;  opacity: 1.000000"  d="M115.200000 533.790000L829.440000 533.790000"/>
</g>
<g id="patch6">
<path style="fill: none; stroke: #000000; stroke-width: 1.000000; stroke-linejoin: round; stroke-linecap: square;  opacity: 1.000000"  d="M115.200000 533.790000L115.200000 59.310000"/>
</g>
<g id="text18">
<defs>
<path id="c_2e5dfb8af59f7166823a060f6b91d481" d="M34.281250 -27.484375q-10.890625 0.000000 -15.093750 2.484375q-4.203125 2.484375 -4.203125 8.500000q0.000000 4.781250 3.156250 7.593750q3.156250 2.796875 8.562500 2.796875q7.484375 0.000000 12.000000 -5.296875q4.515625 -5.296875 4.515625 -14.078125l0.000000 -2.000000zM52.203125 -31.203125l0.000000 31.203125l-8.984375 0.000000l0.000000 -8.296875q-3.078125 4.968750 -7.671875 7.343750q-4.593750 2.375000 -11.234375 2.375000q-8.390625 0.000000 -13.359375 -4.718750q-4.953125 -4.718750 -4.953125 -12.625000q0.000000 -9.218750 6.171875 -13.906250q6.187500 -4.687500 18.437500 -4.687500l12.609375 0.000000l0.000000 -0.890625q0.000000 -6.203125 -4.078125 -9.593750q-4.078125 -3.390625 -11.453125 -3.390625q-4.687500 0.000000 -9.140625 1.125000q-4.437500 1.125000 -8.531250 3.375000l0.000000 -8.312500q4.921875 -1.906250 9.562500 -2.843750q4.640625 -0.953125 9.031250 -0.953125q11.875000 0.000000 17.734375 6.156250q5.859375 6.140625 5.859375 18.640625M25.390625 -79.984375l7.218750 0.000000l11.968750 18.359375l-6.781250 0.000000l-8.796875 -11.953125l-8.781250 11.953125l-6.796875 0.000000z"/>
</defs>
<g style="fill: #000000; opacity: 1.000000" transform="translate(146.155937,50.153750)scale(0.200000)">
<use xlink:href="#c_518d586bee075aa0153eaebfcb5ab11f"/>
<use xlink:href="#c_f05dd90d41f04bb96ef1ca503cc2044b" x="56.677734"/>
<use xlink:href="#c_8e0810ad13fe20a2a87a2619799b154d" x="117.859375"/>
<use xlink:href="#c_6a63bda47b2f3da1cec6aadd80692cfe" x="169.958984"/>
<use xlink:href="#c_0f8c41144cfbf448378cb6fd1cc8e549" x="197.742188"/>
<use xlink:href="#c_6a63bda47b2f3da1cec6aadd80692cfe" x="236.951172"/>
<use xlink:href="#c_f05dd90d41f04bb96ef1ca503cc2044b" x="264.734375"/>
<use xlink:href="#c_fe791a90f5471e2ab20a5ed41a7fa451" x="325.916016"/>
<use xlink:href="#c_d41d8cd98f00b204e9800998ecf8427e" x="389.294922"/>
<use xlink:href="#c_d821beae607506e87470f334d9ff47af" x="421.082031"/>
<use xlink:href="#c_3b515ad41f960e225ec85275856806ca" x="484.558594"/>
<use xlink:href="#c_d41d8cd98f00b204e9800998ecf8427e" x="547.937500"/>
<use xlink:href="#c_f15a64fcd463ef4629c48bab42cde24c" x="579.724609"/>
<use xlink:href="#c_f05dd90d41f04bb96ef1ca503cc2044b" x="643.201172"/>
<use xlink:href="#c_6a63bda47b2f3da1cec6aadd80692cfe" x="704.382812"/>
<use xlink:href="#c_e3864de5dabf2f8dd9eee74726882ec1" x="732.166016"/>
<use xlink:href="#c_fe791a90f5471e2ab20a5ed41a7fa451" x="795.642578"/>
<use xlink:href="#c_0bce5afba2dc6b9024b26277c38ad8e8" x="859.021484"/>
<use xlink:href="#c_0f8c41144cfbf448378cb6fd1cc8e549" x="920.544922"/>
<use xlink:href="#c_d41d8cd98f00b204e9800998ecf8427e" x="959.753906"/>
<use xlink:href="#c_01d93a582460e35a7945ca50d148ffeb" x="991.541016"/>
<use xlink:href="#c_3b515ad41f960e225ec85275856806ca" x="1052.820312"/>
<use xlink:href="#c_d41d8cd98f00b204e9800998ecf8427e" x="1116.199219"/>
<use xlink:href="#c_d650c37394b681142a10dfc54356d478" x="1147.986328"/>
<use xlink:href="#c_f05dd90d41f04bb96ef1ca503cc2044b" x="1202.966797"/>
<use xlink:href="#c_3b515ad41f960e225ec85275856806ca" x="1264.148438"/>
<use xlink:href="#c_6ec8d5749226675394676a5d2a3b468b" x="1327.527344"/>
<use xlink:href="#c_8e0810ad13fe20a2a87a2619799b154d" x="1368.640625"/>
<use xlink:href="#c_d41d8cd98f00b204e9800998ecf8427e" x="1420.740234"/>
<use xlink:href="#c_d821beae607506e87470f334d9ff47af" x="1452.527344"/>
<use xlink:href="#c_3b515ad41f960e225ec85275856806ca" x="1516.003906"/>
<use xlink:href="#c_d41d8cd98f00b204e9800998ecf8427e" x="1579.382812"/>
<use xlink:href="#c_4653c6dfde66c7610eae0911760d3490" x="1611.169922"/>
<use xlink:href="#c_f05dd90d41f04bb96ef1ca503cc2044b" x="1708.582031"/>
<use xlink:href="#c_3b515ad41f960e225ec85275856806ca" x="1769.763672"/>
<use xlink:href="#c_c48ceabac27bf136feba2f4bf2716ab6" x="1833.142578"/>
<use xlink:href="#c_0bce5afba2dc6b9024b26277c38ad8e8" x="1892.322266"/>
<use xlink:href="#c_4653c6dfde66c7610eae0911760d3490" x="1953.845703"/>
<use xlink:href="#c_0bce5afba2dc6b9024b26277c38ad8e8" x="2051.257812"/>
<use xlink:href="#c_fe791a90f5471e2ab20a5ed41a7fa451" x="2112.781250"/>
<use xlink:href="#c_0f8c41144cfbf448378cb6fd1cc8e549" x="2176.160156"/>
<use xlink:href="#c_d41d8cd98f00b204e9800998ecf8427e" x="2215.369141"/>
<use xlink:href="#c_7efa9804c2b4c09a4b614b91fdebee3d" x="2247.156250"/>
<use xlink:href="#c_0bce5afba2dc6b9024b26277c38ad8e8" x="2286.169922"/>
<use xlink:href="#c_8e0810ad13fe20a2a87a2619799b154d" x="2347.693359"/>
<use xlink:href="#c_f15a64fcd463ef4629c48bab42cde24c" x="2399.792969"/>
<use xlink:href="#c_01d93a582460e35a7945ca50d148ffeb" x="2463.269531"/>
<use xlink:href="#c_d650c37394b681142a10dfc54356d478" x="2524.548828"/>
<use xlink:href="#c_0bce5afba2dc6b9024b26277c38ad8e8" x="2579.529297"/>
<use xlink:href="#c_d41d8cd98f00b204e9800998ecf8427e" x="2641.052734"/>
<use xlink:href="#c_d821beae607506e87470f334d9ff47af" x="2672.839844"/>
<use xlink:href="#c_0bce5afba2dc6b9024b26277c38ad8e8" x="2736.316406"/>
<use xlink:href="#c_d41d8cd98f00b204e9800998ecf8427e" x="2797.839844"/>
<use xlink:href="#c_5099edb83619131346ae654950954dea" x="2829.626953"/>
<use xlink:href="#c_01d93a582460e35a7945ca50d148ffeb" x="2857.410156"/>
<use xlink:href="#c_d41d8cd98f00b204e9800998ecf8427e" x="2918.689453"/>
<use xlink:href="#c_0f8c41144cfbf448378cb6fd1cc8e549" x="2950.476562"/>
<use xlink:href="#c_2e5dfb8af59f7166823a060f6b91d481" x="2989.685547"/>
<use xlink:href="#c_d650c37394b681142a10dfc54356d478" x="3050.964844"/>
<use xlink:href="#c_74d54c94aa871ec39e2bc6697dde6c00" x="3105.945312"/>
<use xlink:href="#c_0bce5afba2dc6b9024b26277c38ad8e8" x="3169.324219"/>
<use xlink:href="#c_e96974be642f6eac0427d72f9cec6c19" x="3230.847656"/>
</g>
</g>
</g>
</g>
</svg>
