<?xml version="1.0" standalone="no"?>
<!DOCTYPE svg PUBLIC "-//W3C//DTD SVG 1.1//EN"
  "http://www.w3.org/Graphics/SVG/1.1/DTD/svg11.dtd">
<!-- Created with matplotlib (http://matplotlib.sourceforge.net/) -->
<svg width="921pt" height="593pt" viewBox="0 0 921 593"
   xmlns="http://www.w3.org/2000/svg"
   xmlns:xlink="http://www.w3.org/1999/xlink"
   version="1.1"
   id="svg1">
<g id="figure1">
<g id="patch1">
<path style="fill: #ffffff; stroke: #ffffff; stroke-width: 1.000000; stroke-linejoin: round; stroke-linecap: square;  opacity: 1.000000"  d="M0.000000 593.100000L921.600000 593.100000L921.600000 0.000000
L0.000000 0.000000L0.000000 593.100000"/>
</g>
<g id="axes1">
<g id="patch2">
<path style="fill: #ffffff; opacity: 1.000000"  d="M115.200000 533.790000L829.440000 533.790000L829.440000 59.310000
L115.200000 59.310000L115.200000 533.790000"/>
</g>
<g id="line2d1">
<defs>
  <clipPath id="p7925595e59115e0f26db4807d9e1425e">
<rect x="115.200000" y="59.310000" width="714.240000" height="474.480000"/>
  </clipPath>
</defs><path style="fill: none; stroke: #0000ff; stroke-width: 1.000000; stroke-linejoin: round; stroke-linecap: square;  opacity: 1.000000" clip-path="url(#p7925595e59115e0f26db4807d9e1425e)" d="M268.061546 295.907371L273.246234 295.387144L278.714801 294.250988
L283.654049 292.548863L288.038999 290.300616L291.978333 287.474369
L295.379993 284.212596L298.463387 280.379117L301.286862 275.804847
L303.103947 271.464848L304.064228 268.264096L304.064228 268.264096"/>
</g>
<g id="line2d2">
<defs><path id="m747cc61de9b2cf7f4795268aef228876" d="M-3.000000 3.000000L3.000000 -3.000000M-3.000000 -3.000000
L3.000000 3.000000"/></defs>
<g clip-path="url(#p7925595e59115e0f26db4807d9e1425e)"><use style="fill: none; stroke: #000000; stroke-width: 0.500000; stroke-linejoin: round; stroke-linecap: butt;  opacity: 1.000000" xlink:href="#m747cc61de9b2cf7f4795268aef228876" x="304.136113" y="267.948369"/>
</g></g>
<g id="line2d3">
<path style="fill: none; stroke: #008000; stroke-width: 1.000000; stroke-linejoin: round; stroke-linecap: square;  opacity: 1.000000" clip-path="url(#p7925595e59115e0f26db4807d9e1425e)" d="M268.061546 295.907371L275.088922 295.360075L281.668226 294.208166
L287.234692 292.559193L291.838113 290.550349L296.044125 288.040938
L300.150786 284.795477L304.086953 280.761426L307.747297 276.004934
L310.972424 270.750744L313.105270 266.130168L314.688501 260.896790
L314.904188 259.873397L314.904188 259.873397"/>
</g>
<g id="line2d4">
<g clip-path="url(#p7925595e59115e0f26db4807d9e1425e)"><use style="fill: none; stroke: #000000; stroke-width: 0.500000; stroke-linejoin: round; stroke-linecap: butt;  opacity: 1.000000" xlink:href="#m747cc61de9b2cf7f4795268aef228876" x="314.958483" y="259.560668"/>
</g></g>
<g id="line2d5">
<path style="fill: none; stroke: #ff0000; stroke-width: 1.000000; stroke-linejoin: round; stroke-linecap: square;  opacity: 1.000000" clip-path="url(#p7925595e59115e0f26db4807d9e1425e)" d="M268.061546 295.907371L277.815100 294.961047L284.878608 293.655338
L291.084967 291.840197L296.220978 289.687686L300.953819 287.021989
L305.651232 283.566747L309.843166 279.669310L313.921858 275.021994
L318.173798 269.134498L321.920686 262.812924L323.819086 258.604436
L325.321437 253.650197L325.734998 251.500085L325.734998 251.500085"/>
</g>
<g id="line2d6">
<g clip-path="url(#p7925595e59115e0f26db4807d9e1425e)"><use style="fill: none; stroke: #000000; stroke-width: 0.500000; stroke-linejoin: round; stroke-linecap: butt;  opacity: 1.000000" xlink:href="#m747cc61de9b2cf7f4795268aef228876" x="325.780854" y="251.172968"/>
</g></g>
<g id="line2d7">
<path style="fill: none; stroke: #00bfbf; stroke-width: 1.000000; stroke-linejoin: round; stroke-linecap: square;  opacity: 1.000000" clip-path="url(#p7925595e59115e0f26db4807d9e1425e)" d="M268.061546 295.907371L287.510124 292.665824L294.230810 290.652874
L300.296699 288.134942L305.510254 285.279083L310.743246 281.624180
L315.505531 277.498074L320.257729 272.543132L325.404223 266.160865
L330.225802 259.106058L334.158377 252.252763L335.808664 248.401176
L336.467526 245.134603L336.599763 243.107222L336.599763 243.107222"/>
</g>
<g id="line2d8">
<g clip-path="url(#p7925595e59115e0f26db4807d9e1425e)"><use style="fill: none; stroke: #000000; stroke-width: 0.500000; stroke-linejoin: round; stroke-linecap: butt;  opacity: 1.000000" xlink:href="#m747cc61de9b2cf7f4795268aef228876" x="336.603224" y="242.785267"/>
</g></g>
<g id="line2d9">
<path style="fill: none; stroke: #bf00bf; stroke-width: 1.000000; stroke-linejoin: round; stroke-linecap: square;  opacity: 1.000000" clip-path="url(#p7925595e59115e0f26db4807d9e1425e)" d="M268.061546 295.907371L273.461669 294.802976L287.874835 291.745178
L295.851763 289.359027L302.830885 286.554878L308.995493 283.336044
L314.751710 279.561700L320.603873 274.860227L326.016114 269.680420
L332.042563 262.959461L337.933334 255.409405L343.521497 247.220510
L347.517980 240.277638L348.903003 236.641702L348.752010 235.548456
L347.746759 234.624447L347.746759 234.624447"/>
</g>
<g id="line2d10">
<g clip-path="url(#p7925595e59115e0f26db4807d9e1425e)"><use style="fill: none; stroke: #000000; stroke-width: 0.500000; stroke-linejoin: round; stroke-linecap: butt;  opacity: 1.000000" xlink:href="#m747cc61de9b2cf7f4795268aef228876" x="347.425594" y="234.397567"/>
</g></g>
<g id="line2d11">
<path style="fill: none; stroke: #bfbf00; stroke-width: 1.000000; stroke-linejoin: round; stroke-linecap: square;  opacity: 1.000000" clip-path="url(#p7925595e59115e0f26db4807d9e1425e)" d="M268.061546 295.907371L271.386822 294.854215L300.582980 286.399988
L308.106686 283.056008L314.801984 279.327694L321.131330 275.038673
L327.670586 269.764310L334.455714 263.379832L341.429431 255.915750
L349.419246 246.354177L356.768185 236.584741L360.477679 230.697420
L361.555907 227.880523L361.474487 226.557454L360.866582 226.147632
L358.844544 226.002438L358.663009 226.002809L358.663009 226.002809"/>
</g>
<g id="line2d12">
<g clip-path="url(#p7925595e59115e0f26db4807d9e1425e)"><use style="fill: none; stroke: #000000; stroke-width: 0.500000; stroke-linejoin: round; stroke-linecap: butt;  opacity: 1.000000" xlink:href="#m747cc61de9b2cf7f4795268aef228876" x="358.247965" y="226.009866"/>
</g></g>
<g id="line2d13">
<path style="fill: none; stroke: #000000; stroke-width: 1.000000; stroke-linejoin: round; stroke-linecap: square;  opacity: 1.000000" clip-path="url(#p7925595e59115e0f26db4807d9e1425e)" d="M708.486778 504.135000L714.337947 495.606183L719.407231 486.781806
L723.669934 477.704862L727.105287 468.419571L729.696555 458.971171
L731.431112 449.405694L732.300508 439.769741L732.300508 430.110259
L731.431112 420.474306L729.696555 410.908829L727.105287 401.460429
L723.669934 392.175138L719.407231 383.098194L714.337947 374.273817
L708.486778 365.745000L701.882231 357.553294L694.556483 349.738608
L686.545222 342.339015L677.887481 335.390565L668.625438 328.927110
L658.804217 322.980138L648.471666 317.578624L637.678125 312.748883
L626.476177 308.514444L614.920399 304.895938L603.067089 301.910994
L590.973994 299.574154L578.700031 297.896802L566.304998 296.887111
L553.849282 296.550000L541.393566 296.887111L528.998533 297.896802
L516.724571 299.574154L504.631476 301.910994L492.778166 304.895938
L481.222387 308.514444L470.020440 312.748883L459.226899 317.578624
L448.894348 322.980138L439.073127 328.927110L431.596923 327.596773
L423.967258 326.982502L416.297874 327.093453L408.703102 327.927972
L401.296163 329.473618L394.187478 331.707350L387.483021 334.595867
L381.282740 338.096109L376.439794 341.543876L372.088377 345.365098
L368.276164 349.517908L365.044923 353.956808L362.430055 358.633164
L360.460210 363.495741L359.156970 368.491264L358.534614 373.564999
L358.599959 378.661360L359.352290 383.724508L360.783365 388.698971
L362.877504 393.530248L365.611763 398.165406L368.956186 402.553661
L372.874129 406.646935L377.322668 410.400381L382.253063 413.772876
L387.611296 416.727469L392.361084 418.846899L390.626267 420.421155
L379.521378 424.806468L368.048842 428.580729L356.264552 431.725549
L344.225921 434.225607L331.991599 436.068723L319.621190 437.245918
L307.174962 437.751456L294.713552 437.582875L282.297671 436.740996
L269.987807 435.229920L257.843932 433.057009L245.925211 430.232849
L234.289710 426.771200L222.994117 422.688927L212.093462 418.005916
L201.640852 412.744985L191.687212 406.931763L182.281034 400.594573
L173.468144 393.764287L165.291478 386.474183L157.790872 378.759777
L151.002868 370.658653L144.960536 362.210279L139.693314 353.455815
L135.226864 344.437911L131.582945 335.200501L128.779311 325.788591
L126.829620 316.248032L125.743371 306.625307L125.525856 296.967295
L126.178135 287.321051L127.697031 277.733568L130.075142 268.251557
L133.300884 258.921214L137.358540 249.787993L142.228342 240.896392
L147.886566 232.289730L154.305644 224.009938L161.454304 216.097353
L167.273765 210.427156L178.777611 200.349601L190.946203 190.752478
L203.746185 181.662091L217.142476 173.103356L231.098356 165.099733
L245.575573 157.673159L260.534446 150.843989L275.933975 144.630942
L291.731949 139.051048L307.885069 134.119600L324.349058 129.850115
L341.078792 126.254295L358.028414 123.341998L375.151466 121.121204
L392.401017 119.598001L409.729785 118.776564L427.090275 118.659144
L444.434901 119.246063L461.716124 120.535714L478.886577 122.524559
L495.899198 125.207150L512.707354 128.576132L529.264978 132.622271
L545.526685 137.334478L561.447903 142.699836L576.984993 148.703639
L592.095369 155.329432L606.737615 162.559053L620.871597 170.372688
L634.458575 178.748918L647.461308 187.664785L659.844156 197.095852
L671.573179 207.016269L682.616229 217.398844L692.943037 228.215120
L702.525298 239.435450L711.336748 251.029080L719.353235 262.964232
L726.552787 275.208193L732.915670 287.727403L738.424443 300.487548
L743.064009 313.453654L746.821650 326.590180L749.687066 339.861121
L751.652404 353.230103L752.712277 366.660480L752.863780 380.115443
L752.106497 393.558111L750.442504 406.951640L747.876363 420.259318
L744.415106 433.444670L740.068221 446.471557L734.847623 459.304271
L728.767620 471.907641L721.844877 484.247119L714.098370 496.288886
L708.486778 504.135000L708.486778 504.135000"/>
</g>
<g id="matplotlib.axis1">
<g id="xtick1">
<g id="line2d14">
<defs><path id="m30e32995789d870ad79a2e54c91cf9c6" d="M0.000000 0.000000L0.000000 -4.000000"/></defs>
<g ><use style="fill: none; stroke: #000000; stroke-width: 0.500000; stroke-linejoin: round; stroke-linecap: butt;  opacity: 1.000000" xlink:href="#m30e32995789d870ad79a2e54c91cf9c6" x="115.200000" y="533.790000"/>
</g></g>
<g id="line2d15">
<defs><path id="m9281cae24120827b11d5ea8a7ad3e96b" d="M0.000000 0.000000L0.000000 4.000000"/></defs>
<g ><use style="fill: none; stroke: #000000; stroke-width: 0.500000; stroke-linejoin: round; stroke-linecap: butt;  opacity: 1.000000" xlink:href="#m9281cae24120827b11d5ea8a7ad3e96b" x="115.200000" y="59.310000"/>
</g></g>
<g id="text1">
<defs>
<path id="c_6a8d56c819c37117ab4cf023bec22a5a" d="M10.593750 -35.500000l62.593750 0.000000l0.000000 8.296875l-62.593750 0.000000z"/>
<path id="c_7a2040fe3b94fcd41d0a72c84e93b115" d="M31.781250 -66.406250q-7.609375 0.000000 -11.453125 7.500000q-3.828125 7.484375 -3.828125 22.531250q0.000000 14.984375 3.828125 22.484375q3.843750 7.500000 11.453125 7.500000q7.671875 0.000000 11.500000 -7.500000q3.843750 -7.500000 3.843750 -22.484375q0.000000 -15.046875 -3.843750 -22.531250q-3.828125 -7.500000 -11.500000 -7.500000M31.781250 -74.218750q12.265625 0.000000 18.734375 9.703125q6.468750 9.687500 6.468750 28.140625q0.000000 18.406250 -6.468750 28.109375q-6.468750 9.687500 -18.734375 9.687500q-12.250000 0.000000 -18.718750 -9.687500q-6.468750 -9.703125 -6.468750 -28.109375q0.000000 -18.453125 6.468750 -28.140625q6.468750 -9.703125 18.718750 -9.703125"/>
<path id="c_ed3e21196fb739f392806f09ca0594ef" d="M10.687500 -12.406250l10.312500 0.000000l0.000000 12.406250l-10.312500 0.000000z"/>
<path id="c_cc8d6d580d1b10c8632f7a42cd53db8a" d="M33.015625 -40.375000q-6.640625 0.000000 -10.531250 4.546875q-3.875000 4.531250 -3.875000 12.437500q0.000000 7.859375 3.875000 12.437500q3.890625 4.562500 10.531250 4.562500q6.640625 0.000000 10.515625 -4.562500q3.875000 -4.578125 3.875000 -12.437500q0.000000 -7.906250 -3.875000 -12.437500q-3.875000 -4.546875 -10.515625 -4.546875M52.593750 -71.296875l0.000000 8.984375q-3.718750 -1.750000 -7.500000 -2.671875q-3.781250 -0.937500 -7.500000 -0.937500q-9.765625 0.000000 -14.921875 6.593750q-5.140625 6.593750 -5.875000 19.921875q2.875000 -4.250000 7.218750 -6.515625q4.359375 -2.265625 9.578125 -2.265625q10.984375 0.000000 17.359375 6.671875q6.375000 6.656250 6.375000 18.125000q0.000000 11.234375 -6.640625 18.031250q-6.640625 6.781250 -17.671875 6.781250q-12.656250 0.000000 -19.343750 -9.687500q-6.687500 -9.703125 -6.687500 -28.109375q0.000000 -17.281250 8.203125 -27.562500q8.203125 -10.281250 22.015625 -10.281250q3.718750 0.000000 7.500000 0.734375q3.781250 0.734375 7.890625 2.187500"/>
</defs>
<g style="fill: #000000; opacity: 1.000000" transform="translate(101.637500,546.696250)scale(0.120000)">
<use xlink:href="#c_6a8d56c819c37117ab4cf023bec22a5a"/>
<use xlink:href="#c_7a2040fe3b94fcd41d0a72c84e93b115" x="83.789062"/>
<use xlink:href="#c_ed3e21196fb739f392806f09ca0594ef" x="147.412109"/>
<use xlink:href="#c_cc8d6d580d1b10c8632f7a42cd53db8a" x="179.199219"/>
</g>
</g>
</g>
<g id="xtick2">
<g id="line2d16">
<g ><use style="fill: none; stroke: #000000; stroke-width: 0.500000; stroke-linejoin: round; stroke-linecap: butt;  opacity: 1.000000" xlink:href="#m30e32995789d870ad79a2e54c91cf9c6" x="217.234286" y="533.790000"/>
</g></g>
<g id="line2d17">
<g ><use style="fill: none; stroke: #000000; stroke-width: 0.500000; stroke-linejoin: round; stroke-linecap: butt;  opacity: 1.000000" xlink:href="#m9281cae24120827b11d5ea8a7ad3e96b" x="217.234286" y="59.310000"/>
</g></g>
<g id="text2">
<defs>
<path id="c_a0416418d96557a09b8c1332d34883ba" d="M37.796875 -64.312500l-24.906250 38.921875l24.906250 0.000000zM35.203125 -72.906250l12.406250 0.000000l0.000000 47.515625l10.406250 0.000000l0.000000 8.203125l-10.406250 0.000000l0.000000 17.187500l-9.812500 0.000000l0.000000 -17.187500l-32.906250 0.000000l0.000000 -9.515625z"/>
</defs>
<g style="fill: #000000; opacity: 1.000000" transform="translate(203.624911,546.696250)scale(0.120000)">
<use xlink:href="#c_6a8d56c819c37117ab4cf023bec22a5a"/>
<use xlink:href="#c_7a2040fe3b94fcd41d0a72c84e93b115" x="83.789062"/>
<use xlink:href="#c_ed3e21196fb739f392806f09ca0594ef" x="147.412109"/>
<use xlink:href="#c_a0416418d96557a09b8c1332d34883ba" x="179.199219"/>
</g>
</g>
</g>
<g id="xtick3">
<g id="line2d18">
<g ><use style="fill: none; stroke: #000000; stroke-width: 0.500000; stroke-linejoin: round; stroke-linecap: butt;  opacity: 1.000000" xlink:href="#m30e32995789d870ad79a2e54c91cf9c6" x="319.268571" y="533.790000"/>
</g></g>
<g id="line2d19">
<g ><use style="fill: none; stroke: #000000; stroke-width: 0.500000; stroke-linejoin: round; stroke-linecap: butt;  opacity: 1.000000" xlink:href="#m9281cae24120827b11d5ea8a7ad3e96b" x="319.268571" y="59.310000"/>
</g></g>
<g id="text3">
<defs>
<path id="c_ed3f3ed3ebfbd18bcb9c012009a68ad1" d="M19.187500 -8.296875l34.421875 0.000000l0.000000 8.296875l-46.281250 0.000000l0.000000 -8.296875q5.609375 -5.812500 15.296875 -15.593750q9.703125 -9.796875 12.187500 -12.640625q4.734375 -5.312500 6.609375 -9.000000q1.890625 -3.687500 1.890625 -7.250000q0.000000 -5.812500 -4.078125 -9.468750q-4.078125 -3.671875 -10.625000 -3.671875q-4.640625 0.000000 -9.796875 1.609375q-5.140625 1.609375 -11.000000 4.890625l0.000000 -9.968750q5.953125 -2.390625 11.125000 -3.609375q5.187500 -1.218750 9.484375 -1.218750q11.328125 0.000000 18.062500 5.671875q6.734375 5.656250 6.734375 15.125000q0.000000 4.500000 -1.687500 8.531250q-1.671875 4.015625 -6.125000 9.484375q-1.218750 1.421875 -7.765625 8.187500q-6.531250 6.765625 -18.453125 18.921875"/>
</defs>
<g style="fill: #000000; opacity: 1.000000" transform="translate(305.924821,546.696250)scale(0.120000)">
<use xlink:href="#c_6a8d56c819c37117ab4cf023bec22a5a"/>
<use xlink:href="#c_7a2040fe3b94fcd41d0a72c84e93b115" x="83.789062"/>
<use xlink:href="#c_ed3e21196fb739f392806f09ca0594ef" x="147.412109"/>
<use xlink:href="#c_ed3f3ed3ebfbd18bcb9c012009a68ad1" x="179.199219"/>
</g>
</g>
</g>
<g id="xtick4">
<g id="line2d20">
<g ><use style="fill: none; stroke: #000000; stroke-width: 0.500000; stroke-linejoin: round; stroke-linecap: butt;  opacity: 1.000000" xlink:href="#m30e32995789d870ad79a2e54c91cf9c6" x="421.302857" y="533.790000"/>
</g></g>
<g id="line2d21">
<g ><use style="fill: none; stroke: #000000; stroke-width: 0.500000; stroke-linejoin: round; stroke-linecap: butt;  opacity: 1.000000" xlink:href="#m9281cae24120827b11d5ea8a7ad3e96b" x="421.302857" y="59.310000"/>
</g></g>
<g id="text4">
<g style="fill: #000000; opacity: 1.000000" transform="translate(412.552857,546.696250)scale(0.120000)">
<use xlink:href="#c_7a2040fe3b94fcd41d0a72c84e93b115"/>
<use xlink:href="#c_ed3e21196fb739f392806f09ca0594ef" x="63.623047"/>
<use xlink:href="#c_7a2040fe3b94fcd41d0a72c84e93b115" x="95.410156"/>
</g>
</g>
</g>
<g id="xtick5">
<g id="line2d22">
<g ><use style="fill: none; stroke: #000000; stroke-width: 0.500000; stroke-linejoin: round; stroke-linecap: butt;  opacity: 1.000000" xlink:href="#m30e32995789d870ad79a2e54c91cf9c6" x="523.337143" y="533.790000"/>
</g></g>
<g id="line2d23">
<g ><use style="fill: none; stroke: #000000; stroke-width: 0.500000; stroke-linejoin: round; stroke-linecap: butt;  opacity: 1.000000" xlink:href="#m9281cae24120827b11d5ea8a7ad3e96b" x="523.337143" y="59.310000"/>
</g></g>
<g id="text5">
<g style="fill: #000000; opacity: 1.000000" transform="translate(514.790268,546.696250)scale(0.120000)">
<use xlink:href="#c_7a2040fe3b94fcd41d0a72c84e93b115"/>
<use xlink:href="#c_ed3e21196fb739f392806f09ca0594ef" x="63.623047"/>
<use xlink:href="#c_ed3f3ed3ebfbd18bcb9c012009a68ad1" x="95.410156"/>
</g>
</g>
</g>
<g id="xtick6">
<g id="line2d24">
<g ><use style="fill: none; stroke: #000000; stroke-width: 0.500000; stroke-linejoin: round; stroke-linecap: butt;  opacity: 1.000000" xlink:href="#m30e32995789d870ad79a2e54c91cf9c6" x="625.371429" y="533.790000"/>
</g></g>
<g id="line2d25">
<g ><use style="fill: none; stroke: #000000; stroke-width: 0.500000; stroke-linejoin: round; stroke-linecap: butt;  opacity: 1.000000" xlink:href="#m9281cae24120827b11d5ea8a7ad3e96b" x="625.371429" y="59.310000"/>
</g></g>
<g id="text6">
<g style="fill: #000000; opacity: 1.000000" transform="translate(616.558929,546.696250)scale(0.120000)">
<use xlink:href="#c_7a2040fe3b94fcd41d0a72c84e93b115"/>
<use xlink:href="#c_ed3e21196fb739f392806f09ca0594ef" x="63.623047"/>
<use xlink:href="#c_a0416418d96557a09b8c1332d34883ba" x="95.410156"/>
</g>
</g>
</g>
<g id="xtick7">
<g id="line2d26">
<g ><use style="fill: none; stroke: #000000; stroke-width: 0.500000; stroke-linejoin: round; stroke-linecap: butt;  opacity: 1.000000" xlink:href="#m30e32995789d870ad79a2e54c91cf9c6" x="727.405714" y="533.790000"/>
</g></g>
<g id="line2d27">
<g ><use style="fill: none; stroke: #000000; stroke-width: 0.500000; stroke-linejoin: round; stroke-linecap: butt;  opacity: 1.000000" xlink:href="#m9281cae24120827b11d5ea8a7ad3e96b" x="727.405714" y="59.310000"/>
</g></g>
<g id="text7">
<g style="fill: #000000; opacity: 1.000000" transform="translate(718.640089,546.696250)scale(0.120000)">
<use xlink:href="#c_7a2040fe3b94fcd41d0a72c84e93b115"/>
<use xlink:href="#c_ed3e21196fb739f392806f09ca0594ef" x="63.623047"/>
<use xlink:href="#c_cc8d6d580d1b10c8632f7a42cd53db8a" x="95.410156"/>
</g>
</g>
</g>
<g id="xtick8">
<g id="line2d28">
<g ><use style="fill: none; stroke: #000000; stroke-width: 0.500000; stroke-linejoin: round; stroke-linecap: butt;  opacity: 1.000000" xlink:href="#m30e32995789d870ad79a2e54c91cf9c6" x="829.440000" y="533.790000"/>
</g></g>
<g id="line2d29">
<g ><use style="fill: none; stroke: #000000; stroke-width: 0.500000; stroke-linejoin: round; stroke-linecap: butt;  opacity: 1.000000" xlink:href="#m9281cae24120827b11d5ea8a7ad3e96b" x="829.440000" y="59.310000"/>
</g></g>
<g id="text8">
<defs>
<path id="c_bef35738d52871942e50b9de9b122bab" d="M31.781250 -34.625000q-7.031250 0.000000 -11.062500 3.765625q-4.015625 3.765625 -4.015625 10.343750q0.000000 6.593750 4.015625 10.359375q4.031250 3.765625 11.062500 3.765625q7.031250 0.000000 11.078125 -3.781250q4.062500 -3.796875 4.062500 -10.343750q0.000000 -6.578125 -4.031250 -10.343750q-4.015625 -3.765625 -11.109375 -3.765625M21.921875 -38.812500q-6.343750 -1.562500 -9.890625 -5.906250q-3.531250 -4.359375 -3.531250 -10.609375q0.000000 -8.734375 6.218750 -13.812500q6.234375 -5.078125 17.062500 -5.078125q10.890625 0.000000 17.093750 5.078125q6.203125 5.078125 6.203125 13.812500q0.000000 6.250000 -3.546875 10.609375q-3.531250 4.343750 -9.828125 5.906250q7.125000 1.656250 11.093750 6.500000q3.984375 4.828125 3.984375 11.796875q0.000000 10.609375 -6.468750 16.281250q-6.468750 5.656250 -18.531250 5.656250q-12.046875 0.000000 -18.531250 -5.656250q-6.468750 -5.671875 -6.468750 -16.281250q0.000000 -6.968750 4.000000 -11.796875q4.015625 -4.843750 11.140625 -6.500000M18.312500 -54.390625q0.000000 5.656250 3.531250 8.828125q3.546875 3.171875 9.937500 3.171875q6.359375 0.000000 9.937500 -3.171875q3.593750 -3.171875 3.593750 -8.828125q0.000000 -5.671875 -3.593750 -8.843750q-3.578125 -3.171875 -9.937500 -3.171875q-6.390625 0.000000 -9.937500 3.171875q-3.531250 3.171875 -3.531250 8.843750"/>
</defs>
<g style="fill: #000000; opacity: 1.000000" transform="translate(820.705625,546.696250)scale(0.120000)">
<use xlink:href="#c_7a2040fe3b94fcd41d0a72c84e93b115"/>
<use xlink:href="#c_ed3e21196fb739f392806f09ca0594ef" x="63.623047"/>
<use xlink:href="#c_bef35738d52871942e50b9de9b122bab" x="95.410156"/>
</g>
</g>
</g>
<g id="text9">
<defs>
<path id="c_518d586bee075aa0153eaebfcb5ab11f" d="M19.671875 -64.796875l0.000000 27.390625l12.406250 0.000000q6.890625 0.000000 10.640625 -3.562500q3.765625 -3.562500 3.765625 -10.156250q0.000000 -6.546875 -3.765625 -10.109375q-3.750000 -3.562500 -10.640625 -3.562500zM9.812500 -72.906250l22.265625 0.000000q12.265625 0.000000 18.531250 5.546875q6.281250 5.546875 6.281250 16.234375q0.000000 10.796875 -6.281250 16.312500q-6.265625 5.515625 -18.531250 5.515625l-12.406250 0.000000l0.000000 29.296875l-9.859375 0.000000z"/>
<path id="c_f05dd90d41f04bb96ef1ca503cc2044b" d="M30.609375 -48.390625q-7.218750 0.000000 -11.421875 5.640625q-4.203125 5.640625 -4.203125 15.453125q0.000000 9.812500 4.171875 15.453125q4.187500 5.640625 11.453125 5.640625q7.187500 0.000000 11.375000 -5.656250q4.203125 -5.671875 4.203125 -15.437500q0.000000 -9.718750 -4.203125 -15.406250q-4.187500 -5.687500 -11.375000 -5.687500M30.609375 -56.000000q11.718750 0.000000 18.406250 7.625000q6.703125 7.609375 6.703125 21.078125q0.000000 13.421875 -6.703125 21.078125q-6.687500 7.640625 -18.406250 7.640625q-11.765625 0.000000 -18.437500 -7.640625q-6.656250 -7.656250 -6.656250 -21.078125q0.000000 -13.468750 6.656250 -21.078125q6.671875 -7.625000 18.437500 -7.625000"/>
<path id="c_8e0810ad13fe20a2a87a2619799b154d" d="M44.281250 -53.078125l0.000000 8.500000q-3.796875 -1.953125 -7.906250 -2.921875q-4.093750 -0.984375 -8.500000 -0.984375q-6.687500 0.000000 -10.031250 2.046875q-3.343750 2.046875 -3.343750 6.156250q0.000000 3.125000 2.390625 4.906250q2.390625 1.781250 9.625000 3.390625l3.078125 0.687500q9.562500 2.046875 13.593750 5.781250q4.031250 3.734375 4.031250 10.421875q0.000000 7.625000 -6.031250 12.078125q-6.031250 4.437500 -16.578125 4.437500q-4.390625 0.000000 -9.156250 -0.859375q-4.765625 -0.859375 -10.031250 -2.562500l0.000000 -9.281250q4.984375 2.593750 9.812500 3.890625q4.828125 1.281250 9.578125 1.281250q6.343750 0.000000 9.750000 -2.171875q3.421875 -2.171875 3.421875 -6.125000q0.000000 -3.656250 -2.468750 -5.609375q-2.453125 -1.953125 -10.812500 -3.765625l-3.125000 -0.734375q-8.343750 -1.750000 -12.062500 -5.390625q-3.703125 -3.640625 -3.703125 -9.984375q0.000000 -7.718750 5.468750 -11.906250q5.468750 -4.203125 15.531250 -4.203125q4.968750 0.000000 9.359375 0.734375q4.406250 0.718750 8.109375 2.187500"/>
<path id="c_6a63bda47b2f3da1cec6aadd80692cfe" d="M9.421875 -54.687500l8.984375 0.000000l0.000000 54.687500l-8.984375 0.000000zM9.421875 -75.984375l8.984375 0.000000l0.000000 11.390625l-8.984375 0.000000z"/>
<path id="c_0f8c41144cfbf448378cb6fd1cc8e549" d="M18.312500 -70.218750l0.000000 15.531250l18.500000 0.000000l0.000000 6.984375l-18.500000 0.000000l0.000000 29.687500q0.000000 6.687500 1.828125 8.593750q1.828125 1.906250 7.453125 1.906250l9.218750 0.000000l0.000000 7.515625l-9.218750 0.000000q-10.406250 0.000000 -14.359375 -3.875000q-3.953125 -3.890625 -3.953125 -14.140625l0.000000 -29.687500l-6.593750 0.000000l0.000000 -6.984375l6.593750 0.000000l0.000000 -15.531250z"/>
<path id="c_fe791a90f5471e2ab20a5ed41a7fa451" d="M54.890625 -33.015625l0.000000 33.015625l-8.984375 0.000000l0.000000 -32.718750q0.000000 -7.765625 -3.031250 -11.609375q-3.031250 -3.859375 -9.078125 -3.859375q-7.281250 0.000000 -11.484375 4.640625q-4.203125 4.625000 -4.203125 12.640625l0.000000 30.906250l-9.031250 0.000000l0.000000 -54.687500l9.031250 0.000000l0.000000 8.500000q3.234375 -4.937500 7.593750 -7.375000q4.375000 -2.437500 10.093750 -2.437500q9.421875 0.000000 14.250000 5.828125q4.843750 5.828125 4.843750 17.156250"/>
<path id="c_d41d8cd98f00b204e9800998ecf8427e" d=""/>
<path id="c_74d54c94aa871ec39e2bc6697dde6c00" d="M54.890625 -33.015625l0.000000 33.015625l-8.984375 0.000000l0.000000 -32.718750q0.000000 -7.765625 -3.031250 -11.609375q-3.031250 -3.859375 -9.078125 -3.859375q-7.281250 0.000000 -11.484375 4.640625q-4.203125 4.625000 -4.203125 12.640625l0.000000 30.906250l-9.031250 0.000000l0.000000 -75.984375l9.031250 0.000000l0.000000 29.796875q3.234375 -4.937500 7.593750 -7.375000q4.375000 -2.437500 10.093750 -2.437500q9.421875 0.000000 14.250000 5.828125q4.843750 5.828125 4.843750 17.156250"/>
<path id="c_6ec8d5749226675394676a5d2a3b468b" d="M41.109375 -46.296875q-1.515625 -0.875000 -3.296875 -1.281250q-1.781250 -0.421875 -3.921875 -0.421875q-7.625000 0.000000 -11.703125 4.953125q-4.078125 4.953125 -4.078125 14.234375l0.000000 28.812500l-9.031250 0.000000l0.000000 -54.687500l9.031250 0.000000l0.000000 8.500000q2.843750 -4.984375 7.375000 -7.390625q4.546875 -2.421875 11.046875 -2.421875q0.921875 0.000000 2.046875 0.125000q1.125000 0.109375 2.484375 0.359375z"/>
<path id="c_9f267d35ece7e6f3f1d851c2e17a8dec" d="M5.515625 -54.687500l42.671875 0.000000l0.000000 8.203125l-33.781250 39.312500l33.781250 0.000000l0.000000 7.171875l-43.890625 0.000000l0.000000 -8.203125l33.796875 -39.312500l-32.578125 0.000000z"/>
<path id="c_01d93a582460e35a7945ca50d148ffeb" d="M34.281250 -27.484375q-10.890625 0.000000 -15.093750 2.484375q-4.203125 2.484375 -4.203125 8.500000q0.000000 4.781250 3.156250 7.593750q3.156250 2.796875 8.562500 2.796875q7.484375 0.000000 12.000000 -5.296875q4.515625 -5.296875 4.515625 -14.078125l0.000000 -2.000000zM52.203125 -31.203125l0.000000 31.203125l-8.984375 0.000000l0.000000 -8.296875q-3.078125 4.968750 -7.671875 7.343750q-4.593750 2.375000 -11.234375 2.375000q-8.390625 0.000000 -13.359375 -4.718750q-4.953125 -4.718750 -4.953125 -12.625000q0.000000 -9.218750 6.171875 -13.906250q6.187500 -4.687500 18.437500 -4.687500l12.609375 0.000000l0.000000 -0.890625q0.000000 -6.203125 -4.078125 -9.593750q-4.078125 -3.390625 -11.453125 -3.390625q-4.687500 0.000000 -9.140625 1.125000q-4.437500 1.125000 -8.531250 3.375000l0.000000 -8.312500q4.921875 -1.906250 9.562500 -2.843750q4.640625 -0.953125 9.031250 -0.953125q11.875000 0.000000 17.734375 6.156250q5.859375 6.140625 5.859375 18.640625"/>
<path id="c_5099edb83619131346ae654950954dea" d="M9.421875 -75.984375l8.984375 0.000000l0.000000 75.984375l-8.984375 0.000000z"/>
<path id="c_0bce5afba2dc6b9024b26277c38ad8e8" d="M56.203125 -29.593750l0.000000 4.390625l-41.312500 0.000000q0.593750 9.281250 5.593750 14.140625q5.000000 4.859375 13.937500 4.859375q5.171875 0.000000 10.031250 -1.265625q4.859375 -1.265625 9.656250 -3.812500l0.000000 8.500000q-4.843750 2.046875 -9.921875 3.125000q-5.078125 1.078125 -10.296875 1.078125q-13.093750 0.000000 -20.734375 -7.609375q-7.640625 -7.625000 -7.640625 -20.625000q0.000000 -13.421875 7.250000 -21.296875q7.250000 -7.890625 19.562500 -7.890625q11.031250 0.000000 17.453125 7.109375q6.421875 7.093750 6.421875 19.296875M47.218750 -32.234375q-0.093750 -7.359375 -4.125000 -11.750000q-4.031250 -4.406250 -10.671875 -4.406250q-7.515625 0.000000 -12.031250 4.250000q-4.515625 4.250000 -5.203125 11.968750z"/>
<path id="c_d821beae607506e87470f334d9ff47af" d="M45.406250 -46.390625l0.000000 -29.593750l8.984375 0.000000l0.000000 75.984375l-8.984375 0.000000l0.000000 -8.203125q-2.828125 4.875000 -7.156250 7.250000q-4.312500 2.375000 -10.375000 2.375000q-9.906250 0.000000 -16.140625 -7.906250q-6.218750 -7.921875 -6.218750 -20.812500q0.000000 -12.890625 6.218750 -20.796875q6.234375 -7.906250 16.140625 -7.906250q6.062500 0.000000 10.375000 2.375000q4.328125 2.359375 7.156250 7.234375M14.796875 -27.296875q0.000000 9.906250 4.078125 15.546875q4.078125 5.640625 11.203125 5.640625q7.125000 0.000000 11.218750 -5.640625q4.109375 -5.640625 4.109375 -15.546875q0.000000 -9.906250 -4.109375 -15.546875q-4.093750 -5.640625 -11.218750 -5.640625q-7.125000 0.000000 -11.203125 5.640625q-4.078125 5.640625 -4.078125 15.546875"/>
<path id="c_3b515ad41f960e225ec85275856806ca" d="M8.500000 -21.578125l0.000000 -33.109375l8.984375 0.000000l0.000000 32.765625q0.000000 7.765625 3.015625 11.656250q3.031250 3.875000 9.093750 3.875000q7.265625 0.000000 11.484375 -4.640625q4.234375 -4.640625 4.234375 -12.656250l0.000000 -31.000000l8.984375 0.000000l0.000000 54.687500l-8.984375 0.000000l0.000000 -8.406250q-3.265625 4.984375 -7.593750 7.406250q-4.312500 2.421875 -10.031250 2.421875q-9.421875 0.000000 -14.312500 -5.859375q-4.875000 -5.859375 -4.875000 -17.140625M31.109375 -56.000000z"/>
<path id="c_f15a64fcd463ef4629c48bab42cde24c" d="M18.109375 -8.203125l0.000000 29.000000l-9.031250 0.000000l0.000000 -75.484375l9.031250 0.000000l0.000000 8.296875q2.843750 -4.875000 7.156250 -7.234375q4.328125 -2.375000 10.328125 -2.375000q9.968750 0.000000 16.187500 7.906250q6.234375 7.906250 6.234375 20.796875q0.000000 12.890625 -6.234375 20.812500q-6.218750 7.906250 -16.187500 7.906250q-6.000000 0.000000 -10.328125 -2.375000q-4.312500 -2.375000 -7.156250 -7.250000M48.687500 -27.296875q0.000000 -9.906250 -4.078125 -15.546875q-4.078125 -5.640625 -11.203125 -5.640625q-7.140625 0.000000 -11.218750 5.640625q-4.078125 5.640625 -4.078125 15.546875q0.000000 9.906250 4.078125 15.546875q4.078125 5.640625 11.218750 5.640625q7.125000 0.000000 11.203125 -5.640625q4.078125 -5.640625 4.078125 -15.546875"/>
<path id="c_e3864de5dabf2f8dd9eee74726882ec1" d="M45.406250 -27.984375q0.000000 -9.765625 -4.031250 -15.125000q-4.015625 -5.375000 -11.296875 -5.375000q-7.218750 0.000000 -11.250000 5.375000q-4.031250 5.359375 -4.031250 15.125000q0.000000 9.718750 4.031250 15.093750q4.031250 5.375000 11.250000 5.375000q7.281250 0.000000 11.296875 -5.375000q4.031250 -5.375000 4.031250 -15.093750M54.390625 -6.781250q0.000000 13.953125 -6.203125 20.765625q-6.187500 6.812500 -18.984375 6.812500q-4.734375 0.000000 -8.937500 -0.703125q-4.203125 -0.703125 -8.156250 -2.171875l0.000000 -8.734375q3.953125 2.140625 7.812500 3.156250q3.859375 1.031250 7.859375 1.031250q8.843750 0.000000 13.234375 -4.609375q4.390625 -4.609375 4.390625 -13.937500l0.000000 -4.453125q-2.781250 4.843750 -7.125000 7.234375q-4.343750 2.390625 -10.406250 2.390625q-10.046875 0.000000 -16.203125 -7.656250q-6.156250 -7.671875 -6.156250 -20.328125q0.000000 -12.687500 6.156250 -20.343750q6.156250 -7.671875 16.203125 -7.671875q6.062500 0.000000 10.406250 2.390625q4.343750 2.390625 7.125000 7.218750l0.000000 -8.296875l8.984375 0.000000z"/>
<path id="c_7efa9804c2b4c09a4b614b91fdebee3d" d="M31.000000 -75.875000q-6.531250 11.218750 -9.718750 22.218750q-3.171875 10.984375 -3.171875 22.265625q0.000000 11.265625 3.203125 22.328125q3.203125 11.062500 9.687500 22.250000l-7.812500 0.000000q-7.312500 -11.484375 -10.953125 -22.562500q-3.640625 -11.078125 -3.640625 -22.015625q0.000000 -10.890625 3.609375 -21.921875q3.625000 -11.046875 10.984375 -22.562500z"/>
<path id="c_4653c6dfde66c7610eae0911760d3490" d="M52.000000 -44.187500q3.375000 -6.062500 8.062500 -8.937500q4.687500 -2.875000 11.031250 -2.875000q8.546875 0.000000 13.187500 5.984375q4.640625 5.968750 4.640625 17.000000l0.000000 33.015625l-9.031250 0.000000l0.000000 -32.718750q0.000000 -7.859375 -2.796875 -11.656250q-2.781250 -3.812500 -8.484375 -3.812500q-6.984375 0.000000 -11.046875 4.640625q-4.046875 4.625000 -4.046875 12.640625l0.000000 30.906250l-9.031250 0.000000l0.000000 -32.718750q0.000000 -7.906250 -2.781250 -11.687500q-2.781250 -3.781250 -8.593750 -3.781250q-6.890625 0.000000 -10.953125 4.656250q-4.046875 4.656250 -4.046875 12.625000l0.000000 30.906250l-9.031250 0.000000l0.000000 -54.687500l9.031250 0.000000l0.000000 8.500000q3.078125 -5.031250 7.375000 -7.421875q4.296875 -2.390625 10.203125 -2.390625q5.968750 0.000000 10.140625 3.031250q4.171875 3.015625 6.171875 8.781250"/>
<path id="c_e96974be642f6eac0427d72f9cec6c19" d="M8.015625 -75.875000l7.812500 0.000000q7.312500 11.515625 10.953125 22.562500q3.640625 11.031250 3.640625 21.921875q0.000000 10.937500 -3.640625 22.015625q-3.640625 11.078125 -10.953125 22.562500l-7.812500 0.000000q6.484375 -11.187500 9.687500 -22.250000q3.203125 -11.062500 3.203125 -22.328125q0.000000 -11.281250 -3.203125 -22.265625q-3.203125 -11.000000 -9.687500 -22.218750"/>
</defs>
<g style="fill: #000000; opacity: 1.000000" transform="translate(297.265312,567.071250)scale(0.200000)">
<use xlink:href="#c_518d586bee075aa0153eaebfcb5ab11f"/>
<use xlink:href="#c_f05dd90d41f04bb96ef1ca503cc2044b" x="56.677734"/>
<use xlink:href="#c_8e0810ad13fe20a2a87a2619799b154d" x="117.859375"/>
<use xlink:href="#c_6a63bda47b2f3da1cec6aadd80692cfe" x="169.958984"/>
<use xlink:href="#c_0f8c41144cfbf448378cb6fd1cc8e549" x="197.742188"/>
<use xlink:href="#c_6a63bda47b2f3da1cec6aadd80692cfe" x="236.951172"/>
<use xlink:href="#c_f05dd90d41f04bb96ef1ca503cc2044b" x="264.734375"/>
<use xlink:href="#c_fe791a90f5471e2ab20a5ed41a7fa451" x="325.916016"/>
<use xlink:href="#c_d41d8cd98f00b204e9800998ecf8427e" x="389.294922"/>
<use xlink:href="#c_74d54c94aa871ec39e2bc6697dde6c00" x="421.082031"/>
<use xlink:href="#c_f05dd90d41f04bb96ef1ca503cc2044b" x="484.460938"/>
<use xlink:href="#c_6ec8d5749226675394676a5d2a3b468b" x="545.642578"/>
<use xlink:href="#c_6a63bda47b2f3da1cec6aadd80692cfe" x="586.755859"/>
<use xlink:href="#c_9f267d35ece7e6f3f1d851c2e17a8dec" x="614.539062"/>
<use xlink:href="#c_f05dd90d41f04bb96ef1ca503cc2044b" x="667.029297"/>
<use xlink:href="#c_fe791a90f5471e2ab20a5ed41a7fa451" x="728.210938"/>
<use xlink:href="#c_0f8c41144cfbf448378cb6fd1cc8e549" x="791.589844"/>
<use xlink:href="#c_01d93a582460e35a7945ca50d148ffeb" x="830.798828"/>
<use xlink:href="#c_5099edb83619131346ae654950954dea" x="892.078125"/>
<use xlink:href="#c_0bce5afba2dc6b9024b26277c38ad8e8" x="919.861328"/>
<use xlink:href="#c_d41d8cd98f00b204e9800998ecf8427e" x="981.384766"/>
<use xlink:href="#c_d821beae607506e87470f334d9ff47af" x="1013.171875"/>
<use xlink:href="#c_3b515ad41f960e225ec85275856806ca" x="1076.648438"/>
<use xlink:href="#c_d41d8cd98f00b204e9800998ecf8427e" x="1140.027344"/>
<use xlink:href="#c_f15a64fcd463ef4629c48bab42cde24c" x="1171.814453"/>
<use xlink:href="#c_f05dd90d41f04bb96ef1ca503cc2044b" x="1235.291016"/>
<use xlink:href="#c_6a63bda47b2f3da1cec6aadd80692cfe" x="1296.472656"/>
<use xlink:href="#c_e3864de5dabf2f8dd9eee74726882ec1" x="1324.255859"/>
<use xlink:href="#c_fe791a90f5471e2ab20a5ed41a7fa451" x="1387.732422"/>
<use xlink:href="#c_0bce5afba2dc6b9024b26277c38ad8e8" x="1451.111328"/>
<use xlink:href="#c_0f8c41144cfbf448378cb6fd1cc8e549" x="1512.634766"/>
<use xlink:href="#c_d41d8cd98f00b204e9800998ecf8427e" x="1551.843750"/>
<use xlink:href="#c_7efa9804c2b4c09a4b614b91fdebee3d" x="1583.630859"/>
<use xlink:href="#c_4653c6dfde66c7610eae0911760d3490" x="1622.644531"/>
<use xlink:href="#c_e96974be642f6eac0427d72f9cec6c19" x="1720.056641"/>
</g>
</g>
</g>
<g id="matplotlib.axis2">
<g id="ytick1">
<g id="line2d30">
<defs><path id="m3400efa6b1638b3fea9e19e898273957" d="M0.000000 0.000000L4.000000 0.000000"/></defs>
<g ><use style="fill: none; stroke: #000000; stroke-width: 0.500000; stroke-linejoin: round; stroke-linecap: butt;  opacity: 1.000000" xlink:href="#m3400efa6b1638b3fea9e19e898273957" x="115.200000" y="533.790000"/>
</g></g>
<g id="line2d31">
<defs><path id="m20b58b2501143cb5e0a5e8f1ef6f1643" d="M0.000000 0.000000L-4.000000 0.000000"/></defs>
<g ><use style="fill: none; stroke: #000000; stroke-width: 0.500000; stroke-linejoin: round; stroke-linecap: butt;  opacity: 1.000000" xlink:href="#m20b58b2501143cb5e0a5e8f1ef6f1643" x="829.440000" y="533.790000"/>
</g></g>
<g id="text10">
<g style="fill: #000000; opacity: 1.000000" transform="translate(83.981250,538.157187)scale(0.120000)">
<use xlink:href="#c_6a8d56c819c37117ab4cf023bec22a5a"/>
<use xlink:href="#c_7a2040fe3b94fcd41d0a72c84e93b115" x="83.789062"/>
<use xlink:href="#c_ed3e21196fb739f392806f09ca0594ef" x="147.412109"/>
<use xlink:href="#c_a0416418d96557a09b8c1332d34883ba" x="179.199219"/>
</g>
</g>
</g>
<g id="ytick2">
<g id="line2d32">
<g ><use style="fill: none; stroke: #000000; stroke-width: 0.500000; stroke-linejoin: round; stroke-linecap: butt;  opacity: 1.000000" xlink:href="#m3400efa6b1638b3fea9e19e898273957" x="115.200000" y="454.710000"/>
</g></g>
<g id="line2d33">
<g ><use style="fill: none; stroke: #000000; stroke-width: 0.500000; stroke-linejoin: round; stroke-linecap: butt;  opacity: 1.000000" xlink:href="#m20b58b2501143cb5e0a5e8f1ef6f1643" x="829.440000" y="454.710000"/>
</g></g>
<g id="text11">
<g style="fill: #000000; opacity: 1.000000" transform="translate(84.512500,459.077188)scale(0.120000)">
<use xlink:href="#c_6a8d56c819c37117ab4cf023bec22a5a"/>
<use xlink:href="#c_7a2040fe3b94fcd41d0a72c84e93b115" x="83.789062"/>
<use xlink:href="#c_ed3e21196fb739f392806f09ca0594ef" x="147.412109"/>
<use xlink:href="#c_ed3f3ed3ebfbd18bcb9c012009a68ad1" x="179.199219"/>
</g>
</g>
</g>
<g id="ytick3">
<g id="line2d34">
<g ><use style="fill: none; stroke: #000000; stroke-width: 0.500000; stroke-linejoin: round; stroke-linecap: butt;  opacity: 1.000000" xlink:href="#m3400efa6b1638b3fea9e19e898273957" x="115.200000" y="375.630000"/>
</g></g>
<g id="line2d35">
<g ><use style="fill: none; stroke: #000000; stroke-width: 0.500000; stroke-linejoin: round; stroke-linecap: butt;  opacity: 1.000000" xlink:href="#m20b58b2501143cb5e0a5e8f1ef6f1643" x="829.440000" y="375.630000"/>
</g></g>
<g id="text12">
<g style="fill: #000000; opacity: 1.000000" transform="translate(93.700000,379.997187)scale(0.120000)">
<use xlink:href="#c_7a2040fe3b94fcd41d0a72c84e93b115"/>
<use xlink:href="#c_ed3e21196fb739f392806f09ca0594ef" x="63.623047"/>
<use xlink:href="#c_7a2040fe3b94fcd41d0a72c84e93b115" x="95.410156"/>
</g>
</g>
</g>
<g id="ytick4">
<g id="line2d36">
<g ><use style="fill: none; stroke: #000000; stroke-width: 0.500000; stroke-linejoin: round; stroke-linecap: butt;  opacity: 1.000000" xlink:href="#m3400efa6b1638b3fea9e19e898273957" x="115.200000" y="296.550000"/>
</g></g>
<g id="line2d37">
<g ><use style="fill: none; stroke: #000000; stroke-width: 0.500000; stroke-linejoin: round; stroke-linecap: butt;  opacity: 1.000000" xlink:href="#m20b58b2501143cb5e0a5e8f1ef6f1643" x="829.440000" y="296.550000"/>
</g></g>
<g id="text13">
<g style="fill: #000000; opacity: 1.000000" transform="translate(94.106250,300.917187)scale(0.120000)">
<use xlink:href="#c_7a2040fe3b94fcd41d0a72c84e93b115"/>
<use xlink:href="#c_ed3e21196fb739f392806f09ca0594ef" x="63.623047"/>
<use xlink:href="#c_ed3f3ed3ebfbd18bcb9c012009a68ad1" x="95.410156"/>
</g>
</g>
</g>
<g id="ytick5">
<g id="line2d38">
<g ><use style="fill: none; stroke: #000000; stroke-width: 0.500000; stroke-linejoin: round; stroke-linecap: butt;  opacity: 1.000000" xlink:href="#m3400efa6b1638b3fea9e19e898273957" x="115.200000" y="217.470000"/>
</g></g>
<g id="line2d39">
<g ><use style="fill: none; stroke: #000000; stroke-width: 0.500000; stroke-linejoin: round; stroke-linecap: butt;  opacity: 1.000000" xlink:href="#m20b58b2501143cb5e0a5e8f1ef6f1643" x="829.440000" y="217.470000"/>
</g></g>
<g id="text14">
<g style="fill: #000000; opacity: 1.000000" transform="translate(93.575000,221.837187)scale(0.120000)">
<use xlink:href="#c_7a2040fe3b94fcd41d0a72c84e93b115"/>
<use xlink:href="#c_ed3e21196fb739f392806f09ca0594ef" x="63.623047"/>
<use xlink:href="#c_a0416418d96557a09b8c1332d34883ba" x="95.410156"/>
</g>
</g>
</g>
<g id="ytick6">
<g id="line2d40">
<g ><use style="fill: none; stroke: #000000; stroke-width: 0.500000; stroke-linejoin: round; stroke-linecap: butt;  opacity: 1.000000" xlink:href="#m3400efa6b1638b3fea9e19e898273957" x="115.200000" y="138.390000"/>
</g></g>
<g id="line2d41">
<g ><use style="fill: none; stroke: #000000; stroke-width: 0.500000; stroke-linejoin: round; stroke-linecap: butt;  opacity: 1.000000" xlink:href="#m20b58b2501143cb5e0a5e8f1ef6f1643" x="829.440000" y="138.390000"/>
</g></g>
<g id="text15">
<g style="fill: #000000; opacity: 1.000000" transform="translate(93.668750,142.757187)scale(0.120000)">
<use xlink:href="#c_7a2040fe3b94fcd41d0a72c84e93b115"/>
<use xlink:href="#c_ed3e21196fb739f392806f09ca0594ef" x="63.623047"/>
<use xlink:href="#c_cc8d6d580d1b10c8632f7a42cd53db8a" x="95.410156"/>
</g>
</g>
</g>
<g id="ytick7">
<g id="line2d42">
<g ><use style="fill: none; stroke: #000000; stroke-width: 0.500000; stroke-linejoin: round; stroke-linecap: butt;  opacity: 1.000000" xlink:href="#m3400efa6b1638b3fea9e19e898273957" x="115.200000" y="59.310000"/>
</g></g>
<g id="line2d43">
<g ><use style="fill: none; stroke: #000000; stroke-width: 0.500000; stroke-linejoin: round; stroke-linecap: butt;  opacity: 1.000000" xlink:href="#m20b58b2501143cb5e0a5e8f1ef6f1643" x="829.440000" y="59.310000"/>
</g></g>
<g id="text16">
<g style="fill: #000000; opacity: 1.000000" transform="translate(93.731250,63.677187)scale(0.120000)">
<use xlink:href="#c_7a2040fe3b94fcd41d0a72c84e93b115"/>
<use xlink:href="#c_ed3e21196fb739f392806f09ca0594ef" x="63.623047"/>
<use xlink:href="#c_bef35738d52871942e50b9de9b122bab" x="95.410156"/>
</g>
</g>
</g>
<g id="text17">
<defs>
<path id="c_c48ceabac27bf136feba2f4bf2716ab6" d="M2.984375 -54.687500l9.515625 0.000000l17.093750 45.890625l17.093750 -45.890625l9.515625 0.000000l-20.515625 54.687500l-12.203125 0.000000z"/>
<path id="c_d650c37394b681142a10dfc54356d478" d="M48.781250 -52.593750l0.000000 8.406250q-3.812500 -2.109375 -7.640625 -3.156250q-3.828125 -1.046875 -7.734375 -1.046875q-8.750000 0.000000 -13.593750 5.546875q-4.828125 5.531250 -4.828125 15.546875q0.000000 10.015625 4.828125 15.562500q4.843750 5.531250 13.593750 5.531250q3.906250 0.000000 7.734375 -1.046875q3.828125 -1.046875 7.640625 -3.156250l0.000000 8.312500q-3.765625 1.750000 -7.796875 2.625000q-4.015625 0.890625 -8.562500 0.890625q-12.359375 0.000000 -19.640625 -7.765625q-7.265625 -7.765625 -7.265625 -20.953125q0.000000 -13.375000 7.343750 -21.031250q7.359375 -7.671875 20.156250 -7.671875q4.140625 0.000000 8.093750 0.859375q3.953125 0.843750 7.671875 2.546875"/>
</defs>
<g style="fill: #000000; opacity: 1.000000" transform="translate(78.981250,454.870313)rotate(-90.0)scale(0.200000)">
<use xlink:href="#c_518d586bee075aa0153eaebfcb5ab11f"/>
<use xlink:href="#c_f05dd90d41f04bb96ef1ca503cc2044b" x="56.677734"/>
<use xlink:href="#c_8e0810ad13fe20a2a87a2619799b154d" x="117.859375"/>
<use xlink:href="#c_6a63bda47b2f3da1cec6aadd80692cfe" x="169.958984"/>
<use xlink:href="#c_0f8c41144cfbf448378cb6fd1cc8e549" x="197.742188"/>
<use xlink:href="#c_6a63bda47b2f3da1cec6aadd80692cfe" x="236.951172"/>
<use xlink:href="#c_f05dd90d41f04bb96ef1ca503cc2044b" x="264.734375"/>
<use xlink:href="#c_fe791a90f5471e2ab20a5ed41a7fa451" x="325.916016"/>
<use xlink:href="#c_d41d8cd98f00b204e9800998ecf8427e" x="389.294922"/>
<use xlink:href="#c_c48ceabac27bf136feba2f4bf2716ab6" x="421.082031"/>
<use xlink:href="#c_0bce5afba2dc6b9024b26277c38ad8e8" x="480.261719"/>
<use xlink:href="#c_6ec8d5749226675394676a5d2a3b468b" x="541.785156"/>
<use xlink:href="#c_0f8c41144cfbf448378cb6fd1cc8e549" x="582.898438"/>
<use xlink:href="#c_6a63bda47b2f3da1cec6aadd80692cfe" x="622.107422"/>
<use xlink:href="#c_d650c37394b681142a10dfc54356d478" x="649.890625"/>
<use xlink:href="#c_01d93a582460e35a7945ca50d148ffeb" x="704.871094"/>
<use xlink:href="#c_5099edb83619131346ae654950954dea" x="766.150391"/>
<use xlink:href="#c_0bce5afba2dc6b9024b26277c38ad8e8" x="793.933594"/>
<use xlink:href="#c_d41d8cd98f00b204e9800998ecf8427e" x="855.457031"/>
<use xlink:href="#c_d821beae607506e87470f334d9ff47af" x="887.244141"/>
<use xlink:href="#c_3b515ad41f960e225ec85275856806ca" x="950.720703"/>
<use xlink:href="#c_d41d8cd98f00b204e9800998ecf8427e" x="1014.099609"/>
<use xlink:href="#c_f15a64fcd463ef4629c48bab42cde24c" x="1045.886719"/>
<use xlink:href="#c_f05dd90d41f04bb96ef1ca503cc2044b" x="1109.363281"/>
<use xlink:href="#c_6a63bda47b2f3da1cec6aadd80692cfe" x="1170.544922"/>
<use xlink:href="#c_e3864de5dabf2f8dd9eee74726882ec1" x="1198.328125"/>
<use xlink:href="#c_fe791a90f5471e2ab20a5ed41a7fa451" x="1261.804688"/>
<use xlink:href="#c_0bce5afba2dc6b9024b26277c38ad8e8" x="1325.183594"/>
<use xlink:href="#c_0f8c41144cfbf448378cb6fd1cc8e549" x="1386.707031"/>
<use xlink:href="#c_d41d8cd98f00b204e9800998ecf8427e" x="1425.916016"/>
<use xlink:href="#c_7efa9804c2b4c09a4b614b91fdebee3d" x="1457.703125"/>
<use xlink:href="#c_4653c6dfde66c7610eae0911760d3490" x="1496.716797"/>
<use xlink:href="#c_e96974be642f6eac0427d72f9cec6c19" x="1594.128906"/>
</g>
</g>
</g>
<g id="patch3">
<path style="fill: none; stroke: #000000; stroke-width: 1.000000; stroke-linejoin: round; stroke-linecap: square;  opacity: 1.000000"  d="M115.200000 59.310000L829.440000 59.310000"/>
</g>
<g id="patch4">
<path style="fill: none; stroke: #000000; stroke-width: 1.000000; stroke-linejoin: round; stroke-linecap: square;  opacity: 1.000000"  d="M829.440000 533.790000L829.440000 59.310000"/>
</g>
<g id="patch5">
<path style="fill: none; stroke: #000000; stroke-width: 1.000000; stroke-linejoin: round; stroke-linecap: square;  opacity: 1.000000"  d="M115.200000 533.790000L829.440000 533.790000"/>
</g>
<g id="patch6">
<path style="fill: none; stroke: #000000; stroke-width: 1.000000; stroke-linejoin: round; stroke-linecap: square;  opacity: 1.000000"  d="M115.200000 533.790000L115.200000 59.310000"/>
</g>
<g id="text18">
<defs>
<path id="c_2e5dfb8af59f7166823a060f6b91d481" d="M34.281250 -27.484375q-10.890625 0.000000 -15.093750 2.484375q-4.203125 2.484375 -4.203125 8.500000q0.000000 4.781250 3.156250 7.593750q3.156250 2.796875 8.562500 2.796875q7.484375 0.000000 12.000000 -5.296875q4.515625 -5.296875 4.515625 -14.078125l0.000000 -2.000000zM52.203125 -31.203125l0.000000 31.203125l-8.984375 0.000000l0.000000 -8.296875q-3.078125 4.968750 -7.671875 7.343750q-4.593750 2.375000 -11.234375 2.375000q-8.390625 0.000000 -13.359375 -4.718750q-4.953125 -4.718750 -4.953125 -12.625000q0.000000 -9.218750 6.171875 -13.906250q6.187500 -4.687500 18.437500 -4.687500l12.609375 0.000000l0.000000 -0.890625q0.000000 -6.203125 -4.078125 -9.593750q-4.078125 -3.390625 -11.453125 -3.390625q-4.687500 0.000000 -9.140625 1.125000q-4.437500 1.125000 -8.531250 3.375000l0.000000 -8.312500q4.921875 -1.906250 9.562500 -2.843750q4.640625 -0.953125 9.031250 -0.953125q11.875000 0.000000 17.734375 6.156250q5.859375 6.140625 5.859375 18.640625M25.390625 -79.984375l7.218750 0.000000l11.968750 18.359375l-6.781250 0.000000l-8.796875 -11.953125l-8.781250 11.953125l-6.796875 0.000000z"/>
</defs>
<g style="fill: #000000; opacity: 1.000000" transform="translate(146.155937,50.153750)scale(0.200000)">
<use xlink:href="#c_518d586bee075aa0153eaebfcb5ab11f"/>
<use xlink:href="#c_f05dd90d41f04bb96ef1ca503cc2044b" x="56.677734"/>
<use xlink:href="#c_8e0810ad13fe20a2a87a2619799b154d" x="117.859375"/>
<use xlink:href="#c_6a63bda47b2f3da1cec6aadd80692cfe" x="169.958984"/>
<use xlink:href="#c_0f8c41144cfbf448378cb6fd1cc8e549" x="197.742188"/>
<use xlink:href="#c_6a63bda47b2f3da1cec6aadd80692cfe" x="236.951172"/>
<use xlink:href="#c_f05dd90d41f04bb96ef1ca503cc2044b" x="264.734375"/>
<use xlink:href="#c_fe791a90f5471e2ab20a5ed41a7fa451" x="325.916016"/>
<use xlink:href="#c_d41d8cd98f00b204e9800998ecf8427e" x="389.294922"/>
<use xlink:href="#c_d821beae607506e87470f334d9ff47af" x="421.082031"/>
<use xlink:href="#c_3b515ad41f960e225ec85275856806ca" x="484.558594"/>
<use xlink:href="#c_d41d8cd98f00b204e9800998ecf8427e" x="547.937500"/>
<use xlink:href="#c_f15a64fcd463ef4629c48bab42cde24c" x="579.724609"/>
<use xlink:href="#c_f05dd90d41f04bb96ef1ca503cc2044b" x="643.201172"/>
<use xlink:href="#c_6a63bda47b2f3da1cec6aadd80692cfe" x="704.382812"/>
<use xlink:href="#c_e3864de5dabf2f8dd9eee74726882ec1" x="732.166016"/>
<use xlink:href="#c_fe791a90f5471e2ab20a5ed41a7fa451" x="795.642578"/>
<use xlink:href="#c_0bce5afba2dc6b9024b26277c38ad8e8" x="859.021484"/>
<use xlink:href="#c_0f8c41144cfbf448378cb6fd1cc8e549" x="920.544922"/>
<use xlink:href="#c_d41d8cd98f00b204e9800998ecf8427e" x="959.753906"/>
<use xlink:href="#c_01d93a582460e35a7945ca50d148ffeb" x="991.541016"/>
<use xlink:href="#c_3b515ad41f960e225ec85275856806ca" x="1052.820312"/>
<use xlink:href="#c_d41d8cd98f00b204e9800998ecf8427e" x="1116.199219"/>
<use xlink:href="#c_d650c37394b681142a10dfc54356d478" x="1147.986328"/>
<use xlink:href="#c_f05dd90d41f04bb96ef1ca503cc2044b" x="1202.966797"/>
<use xlink:href="#c_3b515ad41f960e225ec85275856806ca" x="1264.148438"/>
<use xlink:href="#c_6ec8d5749226675394676a5d2a3b468b" x="1327.527344"/>
<use xlink:href="#c_8e0810ad13fe20a2a87a2619799b154d" x="1368.640625"/>
<use xlink:href="#c_d41d8cd98f00b204e9800998ecf8427e" x="1420.740234"/>
<use xlink:href="#c_d821beae607506e87470f334d9ff47af" x="1452.527344"/>
<use xlink:href="#c_3b515ad41f960e225ec85275856806ca" x="1516.003906"/>
<use xlink:href="#c_d41d8cd98f00b204e9800998ecf8427e" x="1579.382812"/>
<use xlink:href="#c_4653c6dfde66c7610eae0911760d3490" x="1611.169922"/>
<use xlink:href="#c_f05dd90d41f04bb96ef1ca503cc2044b" x="1708.582031"/>
<use xlink:href="#c_3b515ad41f960e225ec85275856806ca" x="1769.763672"/>
<use xlink:href="#c_c48ceabac27bf136feba2f4bf2716ab6" x="1833.142578"/>
<use xlink:href="#c_0bce5afba2dc6b9024b26277c38ad8e8" x="1892.322266"/>
<use xlink:href="#c_4653c6dfde66c7610eae0911760d3490" x="1953.845703"/>
<use xlink:href="#c_0bce5afba2dc6b9024b26277c38ad8e8" x="2051.257812"/>
<use xlink:href="#c_fe791a90f5471e2ab20a5ed41a7fa451" x="2112.781250"/>
<use xlink:href="#c_0f8c41144cfbf448378cb6fd1cc8e549" x="2176.160156"/>
<use xlink:href="#c_d41d8cd98f00b204e9800998ecf8427e" x="2215.369141"/>
<use xlink:href="#c_7efa9804c2b4c09a4b614b91fdebee3d" x="2247.156250"/>
<use xlink:href="#c_0bce5afba2dc6b9024b26277c38ad8e8" x="2286.169922"/>
<use xlink:href="#c_8e0810ad13fe20a2a87a2619799b154d" x="2347.693359"/>
<use xlink:href="#c_f15a64fcd463ef4629c48bab42cde24c" x="2399.792969"/>
<use xlink:href="#c_01d93a582460e35a7945ca50d148ffeb" x="2463.269531"/>
<use xlink:href="#c_d650c37394b681142a10dfc54356d478" x="2524.548828"/>
<use xlink:href="#c_0bce5afba2dc6b9024b26277c38ad8e8" x="2579.529297"/>
<use xlink:href="#c_d41d8cd98f00b204e9800998ecf8427e" x="2641.052734"/>
<use xlink:href="#c_d821beae607506e87470f334d9ff47af" x="2672.839844"/>
<use xlink:href="#c_0bce5afba2dc6b9024b26277c38ad8e8" x="2736.316406"/>
<use xlink:href="#c_d41d8cd98f00b204e9800998ecf8427e" x="2797.839844"/>
<use xlink:href="#c_5099edb83619131346ae654950954dea" x="2829.626953"/>
<use xlink:href="#c_01d93a582460e35a7945ca50d148ffeb" x="2857.410156"/>
<use xlink:href="#c_d41d8cd98f00b204e9800998ecf8427e" x="2918.689453"/>
<use xlink:href="#c_0f8c41144cfbf448378cb6fd1cc8e549" x="2950.476562"/>
<use xlink:href="#c_2e5dfb8af59f7166823a060f6b91d481" x="2989.685547"/>
<use xlink:href="#c_d650c37394b681142a10dfc54356d478" x="3050.964844"/>
<use xlink:href="#c_74d54c94aa871ec39e2bc6697dde6c00" x="3105.945312"/>
<use xlink:href="#c_0bce5afba2dc6b9024b26277c38ad8e8" x="3169.324219"/>
<use xlink:href="#c_e96974be642f6eac0427d72f9cec6c19" x="3230.847656"/>
</g>
</g>
</g>
</g>
</svg>
