<?xml version="1.0" encoding="UTF-8" standalone="no"?>
<!-- Created with Inkscape (http://www.inkscape.org/) -->

<svg
   xmlns:dc="http://purl.org/dc/elements/1.1/"
   xmlns:cc="http://creativecommons.org/ns#"
   xmlns:rdf="http://www.w3.org/1999/02/22-rdf-syntax-ns#"
   xmlns:svg="http://www.w3.org/2000/svg"
   xmlns="http://www.w3.org/2000/svg"
   xmlns:sodipodi="http://sodipodi.sourceforge.net/DTD/sodipodi-0.dtd"
   xmlns:inkscape="http://www.inkscape.org/namespaces/inkscape"
   width="354.33069"
   height="425.19684"
   id="svg2"
   version="1.1"
   inkscape:version="0.47 r22583"
   sodipodi:docname="paths.svg">
  <defs
     id="defs4">
    <inkscape:perspective
       sodipodi:type="inkscape:persp3d"
       inkscape:vp_x="0 : 526.18109 : 1"
       inkscape:vp_y="0 : 1000 : 0"
       inkscape:vp_z="744.09448 : 526.18109 : 1"
       inkscape:persp3d-origin="372.04724 : 350.78739 : 1"
       id="perspective32" />
    <marker
       inkscape:stockid="TriangleOutL"
       orient="auto"
       refY="0"
       refX="0"
       id="TriangleOutL"
       style="overflow:visible">
      <path
         id="path4101"
         d="m 5.77,0 -8.65,5 0,-10 8.65,5 z"
         style="fill-rule:evenodd;stroke:#000000;stroke-width:1pt;marker-start:none"
         transform="scale(0.8,0.8)" />
    </marker>
    <marker
       inkscape:stockid="TriangleInL"
       orient="auto"
       refY="0"
       refX="0"
       id="TriangleInL"
       style="overflow:visible">
      <path
         id="path4092"
         d="m 5.77,0 -8.65,5 0,-10 8.65,5 z"
         style="fill-rule:evenodd;stroke:#000000;stroke-width:1pt;marker-start:none"
         transform="scale(-0.8,-0.8)" />
    </marker>
    <marker
       inkscape:stockid="Arrow2Lstart"
       orient="auto"
       refY="0"
       refX="0"
       id="Arrow2Lstart"
       style="overflow:visible">
      <path
         id="path3976"
         style="font-size:12px;fill-rule:evenodd;stroke-width:0.625;stroke-linejoin:round"
         d="M 8.7185878,4.0337352 -2.2072895,0.01601326 8.7185884,-4.0017078 c -1.7454984,2.3720609 -1.7354408,5.6174519 -6e-7,8.035443 z"
         transform="matrix(1.1,0,0,1.1,1.1,0)" />
    </marker>
    <marker
       inkscape:stockid="Arrow1Lstart"
       orient="auto"
       refY="0"
       refX="0"
       id="Arrow1Lstart"
       style="overflow:visible">
      <path
         id="path3958"
         d="M 0,0 5,-5 -12.5,0 5,5 0,0 z"
         style="fill-rule:evenodd;stroke:#000000;stroke-width:1pt;marker-start:none"
         transform="matrix(0.8,0,0,0.8,10,0)" />
    </marker>
    <inkscape:perspective
       id="perspective2890"
       inkscape:persp3d-origin="50 : 33.329666 : 1"
       inkscape:vp_z="100 : 49.994499 : 1"
       inkscape:vp_y="0 : 1000 : 0"
       inkscape:vp_x="0 : 49.994499 : 1"
       sodipodi:type="inkscape:persp3d" />
  </defs>
  <sodipodi:namedview
     id="base"
     pagecolor="#ffffff"
     bordercolor="#666666"
     borderopacity="1.0"
     inkscape:pageopacity="0.0"
     inkscape:pageshadow="2"
     inkscape:zoom="0.7"
     inkscape:cx="486.04612"
     inkscape:cy="205.35515"
     inkscape:document-units="px"
     inkscape:current-layer="layer1"
     showgrid="false"
     inkscape:window-width="1024"
     inkscape:window-height="693"
     inkscape:window-x="0"
     inkscape:window-y="25"
     inkscape:window-maximized="1"
     showguides="true"
     inkscape:guide-bbox="true"
     units="cm" />
  <metadata
     id="metadata7">
    <rdf:RDF>
      <cc:Work
         rdf:about="">
        <dc:format>image/svg+xml</dc:format>
        <dc:type
           rdf:resource="http://purl.org/dc/dcmitype/StillImage" />
        <dc:title />
      </cc:Work>
    </rdf:RDF>
  </metadata>
  <g
     inkscape:label="Calque 1"
     inkscape:groupmode="layer"
     id="layer1"
     transform="translate(-192.48834,-518.25302)">
    <g
       id="g3628"
       transform="translate(26.790309,-22.045681)">
      <path
         sodipodi:nodetypes="cszccssssssccccssccsscssssssssccssssszczzzzcccczcsccssssssssssssssssssccsssscccczssszzzcsccccczccsccssszcc"
         inkscape:connector-curvature="0"
         id="path3066"
         d="m 200.34844,921.4034 c -10.53671,-8.34523 -10.46859,-27.25385 0.13659,-37.91599 4.31464,-4.33782 4.5994,-5.17598 19.07533,-10.97583 14.47593,-5.79985 27.97284,-8.26766 39.64792,-12.9682 10.08154,-2.90756 4.54007,-1.60114 13.47282,-4.41193 0.93283,-0.28364 2.87044,-2.99813 4.30578,-6.03221 3.48456,-7.36575 17.38442,-19.58766 22.27686,-19.58766 1.01699,0 4.86846,-2.025 8.55883,-4.5 7.46072,-5.00365 9.51326,-5.42733 12.15438,-2.50893 1.94754,2.15201 9.77582,7.00893 11.29684,7.00893 5.95207,0 18.57245,14.31445 22.22655,26.28068 1.45662,4.77007 3.5491,6.71932 9.72782,6.71932 6.15493,2.3054 13.41941,2.24366 19.03899,4.62075 5.31471,2.1198 11.21884,3.39902 16.21788,5.34685 20.58439,15.10456 19.5046,-20.72419 32.3654,-49.90504 2.18381,-4.78566 5.9931,-14.07371 8.46512,-20.64012 2.47201,-6.56641 5.79604,-13.98068 7.38673,-16.47616 7.6263,-11.96419 8.72007,-11.09094 -5.32824,-8.16973 -28.1835,3.75545 -58.55651,2.51442 -85.19194,0.18963 -17.76238,-1.71442 -21.54316,-1.29461 -27.00005,2.99798 -2.38533,1.87638 -5.61752,3.60993 -7.18268,3.85232 -1.56515,0.24239 -4.0063,1.34541 -5.42479,2.45113 -5.46844,4.26278 -17.73802,3.78525 -21.41965,-0.8336 -1.66198,-2.08507 -4.47762,-3.96315 -8.19167,-5.46396 -8.83984,-3.57211 -9.99746,-5.7894 -7.23292,-13.85395 1.53092,-4.46591 1.89277,-7.23858 1.08262,-8.2956 -5.47515,-7.1435 19.33551,-27.80995 27.4318,-22.84977 0.88292,0.54092 3.62458,1.47089 6.09258,2.06658 2.46802,0.59572 4.73116,1.38906 5.02922,1.76299 0.29806,0.37395 3.2313,1.52704 6.5183,2.56243 3.287,1.03539 6.309,2.29985 6.71556,2.80991 22.88057,10.06321 60.03451,-4.76466 86.40024,-4.71171 2.13234,0.028 6.58747,-0.5194 9.90026,-1.21644 3.3128,-0.69703 8.28922,-1.13395 11.05871,-0.97094 2.76952,0.163 5.38105,0.0209 5.80344,-0.31577 1.75225,-1.3967 13.40249,-2.20982 20.0213,-1.39738 3.90989,0.47992 9.69599,0.88039 12.85801,0.88992 13.05895,0.0394 17.45985,8.93711 12.7797,36.1874 -4.68015,27.2503 -21.05905,61.59797 -25.03999,89.28075 -3.38807,6.58283 -6.33632,32.72963 -10.02801,42.52674 -3.69168,9.79711 -16.20204,22.31494 -26.39654,26.554 -10.1945,4.23906 -41.13188,8.89504 -61.81827,10.50079 -20.68639,1.60575 -53.8249,2.35163 -78.2971,-0.38594 -24.4722,-2.73757 -63.72405,-4.7583 -89.49373,-20.22224 z m 167.42154,15.776 c 25.32493,-2.10599 50.7855,-2.4893 68.51134,-14.30432 13.65652,-8.33583 19.23815,-32.32805 20.10476,-40.92667 1.00867,-15.34995 6.40863,-22.83896 12.05768,-45.37178 5.64904,-22.53281 23.23508,-57.97241 20.68771,-84.14828 -1.46266,-5.44999 -21.05948,-12.0862 -32.98775,-10.49661 -2.43124,0.324 -6.70186,0.61475 -9.49023,0.64612 -28.28278,2.04199 -55.34597,5.41599 -80.22598,9.75546 -18.40236,3.33743 -24.17153,3.1333 -33.29334,-1.17799 -27.39815,-12.94935 -33.8191,-13.26608 -42.95525,-2.11888 -3.79765,4.63359 -3.96129,5.9603 -1.31319,10.646 1.98289,3.50862 8.95044,6.53621 8.11603,3.52664 -1.07407,-3.87396 -0.37198,-5.5085 3.90039,-9.08063 5.8047,-4.85333 9.38536,-4.55946 15.14183,1.24271 4.85304,4.89159 4.7801,6.27864 -0.60266,11.4599 -2.09424,2.01585 -4.34955,4.87509 -5.0118,6.35388 -0.94558,2.11141 -1.61403,2.68399 -3.11319,2.66671 -2.58145,-0.0298 -9.57299,-2.72734 -10.68525,-4.12273 -1.47266,-1.84756 -4.68041,-2.23192 -8.76087,-1.04976 -5.06848,1.46841 -4.70599,2.55189 1.60302,4.7914 3.23298,1.14762 6.07237,2.91829 7.44884,4.64518 3.9727,4.98402 13.07741,5.42624 18.86121,0.91608 1.44088,-1.12356 3.90035,-2.24118 5.4655,-2.48357 1.56515,-0.2424 4.33818,-1.60994 6.16228,-3.03898 6.82203,-5.34453 11.63454,-5.7733 36.00556,-3.20779 13.44614,1.41544 23.85908,1.93515 25.30398,1.2629 1.35041,-0.62827 9.76881,-0.439 18.70758,0.42062 8.66361,2.06682 18.12089,0.11885 25.79223,-0.15444 4.11268,-0.13471 9.5367,-0.72943 12.05335,-1.32161 5.46592,-1.28614 13.72818,-3.62101 14.78145,-1.28177 0.48738,1.08242 -1.21001,4.75997 -4.85743,10.52412 -3.08363,4.87316 -7.58817,13.96528 -10.0101,20.20473 -2.42192,6.23943 -6.3143,15.41263 -8.64974,20.38488 -11.0736,18.59281 -14.26256,66.07377 -26.47404,59.63886 -2.46097,-1.84844 -5.62046,-1.02489 -8.10887,-2.37678 -0.5225,-0.49972 -4.55,-2.09692 -8.95,-3.54934 -9.49433,-5.30628 -17.51928,-5.75001 -27.62607,-7.17811 -10.10679,-1.4281 -6.98153,-1.25388 -5.93094,4.39609 1.15397,6.20593 0.16063,27.18298 -1.45565,30.73994 -0.74976,1.65 -2.3067,5.08674 -3.45987,7.6372 -3.64081,8.05237 -10.89361,15.1619 -19.69354,18.8628 -8.79993,3.7009 -27.78979,3.56247 -37.4275,-0.9448 -9.6377,-4.50727 -19.321,-12.1375 -22.52278,-17.99408 -3.20178,-5.85658 -6.0459,-18.75353 -5.30108,-27.33117 2.17888,-21.19107 2.41718,-20.2481 -5.08257,-20.11198 -4.98888,0.0905 -8.09091,0.84611 -13.34322,3.25 -13.54012,3.88009 -27.86806,8.49672 -38.14515,13.13203 -10.97371,4.91928 -10.66814,10.17597 -13.26308,16 -4.36637,18.43954 9.58309,25.98 24.21308,29.16302 2.7289,0.55248 6.19405,1.64181 7.70034,2.42074 19.71647,7.46637 43.36248,6.35326 63.93948,9.32609 20.57701,2.97283 64.03958,2.59656 72.1835,-0.24203 z m -35.26759,-11.66782 c 9.46517,-2.59512 11.40953,-7.26694 16.66584,-15.5 8.04533,-12.60155 4.29894,-40.82513 1.0668,-45.75852 -1.47502,-5.65688 -3.87817,-9.5331 -5.63725,-14.84599 -1.6698,-5.13627 -7.22141,-11.19978 -12.27794,-13.41005 -2.38414,-1.04214 -5.408,-2.7027 -6.71967,-3.69012 -7.76861,-5.8482 -27.09756,-0.14548 -36.61514,10.80274 -9.79269,11.26469 -12.8104,28.16155 -14.43818,42.37338 -1.62779,14.21182 4.4523,25.21393 13.23782,31.33503 13.00179,11.46555 28.86297,13.07391 44.71772,8.69353 z"
         style="fill:#000000;fill-opacity:1" />
      <path
         sodipodi:nodetypes="cc"
         id="path3690"
         d="M 305.71429,760.93362 416.42859,575.21933"
         style="fill:none;stroke:#000000;stroke-width:3;stroke-linecap:butt;stroke-linejoin:miter;stroke-miterlimit:4;stroke-opacity:1;stroke-dasharray:3, 9;stroke-dashoffset:0" />
      <path
         sodipodi:nodetypes="cc"
         transform="translate(192.48834,518.25302)"
         id="path3624"
         d="m 113.13708,241.34908 c 0,0 26.28628,-124.6177 110.86425,-185.615535"
         style="fill:none;stroke:#c00000;stroke-width:2;stroke-linecap:round;stroke-linejoin:miter;stroke-miterlimit:4;stroke-opacity:1;stroke-dasharray:none" />
      <path
         sodipodi:nodetypes="cc"
         transform="translate(192.48834,518.25302)"
         id="path3626"
         d="m 115.40993,242.35923 c 0,0 92.78302,-83.94419 109.85408,-185.86807"
         style="fill:none;stroke:#0f00ab;stroke-width:2;stroke-linecap:round;stroke-linejoin:miter;stroke-miterlimit:4;stroke-opacity:1;stroke-dasharray:none" />
      <polygon
         transform="matrix(0.17871941,-0.17871941,0.17871941,0.17871941,400.14655,574.37157)"
         points="100,67.333 67.562,67.333 67.562,99.989 32.702,99.989 32.702,67.333 0,67.333 0,32.713 32.569,32.713 32.569,0 67.298,0 67.298,32.713 100,32.713 "
         id="polygon2882" />
    </g>
  </g>
</svg>
