<?xml version="1.0" encoding="UTF-8" standalone="no"?>
<!-- Created with matplotlib (http://matplotlib.sourceforge.net/) -->

<svg
   xmlns:osb="http://www.openswatchbook.org/uri/2009/osb"
   xmlns:dc="http://purl.org/dc/elements/1.1/"
   xmlns:cc="http://creativecommons.org/ns#"
   xmlns:rdf="http://www.w3.org/1999/02/22-rdf-syntax-ns#"
   xmlns:svg="http://www.w3.org/2000/svg"
   xmlns="http://www.w3.org/2000/svg"
   xmlns:sodipodi="http://sodipodi.sourceforge.net/DTD/sodipodi-0.dtd"
   xmlns:inkscape="http://www.inkscape.org/namespaces/inkscape"
   width="807.43225"
   height="505.10468"
   viewBox="0 0 645.9458 404.08374"
   version="1.1"
   id="svg1"
   inkscape:version="0.48.1 r9760"
   sodipodi:docname="space.svg">
  <sodipodi:namedview
     pagecolor="#ffffff"
     bordercolor="#666666"
     borderopacity="1"
     objecttolerance="10"
     gridtolerance="10"
     guidetolerance="10"
     inkscape:pageopacity="0"
     inkscape:pageshadow="2"
     inkscape:window-width="1440"
     inkscape:window-height="825"
     id="namedview719"
     showgrid="false"
     inkscape:zoom="1.0913054"
     inkscape:cx="239.36449"
     inkscape:cy="237.95992"
     inkscape:window-x="0"
     inkscape:window-y="25"
     inkscape:window-maximized="1"
     inkscape:current-layer="svg1"
     fit-margin-top="0.3"
     fit-margin-right="0.3"
     fit-margin-bottom="0.3"
     fit-margin-left="0.3"
     units="cm" />
  <metadata
     id="metadata723">
    <rdf:RDF>
      <cc:Work
         rdf:about="">
        <dc:format>image/svg+xml</dc:format>
        <dc:type
           rdf:resource="http://purl.org/dc/dcmitype/StillImage" />
      </cc:Work>
    </rdf:RDF>
  </metadata>
  <defs
     id="defs721">
    <linearGradient
       osb:paint="solid"
       id="linearGradient3967">
      <stop
         id="stop3969"
         offset="0"
         style="stop-color:#000000;stop-opacity:1;" />
    </linearGradient>
    <clipPath
       id="p7925595e59115e0f26db4807d9e1425e-8">
      <rect
         id="rect15-3"
         height="474.48001"
         width="714.23999"
         y="59.310001"
         x="115.2" />
    </clipPath>
    <marker
       inkscape:stockid="Arrow1Lstart"
       orient="auto"
       refY="0"
       refX="0"
       id="Arrow1Lstart"
       style="overflow:visible">
      <path
         inkscape:connector-curvature="0"
         id="path3958"
         d="M 0,0 5,-5 -12.5,0 5,5 0,0 z"
         style="fill-rule:evenodd;stroke:#000000;stroke-width:1pt;marker-start:none"
         transform="matrix(0.8,0,0,0.8,10,0)" />
    </marker>
    <marker
       inkscape:stockid="Arrow2Lstart"
       orient="auto"
       refY="0"
       refX="0"
       id="Arrow2Lstart"
       style="overflow:visible">
      <path
         inkscape:connector-curvature="0"
         id="path3976"
         style="font-size:12px;fill-rule:evenodd;stroke-width:0.625;stroke-linejoin:round"
         d="M 8.7185878,4.0337352 -2.2072895,0.01601326 8.7185884,-4.0017078 c -1.7454984,2.3720609 -1.7354408,5.6174519 -6e-7,8.035443 z"
         transform="matrix(1.1,0,0,1.1,1.1,0)" />
    </marker>
    <marker
       inkscape:stockid="TriangleInL"
       orient="auto"
       refY="0"
       refX="0"
       id="TriangleInL"
       style="overflow:visible">
      <path
         inkscape:connector-curvature="0"
         id="path4092"
         d="m 5.77,0 -8.65,5 0,-10 8.65,5 z"
         style="fill-rule:evenodd;stroke:#000000;stroke-width:1pt;marker-start:none"
         transform="scale(-0.8,-0.8)" />
    </marker>
    <marker
       inkscape:stockid="TriangleOutL"
       orient="auto"
       refY="0"
       refX="0"
       id="TriangleOutL"
       style="overflow:visible">
      <path
         inkscape:connector-curvature="0"
         id="path4101"
         d="m 5.77,0 -8.65,5 0,-10 8.65,5 z"
         style="fill-rule:evenodd;stroke:#000000;stroke-width:1pt;marker-start:none"
         transform="scale(0.8,0.8)" />
    </marker>
  </defs>
  <path
     id="path68-1"
     d="m 708.48678,504.135 5.85117,-8.52882 5.06928,-8.82437 4.2627,-9.07695 3.43536,-9.28529 2.59126,-9.4484 1.73456,-9.56548 0.8694,-9.63595 0,-9.65948 -0.8694,-9.63595 -1.73456,-9.56548 -2.59126,-9.4484 -3.43536,-9.28529 -4.2627,-9.07695 -5.06928,-8.82437 -5.85117,-8.52882 -6.60455,-8.19171 -7.32575,-7.81468 -8.01126,-7.39959 -8.65774,-6.94846 -9.26204,-6.46345 -9.82122,-5.94697 -10.33255,-5.40152 -10.79354,-4.82974 -11.20195,-4.23444 -11.55578,-3.6185 -11.85331,-2.98495 -12.0931,-2.33684 -12.27396,-1.67735 -12.39503,-1.00969 -12.45572,-0.33711 -12.45571,0.33711 -12.39504,1.00969 -12.27396,1.67735 -12.09309,2.33684 -11.85331,2.98495 -11.55578,3.6185 -11.20195,4.23444 -10.79354,4.82974 -10.33255,5.40152 -9.82122,5.94697 -7.47621,-1.33034 -7.62966,-0.61427 -7.66939,0.11095 -7.59477,0.83452 -7.40694,1.54565 -7.10868,2.23373 -6.70446,2.88852 -6.20028,3.50024 -4.84295,3.44777 -4.35141,3.82122 -3.81222,4.15281 -3.23124,4.4389 -2.61487,4.67635 -1.96984,4.86258 -1.30324,4.99552 -0.62236,5.07374 0.0654,5.09636 0.75233,5.06315 1.43107,4.97446 2.09414,4.83128 2.73426,4.63516 3.34443,4.38825 3.91794,4.09327 4.44854,3.75345 4.93039,3.3725 5.35824,2.95459 4.74978,2.11943 -1.73481,1.57425 -11.10489,4.38532 -11.47254,3.77426 -11.78429,3.14482 -12.03863,2.50006 -12.23432,1.84311 -12.37041,1.1772 -12.44623,0.50554 -12.46141,-0.16859 -12.41588,-0.84187 -12.30986,-1.51108 -12.14388,-2.17291 -11.91872,-2.82416 -11.6355,-3.46165 -11.29559,-4.08227 -10.90066,-4.68301 -10.45261,-5.26094 -9.95364,-5.81322 -9.40618,-6.33719 -8.81289,-6.83028 -8.17666,-7.29011 -7.50061,-7.7144 -6.788,-8.10113 -6.04233,-8.44837 -5.26723,-8.75447 -4.46645,-9.0179 -3.64392,-9.23741 -2.80363,-9.41191 -1.94969,-9.54056 -1.08625,-9.62272 -0.21751,-9.65802 0.65227,-9.64624 1.5189,-9.58748 2.37811,-9.48201 3.22574,-9.33035 4.05766,-9.13322 4.8698,-8.8916 5.65823,-8.60666 6.41907,-8.27979 7.14866,-7.91259 5.81946,-5.67019 11.50385,-10.07756 12.16859,-9.59712 12.79998,-9.09039 13.3963,-8.55873 13.95588,-8.00363 14.47721,-7.42657 14.95888,-6.82917 15.39952,-6.21305 15.79798,-5.57989 16.15312,-4.93145 16.46399,-4.26949 16.72973,-3.59581 16.94962,-2.9123 17.12306,-2.2208 17.24955,-1.5232 17.32876,-0.82144 17.3605,-0.11742 17.34462,0.58692 17.28122,1.28965 17.17046,1.98885 17.01262,2.68259 16.80815,3.36898 16.55763,4.04614 16.26171,4.71221 15.92121,5.36536 15.53709,6.0038 15.11038,6.62579 14.64224,7.22962 14.13399,7.81364 13.58697,8.37623 13.00274,8.91586 12.38285,9.43107 11.72902,9.92042 11.04305,10.38257 10.32681,10.81628 9.58226,11.22033 8.81145,11.59363 8.01649,11.93515 7.19955,12.24396 6.36288,12.51921 5.50877,12.76015 4.63957,12.9661 3.75764,13.13653 2.86542,13.27094 1.96533,13.36898 1.05988,13.43038 0.1515,13.45496 -0.75728,13.44267 -1.664,13.39353 -2.56614,13.30768 -3.46125,13.18535 -4.34689,13.02689 -5.2206,12.83271 -6.08,12.60337 -6.92274,12.33948 -7.74651,12.04177 -5.61159,7.84611 0,0"
     clip-path="url(#p7925595e59115e0f26db4807d9e1425e-8)"
     style="fill:none;stroke:#000000;stroke-width:1.60000002;stroke-linecap:square;stroke-linejoin:round;stroke-miterlimit:4;stroke-dasharray:none"
     transform="translate(-116.22197,-109.3552)"
     inkscape:connector-curvature="0" />
  <path
     transform="matrix(0.72796222,-0.33176951,0.33176951,0.72796222,-231.28748,134.7388)"
     d="m 618.52528,393.9595 a 24.282845,17.410341 0 1 1 -48.56569,0 24.282845,17.410341 0 1 1 48.56569,0 z"
     sodipodi:ry="17.410341"
     sodipodi:rx="24.282845"
     sodipodi:cy="393.9595"
     sodipodi:cx="594.24243"
     id="path3993"
     style="fill:#ffffff;fill-opacity:1;stroke-width:2;stroke-miterlimit:4;stroke-dasharray:none"
     sodipodi:type="arc" />
  <path
     transform="matrix(0.8,0,0,0.8,-137.5271,-94.457203)"
     d="m 514.06323,451.68854 a 29.780848,36.653351 0 1 1 -59.5617,0 29.780848,36.653351 0 1 1 59.5617,0 z"
     sodipodi:ry="36.653351"
     sodipodi:rx="29.780848"
     sodipodi:cy="451.68854"
     sodipodi:cx="484.28238"
     id="path3965"
     style="fill:#ffffff;fill-opacity:1;stroke-width:2;stroke-miterlimit:4;stroke-dasharray:none"
     sodipodi:type="arc" />
  <path
     inkscape:transform-center-y="-20.159342"
     inkscape:transform-center-x="-31.609576"
     transform="matrix(0.6319453,-0.67375133,0.49055596,0.48973745,-203.07289,412.6568)"
     d="m 634.10297,382.9635 a 37.111515,19.243008 0 1 1 -74.22303,0 37.111515,19.243008 0 1 1 74.22303,0 z"
     sodipodi:ry="19.243008"
     sodipodi:rx="37.111515"
     sodipodi:cy="382.9635"
     sodipodi:cx="596.99146"
     id="path3991"
     style="fill:#ffffff;fill-opacity:1;stroke-width:2;stroke-miterlimit:4;stroke-dasharray:none"
     sodipodi:type="arc" />
  <g
     transform="matrix(0.8,0,0,0.8,-45.813509,-252.2152)"
     inkscape:label="Calque 1"
     id="layer1">
    <path
       style="fill:#000000;fill-opacity:1"
       d="m 199.07771,667.1826 c -10.53671,-8.34523 -10.46859,-27.25385 0.13659,-37.91599 4.31464,-4.33782 4.5994,-5.17598 19.07533,-10.97583 14.47593,-5.79985 27.97284,-8.26766 39.64792,-12.9682 10.08154,-2.90756 4.54007,-1.60114 13.47282,-4.41193 0.93283,-0.28364 2.87044,-2.99813 4.30578,-6.03221 3.48456,-7.36575 17.38442,-19.58766 22.27686,-19.58766 1.01699,0 4.86846,-2.025 8.55883,-4.5 7.46072,-5.00365 9.51326,-5.42733 12.15438,-2.50893 1.94754,2.15201 9.77582,7.00893 11.29684,7.00893 5.95207,0 18.57245,14.31445 22.22655,26.28068 1.45662,4.77007 3.5491,6.71932 9.72782,6.71932 6.15493,2.3054 13.41941,2.24366 19.03899,4.62075 5.31471,2.1198 11.21884,3.39902 16.21788,5.34685 20.58439,15.10456 40.59959,-19.75402 64.30712,-41.08182 3.95609,-3.46712 11.24288,-10.37229 16.19288,-15.34482 4.95,-4.97253 11.025,-10.36836 13.5,-11.99074 11.86598,-7.77822 11.54278,-12.67642 -1.2635,-19.14849 -24.3797,-14.63022 -47.35721,-34.53234 -66.7365,-52.95226 -12.8212,-12.41202 -16.03936,-14.44032 -22.98213,-14.48491 -3.03483,-0.0195 -6.64287,-0.67854 -8.01787,-1.46456 -1.375,-0.78602 -3.97144,-1.44507 -5.76987,-1.46457 -6.93322,-0.0751 -16.23013,-8.09621 -16.23013,-14.00283 0,-2.6664 -1.03116,-5.89002 -3,-9.37861 -4.68606,-8.30324 -4.20924,-10.75866 2.97924,-15.34181 3.98078,-2.53802 5.99196,-4.48065 6.01728,-5.81218 0.17112,-8.99875 32.45404,-9.69487 35.69346,-0.76966 0.35327,0.97331 1.91754,3.40942 3.47616,5.41356 1.55862,2.00415 2.83386,4.03516 2.83386,4.51335 0,0.4782 1.575,3.20819 3.5,6.06665 1.925,2.85846 3.5,5.73087 3.5,6.38314 11.61967,22.13079 49.91556,33.69394 70.5,50.16923 1.65,1.35099 5.475,3.69984 8.5,5.21965 3.025,1.51982 7.1888,4.27998 9.25288,6.13369 2.06409,1.85372 4.19483,3.37039 4.73498,3.37039 2.24079,0 11.85786,6.62581 16.52723,11.38666 2.75831,2.81234 7.03331,6.732 9.5,8.71036 10.18728,8.17048 8.27082,11.66413 -7.18472,34.59029 -15.45554,22.92616 -44.4923,47.52082 -59.48784,71.1284 -5.79203,4.6114 -19.21532,27.24242 -26.60387,34.66005 -7.38854,7.41763 -12.78594,8.85582 -22.26615,14.52345 -9.48021,5.66763 -41.13188,8.89504 -61.81827,10.50079 -20.68639,1.60575 -53.8249,2.35163 -78.2971,-0.38594 -24.4722,-2.73757 -63.72405,-4.7583 -89.49373,-20.22224 z m 167.42154,15.776 c 25.32493,-2.10599 50.7855,-2.4893 68.51134,-14.30432 13.65652,-8.33583 21.0975,-19.36967 25.418,-26.85436 7.2219,-13.58244 15.22048,-18.19411 29.62265,-36.42093 14.40217,-18.22682 44.98795,-43.32152 53.41209,-68.23536 0.90388,-5.56998 -9.60669,-18.70113 -19.92515,-24.89305 -2.10313,-1.26205 -5.62388,-3.69658 -7.82388,-5.41006 -23.38932,-16.032 -46.6552,-30.26222 -68.81565,-42.37668 -16.4705,-8.86048 -20.85464,-12.61606 -25.30044,-21.67306 -13.35339,-27.20353 -18.17702,-31.45341 -32.26939,-28.43114 -5.85783,1.25628 -6.81274,2.19173 -7.6626,7.50643 -0.63636,3.97961 2.92501,10.69003 4.1484,7.81652 1.57476,-3.69882 3.14259,-4.53939 8.71002,-4.66974 7.56426,-0.1771 10.18109,2.28454 11.066,10.40976 0.74603,6.85004 -0.17557,7.88922 -7.61428,8.58576 -2.89413,0.271 -6.43992,1.10112 -7.87953,1.84472 -2.05547,1.06169 -2.93507,1.09279 -4.09662,0.14484 -2.00009,-1.6323 -5.78591,-8.09961 -5.78591,-9.88405 0,-2.36267 -2.26882,-4.66264 -6.1965,-6.28158 -4.87872,-2.01095 -5.2706,-0.93775 -1.73298,4.74594 1.81281,2.91254 2.92948,6.06697 2.92948,8.27533 0,6.3736 6.84405,12.39441 14.17807,12.47264 1.82706,0.0195 4.44693,0.67855 5.82193,1.46457 1.375,0.78602 4.39584,1.44507 6.71298,1.46456 8.66595,0.0729 12.69648,2.73727 30.15502,19.93402 9.63234,9.48789 17.45111,16.38473 19,16.75966 1.4476,0.35042 7.91264,5.74566 14.36676,11.98944 5.48651,7.01628 14.09608,11.38777 20.26524,15.95565 3.3,2.45812 7.91216,5.37387 10.24924,6.47945 5.07589,2.40119 13.25076,10.40009 13.25076,12.96552 0,1.18708 -3.05761,3.8435 -8.75,7.60192 -4.8125,3.17747 -12.65279,9.61854 -17.42288,14.3135 -4.77008,4.69495 -12.08548,11.46128 -16.25644,15.03628 -17.73082,12.40706 -45.80033,54.90311 -58.01181,48.4682 -2.46097,-1.84844 -5.62046,-1.02489 -8.10887,-2.37678 -0.5225,-0.49972 -4.55,-2.09692 -8.95,-3.54934 -9.49433,-5.30628 -17.51928,-5.75001 -27.62607,-7.17811 -10.10679,-1.4281 -6.98153,-1.25388 -5.93094,4.39609 1.15397,6.20593 0.16063,27.18298 -1.45565,30.73994 -0.74976,1.65 -2.3067,5.08674 -3.45987,7.6372 -3.64081,8.05237 -10.89361,15.1619 -19.69354,18.8628 -8.79993,3.7009 -27.78979,3.56247 -37.4275,-0.9448 -9.6377,-4.50727 -19.321,-12.1375 -22.52278,-17.99408 -3.20178,-5.85658 -6.0459,-18.75353 -5.30108,-27.33117 2.17888,-21.19107 2.41718,-20.2481 -5.08257,-20.11198 -4.98888,0.0905 -8.09091,0.84611 -13.34322,3.25 -13.54012,3.88009 -27.86806,8.49672 -38.14515,13.13203 -10.97371,4.91928 -10.66814,10.17597 -13.26308,16 -4.36637,18.43954 9.58309,25.98 24.21308,29.16302 2.7289,0.55248 6.19405,1.64181 7.70034,2.42074 19.71647,7.46637 43.36248,6.35326 63.93948,9.32609 20.57701,2.97283 64.03958,2.59656 72.1835,-0.24203 z m -35.26759,-11.66782 c 9.46517,-2.59512 11.40953,-7.26694 16.66584,-15.5 8.04533,-12.60155 4.29894,-40.82513 1.0668,-45.75852 -1.47502,-5.65688 -3.87817,-9.5331 -5.63725,-14.84599 -1.6698,-5.13627 -7.22141,-11.19978 -12.27794,-13.41005 -2.38414,-1.04214 -5.408,-2.7027 -6.71967,-3.69012 -7.76861,-5.8482 -27.09756,-0.14548 -36.61514,10.80274 -9.79269,11.26469 -12.8104,28.16155 -14.43818,42.37338 -1.62779,14.21182 4.4523,25.21393 13.23782,31.33503 13.00179,11.46555 28.86297,13.07391 44.71772,8.69353 z"
       id="path3066"
       inkscape:connector-curvature="0"
       sodipodi:nodetypes="cszccssssssccccssccsscssssssssccssssszczzzzcccczcsccssssssssssssssssssccsssscccczssszzzcsccccczccsccssszcc" />
    <path
       style="fill:none;stroke:#000000;stroke-width:1;stroke-linecap:butt;stroke-linejoin:miter;stroke-miterlimit:4;stroke-opacity:1;stroke-dasharray:1, 1;stroke-dashoffset:0"
       d="M 578.10311,478.65588 424.28571,649.50504"
       id="path2995"
       inkscape:connector-curvature="0"
       sodipodi:nodetypes="cc" />
    <path
       style="fill:none;stroke:#000000;stroke-width:2;stroke-linecap:round;stroke-linejoin:miter;stroke-miterlimit:4;stroke-opacity:1;stroke-dasharray:none;stroke-dashoffset:0"
       d="M 527.29963,535.16408 392.85714,435.21932"
       id="path3767"
       inkscape:connector-curvature="0" />
    <path
       style="fill:none;stroke:#000000;stroke-width:1px;stroke-linecap:round;stroke-linejoin:miter;stroke-opacity:1;marker-start:url(#TriangleInL);marker-end:none"
       d="m 424.28571,535.16408 0,114.34096"
       id="path3769"
       inkscape:connector-curvature="0" />
    <path
       style="fill:none;stroke:#000000;stroke-width:1px;stroke-linecap:round;stroke-linejoin:miter;stroke-opacity:1;marker-start:url(#TriangleInL);marker-end:none"
       d="m 527.29963,649.50504 -103.03556,0"
       id="path3771"
       inkscape:connector-curvature="0"
       sodipodi:nodetypes="cc" />
    <path
       style="fill:none;stroke:#000000;stroke-width:2;stroke-linecap:round;stroke-linejoin:miter;stroke-miterlimit:4;stroke-opacity:1;stroke-dasharray:none"
       d="M 424.28571,649.50504 527.29963,535.16408"
       id="path3773"
       inkscape:connector-curvature="0" />
    <text
       xml:space="preserve"
       style="font-size:16px;font-style:normal;font-weight:normal;line-height:125%;letter-spacing:0px;word-spacing:0px;fill:#000000;fill-opacity:1;stroke:none;font-family:Sans"
       x="411.05087"
       y="662.92181"
       id="text5339"
       sodipodi:linespacing="125%"><tspan
         sodipodi:role="line"
         id="tspan5341"
         x="411.05087"
         y="662.92181">0</tspan></text>
    <path
       sodipodi:type="arc"
       style="fill:none;stroke:#000000;stroke-width:1.10000002;stroke-linecap:round;stroke-miterlimit:4;stroke-opacity:1;stroke-dasharray:none;stroke-dashoffset:0"
       id="path5346"
       sodipodi:cx="424.28571"
       sodipodi:cy="649.50507"
       sodipodi:rx="22.417082"
       sodipodi:ry="22.417082"
       d="m 439.29541,632.85471 c 4.60642,4.15252 7.28671,10.02782 7.40341,16.22853"
       sodipodi:start="5.4460129"
       sodipodi:end="6.264367"
       sodipodi:open="true" />
    <path
       sodipodi:type="arc"
       style="fill:none;stroke:#000000;stroke-width:1;stroke-linecap:round;stroke-miterlimit:4;stroke-opacity:1;stroke-dasharray:none;stroke-dashoffset:0"
       id="path5350"
       sodipodi:cx="527.29962"
       sodipodi:cy="535.16406"
       sodipodi:rx="13.906642"
       sodipodi:ry="13.906642"
       d="m 516.19317,526.79499 c 4.62211,-6.13392 13.3416,-7.35949 19.47552,-2.73738 0.22638,0.17058 0.44749,0.34805 0.66303,0.53215"
       sodipodi:start="3.7873506"
       sodipodi:end="5.4192901"
       sodipodi:open="true" />
  </g>
  <path
     transform="scale(0.8,0.8)"
     inkscape:connector-curvature="0"
     id="path3995"
     d="m 768.99017,438.24765 c 0.60128,-2.51992 1.56571,-13.73859 2.14314,-24.9304 1.16104,-22.50281 -1.58518,-39.49884 -9.54904,-59.09797 -24.89431,-61.26533 -93.03514,-108.01061 -173.82825,-119.24788 -26.14951,-3.63708 -70.42566,-2.41892 -97.22831,2.67498 l -7.18416,1.36537 4.08628,-6.61173 c 7.24336,-11.72002 7.89804,-17.02281 2.84329,-23.03005 l -4.4388,-5.27519 10.52045,-11.52912 c 5.78625,-6.34101 13.95164,-15.29493 18.14531,-19.89759 4.1937,-4.60266 7.16044,-9.11998 6.59277,-10.03848 -0.56767,-0.9185 -2.11712,-0.18617 -3.44323,1.6274 -1.3261,1.81356 -8.41635,9.90188 -15.75609,17.97403 -7.33974,8.07215 -14.26603,15.93185 -15.39175,17.466 -1.76295,2.40259 -3.28771,1.8373 -10.996,-4.07653 -11.93959,-9.16011 -43.862,-29.66357 -63.07003,-40.50927 -32.58217,-18.39736 -36.67887,-22.18378 -52.05913,-48.11632 -7.54563,-12.722589 -10.49921,-14.285358 -26.33872,-13.936048 -9.13876,0.201537 -10.30098,0.782646 -19.12888,9.564388 l -9.39897,9.34983 4.17011,12.71997 c 2.29355,6.99598 5.66917,14.07662 7.5014,15.73476 3.96289,3.58638 18.64332,8.25839 25.94955,8.25839 3.86295,0 8.99984,3.40709 20.03266,13.28683 26.10322,23.37508 44.33229,37.98492 60.73867,48.67952 8.79519,5.73321 16.45256,11.5976 17.01634,13.03197 0.64055,1.62966 -2.60818,5.7324 -8.66058,10.93721 -5.32713,4.58109 -16.05369,14.455 -23.83679,21.94204 l -14.15113,13.61278 -12.88142,0.19101 -12.88141,0.19102 6.8e-4,-23.21379 c 4.7e-4,-15.73133 0.67335,-23.438 2.08755,-23.9094 1.47227,-0.49075 1.27453,-2.24603 -0.67143,-5.96002 l -2.7583,-5.26439 -3.41329,5.20934 c -2.4734,3.77491 -2.79315,5.41602 -1.16123,5.96 1.62455,0.54151 2.25206,7.28604 2.25206,24.20508 l 0,23.45439 -8.70517,2.18827 c -10.64432,2.67574 -24.85213,9.60353 -33.44619,16.30851 -5.8936,4.59813 -7.12726,4.86916 -15.1962,3.33877 -8.04741,-1.52632 -9.15012,-2.39236 -13.18531,-10.35543 -2.42191,-4.7794 -6.54984,-11.24063 -9.17318,-14.35827 -4.85732,-5.77261 -23.27618,-16.84607 -28.02062,-16.84607 -5.4411,0 -28.42235,13.71778 -33.52272,20.01009 -2.92614,3.60997 -6.77333,8.32532 -8.5493,10.47854 -2.1262,2.57783 -11.59347,6.53155 -27.71944,11.57615 -44.90725,14.04813 -53.39798,20.50126 -53.39798,40.58354 0,7.48407 0.98962,11.58151 3.59807,14.89763 12.0036,15.26009 72.12543,25.83564 142.33977,25.03781 l 38.72682,-0.44002 10.64514,7.06583 10.64514,7.06585 -8.13694,3.52783 c -4.4753,1.9403 -17.62097,5.90504 -29.21259,8.81051 -63.75093,15.97941 -128.9927,9.39015 -186.63466,-18.84963 C 29.714194,338.85668 -7.727485,254.9288 26.536265,180.7694 34.651149,163.20579 42.112116,152.43473 56.842919,137.01705 142.86163,46.987393 299.86302,-0.9524851 447.10425,17.851991 613.6013,39.115668 746.7117,136.1831 783.59287,263.2279 c 13.84456,47.69046 13.15756,97.94549 -1.9946,145.91059 -4.47285,14.15906 -14.64432,37.64261 -12.6081,29.10916 z"
     style="fill:#e6e6e6;fill-opacity:1;stroke-width:2;stroke-miterlimit:4;stroke-dasharray:none" />
</svg>
